CooperHewitt-Thin.ufo
<glyph name="exclam" format="1">
  <advance width="180"/>
  <unicode hex="0021"/>
  <outline>
    <contour>
      <point x="80" y="780" type="line"/>
      <point x="83" y="175" type="line"/>
      <point x="97" y="175" type="line"/>
      <point x="100" y="780" type="line"/>
    </contour>
    <contour>
      <point x="110" y="40" type="line"/>
      <point x="70" y="40" type="line"/>
      <point x="70" y="0" type="line"/>
      <point x="110" y="0" type="line"/>
    </contour>
  </outline>
</glyph>
<glyph name="quotedbl" format="1">
  <advance width="280"/>
  <unicode hex="0022"/>
  <outline>
    <contour>
      <point x="80" y="780" type="line"/>
      <point x="85" y="530" type="line"/>
      <point x="95" y="530" type="line"/>
      <point x="100" y="780" type="line"/>
    </contour>
    <contour>
      <point x="180" y="780" type="line"/>
      <point x="185" y="530" type="line"/>
      <point x="195" y="530" type="line"/>
      <point x="200" y="780" type="line"/>
    </contour>
  </outline>
</glyph>
<glyph name="numbersign" format="1">
  <advance width="600"/>
  <unicode hex="0023"/>
  <outline>
    <contour>
      <point x="100" y="510" type="line"/>
      <point x="212" y="510" type="line"/>
      <point x="155" y="270" type="line"/>
      <point x="37" y="270" type="line"/>
      <point x="37" y="250" type="line"/>
      <point x="150" y="250" type="line"/>
      <point x="90" y="0" type="line"/>
      <point x="110" y="0" type="line"/>
      <point x="169" y="250" type="line"/>
      <point x="363" y="250" type="line"/>
      <point x="303" y="0" type="line"/>
      <point x="323" y="0" type="line"/>
      <point x="382" y="250" type="line"/>
      <point x="500" y="250" type="line"/>
      <point x="500" y="270" type="line"/>
      <point x="387" y="270" type="line"/>
      <point x="445" y="510" type="line"/>
      <point x="563" y="510" type="line"/>
      <point x="563" y="530" type="line"/>
      <point x="450" y="530" type="line"/>
      <point x="510" y="780" type="line"/>
      <point x="490" y="780" type="line"/>
      <point x="430" y="530" type="line"/>
      <point x="237" y="530" type="line"/>
      <point x="297" y="780" type="line"/>
      <point x="277" y="780" type="line"/>
      <point x="217" y="530" type="line"/>
      <point x="100" y="530" type="line"/>
    </contour>
    <contour>
      <point x="232" y="510" type="line"/>
      <point x="425" y="510" type="line"/>
      <point x="368" y="270" type="line"/>
      <point x="174" y="270" type="line"/>
    </contour>
  </outline>
</glyph>
<glyph name="dollar" format="1">
  <advance width="600"/>
  <unicode hex="0024"/>
  <outline>
    <contour>
      <point x="413" y="840" type="line"/>
      <point x="393" y="840" type="line"/>
      <point x="363" y="714" type="line"/>
      <point x="343" y="718"/>
      <point x="322" y="720"/>
      <point x="299" y="720" type="curve" smooth="yes"/>
      <point x="176" y="720"/>
      <point x="80" y="655"/>
      <point x="80" y="553" type="curve" smooth="yes"/>
      <point x="80" y="545" type="line" smooth="yes"/>
      <point x="80" y="461"/>
      <point x="136" y="410"/>
      <point x="286" y="392" type="curve"/>
      <point x="214" y="91" type="line"/>
      <point x="134" y="117"/>
      <point x="95" y="182"/>
      <point x="95" y="271" type="curve"/>
      <point x="75" y="271" type="line"/>
      <point x="75" y="266" type="line" smooth="yes"/>
      <point x="75" y="177"/>
      <point x="116" y="101"/>
      <point x="209" y="72" type="curve"/>
      <point x="178" y="-60" type="line"/>
      <point x="198" y="-60" type="line"/>
      <point x="228" y="67" type="line"/>
      <point x="250" y="62"/>
      <point x="273" y="60"/>
      <point x="300" y="60" type="curve" smooth="yes"/>
      <point x="427" y="60"/>
      <point x="525" y="125"/>
      <point x="525" y="235" type="curve" smooth="yes"/>
      <point x="525" y="243" type="line" smooth="yes"/>
      <point x="525" y="342"/>
      <point x="460" y="393"/>
      <point x="310" y="409" type="curve"/>
      <point x="377" y="690" type="line"/>
      <point x="459" y="667"/>
      <point x="500" y="603"/>
      <point x="500" y="498" type="curve"/>
      <point x="520" y="498" type="line"/>
      <point x="520" y="512" type="line" smooth="yes"/>
      <point x="520" y="609"/>
      <point x="476" y="683"/>
      <point x="382" y="709" type="curve"/>
    </contour>
    <contour>
      <point x="505" y="239" type="curve" smooth="yes"/>
      <point x="505" y="234" type="line" smooth="yes"/>
      <point x="505" y="137"/>
      <point x="416" y="80"/>
      <point x="301" y="80" type="curve" smooth="yes"/>
      <point x="298" y="80" type="line" smooth="yes"/>
      <point x="274" y="80"/>
      <point x="252" y="82"/>
      <point x="233" y="86" type="curve"/>
      <point x="305" y="390" type="line"/>
      <point x="437" y="374"/>
      <point x="505" y="339"/>
    </contour>
    <contour>
      <point x="101" y="549" type="curve" smooth="yes"/>
      <point x="101" y="554" type="line" smooth="yes"/>
      <point x="101" y="644"/>
      <point x="191" y="700"/>
      <point x="298" y="700" type="curve" smooth="yes"/>
      <point x="301" y="700" type="line" smooth="yes"/>
      <point x="322" y="700"/>
      <point x="341" y="698"/>
      <point x="358" y="695" type="curve"/>
      <point x="290" y="411" type="line"/>
      <point x="152" y="428"/>
      <point x="101" y="466"/>
    </contour>
  </outline>
</glyph>
<glyph name="percent" format="1">
  <advance width="900"/>
  <unicode hex="0025"/>
  <outline>
    <contour>
      <point x="846" y="165" type="line" smooth="yes"/>
      <point x="846" y="266"/>
      <point x="787" y="326"/>
      <point x="698" y="326" type="curve" smooth="yes"/>
      <point x="609" y="326"/>
      <point x="550" y="266"/>
      <point x="550" y="165" type="curve" smooth="yes"/>
      <point x="550" y="155" type="line" smooth="yes"/>
      <point x="550" y="54"/>
      <point x="609" y="-6"/>
      <point x="698" y="-6" type="curve" smooth="yes"/>
      <point x="787" y="-6"/>
      <point x="846" y="54"/>
      <point x="846" y="155" type="curve" smooth="yes"/>
    </contour>
    <contour>
      <point x="570" y="168" type="line" smooth="yes"/>
      <point x="570" y="246"/>
      <point x="618" y="306"/>
      <point x="695" y="306" type="curve" smooth="yes"/>
      <point x="701" y="306" type="line" smooth="yes"/>
      <point x="778" y="306"/>
      <point x="826" y="246"/>
      <point x="826" y="168" type="curve" smooth="yes"/>
      <point x="826" y="152" type="line" smooth="yes"/>
      <point x="826" y="74"/>
      <point x="778" y="14"/>
      <point x="701" y="14" type="curve" smooth="yes"/>
      <point x="695" y="14" type="line" smooth="yes"/>
      <point x="618" y="14"/>
      <point x="570" y="74"/>
      <point x="570" y="152" type="curve" smooth="yes"/>
    </contour>
    <contour>
      <point x="330" y="612" type="line" smooth="yes"/>
      <point x="330" y="534"/>
      <point x="282" y="474"/>
      <point x="205" y="474" type="curve" smooth="yes"/>
      <point x="199" y="474" type="line" smooth="yes"/>
      <point x="122" y="474"/>
      <point x="74" y="534"/>
      <point x="74" y="612" type="curve" smooth="yes"/>
      <point x="74" y="628" type="line" smooth="yes"/>
      <point x="74" y="706"/>
      <point x="122" y="766"/>
      <point x="199" y="766" type="curve" smooth="yes"/>
      <point x="205" y="766" type="line" smooth="yes"/>
      <point x="282" y="766"/>
      <point x="330" y="706"/>
      <point x="330" y="628" type="curve" smooth="yes"/>
    </contour>
    <contour>
      <point x="277" y="0" type="line"/>
      <point x="299" y="0" type="line"/>
      <point x="617" y="765" type="line"/>
      <point x="617" y="780" type="line"/>
      <point x="586" y="769"/>
      <point x="510" y="750"/>
      <point x="440" y="750" type="curve" smooth="yes"/>
      <point x="383" y="750"/>
      <point x="319" y="757"/>
      <point x="258" y="777" type="curve" smooth="yes"/>
      <point x="241" y="783"/>
      <point x="222" y="786"/>
      <point x="202" y="786" type="curve" smooth="yes"/>
      <point x="113" y="786"/>
      <point x="54" y="726"/>
      <point x="54" y="625" type="curve" smooth="yes"/>
      <point x="54" y="615" type="line" smooth="yes"/>
      <point x="54" y="514"/>
      <point x="113" y="454"/>
      <point x="202" y="454" type="curve" smooth="yes"/>
      <point x="291" y="454"/>
      <point x="350" y="514"/>
      <point x="350" y="615" type="curve" smooth="yes"/>
      <point x="350" y="625" type="line" smooth="yes"/>
      <point x="350" y="675"/>
      <point x="335" y="715"/>
      <point x="310" y="743" type="curve"/>
      <point x="347" y="735"/>
      <point x="390" y="730"/>
      <point x="440" y="730" type="curve" smooth="yes"/>
      <point x="520" y="730"/>
      <point x="591" y="753"/>
      <point x="591" y="753" type="curve"/>
    </contour>
  </outline>
</glyph>
<glyph name="ampersand" format="1">
  <advance width="640"/>
  <unicode hex="0026"/>
  <outline>
    <contour>
      <point x="275" y="-6" type="curve" smooth="yes"/>
      <point x="363" y="-6"/>
      <point x="446" y="25"/>
      <point x="500" y="110" type="curve"/>
      <point x="604" y="0" type="line"/>
      <point x="630" y="0" type="line"/>
      <point x="510" y="127" type="line"/>
      <point x="544" y="189"/>
      <point x="565" y="276"/>
      <point x="565" y="395" type="curve"/>
      <point x="545" y="395" type="line"/>
      <point x="545" y="390" type="line"/>
      <point x="544" y="278"/>
      <point x="525" y="199"/>
      <point x="495" y="142" type="curve"/>
      <point x="230" y="422" type="line"/>
      <point x="319" y="482"/>
      <point x="415" y="534"/>
      <point x="415" y="630" type="curve" smooth="yes"/>
      <point x="415" y="640" type="line" smooth="yes"/>
      <point x="415" y="720"/>
      <point x="360" y="786"/>
      <point x="250" y="786" type="curve" smooth="yes"/>
      <point x="140" y="786"/>
      <point x="85" y="720"/>
      <point x="85" y="640" type="curve" smooth="yes"/>
      <point x="85" y="630" type="line" smooth="yes"/>
      <point x="85" y="552"/>
      <point x="131" y="498"/>
      <point x="202" y="423" type="curve"/>
      <point x="128" y="372"/>
      <point x="60" y="311"/>
      <point x="60" y="210" type="curve" smooth="yes"/>
      <point x="60" y="200" type="line" smooth="yes"/>
      <point x="60" y="65"/>
      <point x="140" y="-6"/>
    </contour>
    <contour>
      <point x="272" y="14" type="line" smooth="yes"/>
      <point x="148" y="14"/>
      <point x="80" y="84"/>
      <point x="80" y="200" type="curve" smooth="yes"/>
      <point x="80" y="210" type="line" smooth="yes"/>
      <point x="80" y="303"/>
      <point x="143" y="361"/>
      <point x="214" y="411" type="curve"/>
      <point x="486" y="124" type="line"/>
      <point x="433" y="39"/>
      <point x="352" y="14"/>
      <point x="278" y="14" type="curve" smooth="yes"/>
    </contour>
    <contour>
      <point x="105" y="640" type="line" smooth="yes"/>
      <point x="105" y="710"/>
      <point x="153" y="766"/>
      <point x="246" y="766" type="curve" smooth="yes"/>
      <point x="254" y="766" type="line" smooth="yes"/>
      <point x="347" y="766"/>
      <point x="395" y="710"/>
      <point x="395" y="640" type="curve" smooth="yes"/>
      <point x="395" y="630" type="line" smooth="yes"/>
      <point x="395" y="542"/>
      <point x="305" y="492"/>
      <point x="218" y="434" type="curve"/>
      <point x="154" y="501"/>
      <point x="105" y="555"/>
      <point x="105" y="630" type="curve" smooth="yes"/>
    </contour>
  </outline>
</glyph>
<glyph name="quotesingle" format="1">
  <advance width="180"/>
  <unicode hex="0027"/>
  <outline>
    <contour>
      <point x="80" y="780" type="line"/>
      <point x="85" y="530" type="line"/>
      <point x="95" y="530" type="line"/>
      <point x="100" y="780" type="line"/>
    </contour>
  </outline>
</glyph>
<glyph name="parenleft" format="1">
  <advance width="300"/>
  <unicode hex="0028"/>
  <outline>
    <contour>
      <point x="65" y="350" type="line" smooth="yes"/>
      <point x="65" y="118"/>
      <point x="142" y="-10"/>
      <point x="227" y="-120" type="curve"/>
      <point x="250" y="-120" type="line"/>
      <point x="156" y="-1"/>
      <point x="85" y="131"/>
      <point x="85" y="350" type="curve" smooth="yes"/>
      <point x="85" y="370" type="line" smooth="yes"/>
      <point x="85" y="589"/>
      <point x="156" y="721"/>
      <point x="250" y="840" type="curve"/>
      <point x="227" y="840" type="line"/>
      <point x="142" y="730"/>
      <point x="65" y="602"/>
      <point x="65" y="370" type="curve" smooth="yes"/>
    </contour>
  </outline>
</glyph>
<glyph name="parenright" format="1">
  <advance width="300"/>
  <unicode hex="0029"/>
  <outline>
    <contour>
      <point x="235" y="370" type="line" smooth="yes"/>
      <point x="235" y="602"/>
      <point x="158" y="730"/>
      <point x="73" y="840" type="curve"/>
      <point x="50" y="840" type="line"/>
      <point x="144" y="721"/>
      <point x="215" y="589"/>
      <point x="215" y="370" type="curve" smooth="yes"/>
      <point x="215" y="350" type="line" smooth="yes"/>
      <point x="215" y="131"/>
      <point x="144" y="-1"/>
      <point x="50" y="-120" type="curve"/>
      <point x="73" y="-120" type="line"/>
      <point x="158" y="-10"/>
      <point x="235" y="118"/>
      <point x="235" y="350" type="curve" smooth="yes"/>
    </contour>
  </outline>
</glyph>
<glyph name="asterisk" format="1">
  <advance width="380"/>
  <unicode hex="002A"/>
  <outline>
    <contour>
      <point x="180" y="800" type="line"/>
      <point x="180" y="650" type="line"/>
      <point x="200" y="650" type="line"/>
      <point x="200" y="800" type="line"/>
    </contour>
    <contour>
      <point x="92" y="468" type="line"/>
      <point x="180" y="590" type="line"/>
      <point x="164" y="601" type="line"/>
      <point x="76" y="480" type="line"/>
    </contour>
    <contour>
      <point x="15" y="666" type="line"/>
      <point x="158" y="620" type="line"/>
      <point x="164" y="639" type="line"/>
      <point x="21" y="685" type="line"/>
    </contour>
    <contour>
      <point x="304" y="480" type="line"/>
      <point x="216" y="601" type="line"/>
      <point x="200" y="590" type="line"/>
      <point x="288" y="468" type="line"/>
    </contour>
    <contour>
      <point x="359" y="685" type="line"/>
      <point x="216" y="639" type="line"/>
      <point x="222" y="620" type="line"/>
      <point x="365" y="666" type="line"/>
    </contour>
  </outline>
</glyph>
<glyph name="plus" format="1">
  <advance width="600"/>
  <unicode hex="002B"/>
  <outline>
    <contour>
      <point x="290" y="640" type="line"/>
      <point x="290" y="400" type="line"/>
      <point x="50" y="400" type="line"/>
      <point x="50" y="380" type="line"/>
      <point x="290" y="380" type="line"/>
      <point x="290" y="140" type="line"/>
      <point x="310" y="140" type="line"/>
      <point x="310" y="380" type="line"/>
      <point x="550" y="380" type="line"/>
      <point x="550" y="400" type="line"/>
      <point x="310" y="400" type="line"/>
      <point x="310" y="640" type="line"/>
    </contour>
  </outline>
</glyph>
<glyph name="comma" format="1">
  <advance width="180"/>
  <unicode hex="002C"/>
  <outline>
    <contour>
      <point x="110" y="40" type="line"/>
      <point x="70" y="40" type="line"/>
      <point x="70" y="0" type="line"/>
      <point x="90" y="0" type="line"/>
      <point x="89" y="-66"/>
      <point x="61" y="-85"/>
      <point x="25" y="-85" type="curve"/>
      <point x="25" y="-105" type="line"/>
      <point x="76" y="-105"/>
      <point x="110" y="-68"/>
      <point x="110" y="8" type="curve" smooth="yes"/>
    </contour>
  </outline>
</glyph>
<glyph name="hyphen" format="1">
  <advance width="320"/>
  <unicode hex="002D"/>
  <outline>
    <contour>
      <point x="50" y="330" type="line"/>
      <point x="270" y="330" type="line"/>
      <point x="270" y="350" type="line"/>
      <point x="50" y="350" type="line"/>
    </contour>
  </outline>
</glyph>
<glyph name="period" format="1">
  <advance width="180"/>
  <unicode hex="002E"/>
  <outline>
    <contour>
      <point x="110" y="40" type="line"/>
      <point x="70" y="40" type="line"/>
      <point x="70" y="0" type="line"/>
      <point x="110" y="0" type="line"/>
    </contour>
  </outline>
</glyph>
<glyph name="slash" format="1">
  <advance width="300"/>
  <unicode hex="002F"/>
  <outline>
    <contour>
      <point x="275" y="840" type="line"/>
      <point x="255" y="840" type="line"/>
      <point x="25" y="-120" type="line"/>
      <point x="45" y="-120" type="line"/>
    </contour>
  </outline>
</glyph>
<glyph name="zero" format="1">
  <advance width="600"/>
  <unicode hex="0030"/>
  <outline>
    <contour>
      <point x="70" y="544" type="curve" smooth="yes"/>
      <point x="70" y="236" type="line" smooth="yes"/>
      <point x="70" y="91"/>
      <point x="146" y="-6"/>
      <point x="300" y="-6" type="curve" smooth="yes"/>
      <point x="454" y="-6"/>
      <point x="530" y="91"/>
      <point x="530" y="236" type="curve" smooth="yes"/>
      <point x="530" y="544" type="line" smooth="yes"/>
      <point x="530" y="689"/>
      <point x="454" y="786"/>
      <point x="300" y="786" type="curve" smooth="yes"/>
      <point x="146" y="786"/>
      <point x="70" y="689"/>
    </contour>
    <contour>
      <point x="90" y="250" type="curve" smooth="yes"/>
      <point x="90" y="530" type="line" smooth="yes"/>
      <point x="90" y="696"/>
      <point x="172" y="766"/>
      <point x="297" y="766" type="curve" smooth="yes"/>
      <point x="303" y="766" type="line" smooth="yes"/>
      <point x="428" y="766"/>
      <point x="510" y="696"/>
      <point x="510" y="530" type="curve" smooth="yes"/>
      <point x="510" y="250" type="line" smooth="yes"/>
      <point x="510" y="84"/>
      <point x="428" y="14"/>
      <point x="303" y="14" type="curve" smooth="yes"/>
      <point x="297" y="14" type="line" smooth="yes"/>
      <point x="172" y="14"/>
      <point x="90" y="84"/>
    </contour>
  </outline>
</glyph>
<glyph name="one" format="1">
  <advance width="600"/>
  <unicode hex="0031"/>
  <outline>
    <contour>
      <point x="540" y="0" type="line"/>
      <point x="540" y="20" type="line"/>
      <point x="320" y="20" type="line"/>
      <point x="320" y="785" type="line"/>
      <point x="305" y="785" type="line"/>
      <point x="70" y="627" type="line"/>
      <point x="81" y="610" type="line"/>
      <point x="300" y="757" type="line"/>
      <point x="300" y="20" type="line"/>
      <point x="80" y="20" type="line"/>
      <point x="80" y="0" type="line"/>
    </contour>
  </outline>
</glyph>
<glyph name="two" format="1">
  <advance width="600"/>
  <unicode hex="0032"/>
  <outline>
    <contour>
      <point x="205" y="20" type="line"/>
      <point x="95" y="19" type="line"/>
      <point x="427" y="367" type="line" smooth="yes"/>
      <point x="509" y="453"/>
      <point x="535" y="495"/>
      <point x="535" y="580" type="curve" smooth="yes"/>
      <point x="535" y="590" type="line" smooth="yes"/>
      <point x="535" y="712"/>
      <point x="430" y="786"/>
      <point x="300" y="786" type="curve" smooth="yes"/>
      <point x="134" y="786"/>
      <point x="65" y="700"/>
      <point x="65" y="545" type="curve" smooth="yes"/>
      <point x="65" y="520" type="line"/>
      <point x="85" y="520" type="line"/>
      <point x="85" y="679"/>
      <point x="134" y="766"/>
      <point x="296" y="766" type="curve" smooth="yes"/>
      <point x="304" y="766" type="line" smooth="yes"/>
      <point x="417" y="766"/>
      <point x="515" y="700"/>
      <point x="515" y="590" type="curve" smooth="yes"/>
      <point x="515" y="580" type="line" smooth="yes"/>
      <point x="515" y="498"/>
      <point x="486" y="457"/>
      <point x="414" y="381" type="curve" smooth="yes"/>
      <point x="65" y="15" type="line"/>
      <point x="65" y="0" type="line"/>
      <point x="535" y="0" type="line"/>
      <point x="535" y="20" type="line"/>
    </contour>
  </outline>
</glyph>
<glyph name="three" format="1">
  <advance width="600"/>
  <unicode hex="0033"/>
  <outline>
    <contour>
      <point x="513" y="597" type="curve" smooth="yes"/>
      <point x="513" y="577" type="line" smooth="yes"/>
      <point x="513" y="474"/>
      <point x="436" y="408"/>
      <point x="323" y="408" type="curve" smooth="yes"/>
      <point x="200" y="408" type="line"/>
      <point x="200" y="388" type="line"/>
      <point x="323" y="388" type="line" smooth="yes"/>
      <point x="447" y="388"/>
      <point x="520" y="323"/>
      <point x="520" y="207" type="curve" smooth="yes"/>
      <point x="520" y="192" type="line" smooth="yes"/>
      <point x="520" y="76"/>
      <point x="427" y="14"/>
      <point x="303" y="14" type="curve" smooth="yes"/>
      <point x="297" y="14" type="line" smooth="yes"/>
      <point x="159" y="14"/>
      <point x="80" y="94"/>
      <point x="80" y="250" type="curve"/>
      <point x="60" y="250" type="line"/>
      <point x="60" y="240" type="line" smooth="yes"/>
      <point x="60" y="94"/>
      <point x="139" y="-6"/>
      <point x="300" y="-6" type="curve" smooth="yes"/>
      <point x="435" y="-6"/>
      <point x="540" y="60"/>
      <point x="540" y="195" type="curve" smooth="yes"/>
      <point x="540" y="205" type="line" smooth="yes"/>
      <point x="540" y="315"/>
      <point x="483" y="378"/>
      <point x="389" y="398" type="curve"/>
      <point x="479" y="418"/>
      <point x="535" y="483"/>
      <point x="535" y="582" type="curve" smooth="yes"/>
      <point x="535" y="592" type="line" smooth="yes"/>
      <point x="535" y="714"/>
      <point x="430" y="786"/>
      <point x="300" y="786" type="curve" smooth="yes"/>
      <point x="137" y="786"/>
      <point x="65" y="694"/>
      <point x="65" y="545" type="curve" smooth="yes"/>
      <point x="65" y="520" type="line"/>
      <point x="85" y="520" type="line"/>
      <point x="85" y="694"/>
      <point x="155" y="766"/>
      <point x="296" y="766" type="curve" smooth="yes"/>
      <point x="302" y="766" type="line" smooth="yes"/>
      <point x="415" y="766"/>
      <point x="513" y="700"/>
    </contour>
  </outline>
</glyph>
<glyph name="four" format="1">
  <advance width="600"/>
  <unicode hex="0034"/>
  <outline>
    <contour>
      <point x="410" y="0" type="line"/>
      <point x="410" y="230" type="line"/>
      <point x="560" y="230" type="line"/>
      <point x="560" y="250" type="line"/>
      <point x="410" y="250" type="line"/>
      <point x="410" y="780" type="line"/>
      <point x="385" y="780" type="line"/>
      <point x="40" y="245" type="line"/>
      <point x="40" y="230" type="line"/>
      <point x="390" y="230" type="line"/>
      <point x="390" y="0" type="line"/>
    </contour>
    <contour>
      <point x="391" y="753" type="line"/>
      <point x="390" y="600" type="line"/>
      <point x="390" y="250" type="line"/>
      <point x="180" y="250" type="line"/>
      <point x="66" y="249" type="line"/>
    </contour>
  </outline>
</glyph>
<glyph name="five" format="1">
  <advance width="600"/>
  <unicode hex="0035"/>
  <outline>
    <contour>
      <point x="297" y="466" type="curve" smooth="yes"/>
      <point x="303" y="466" type="line" smooth="yes"/>
      <point x="427" y="466"/>
      <point x="520" y="380"/>
      <point x="520" y="248" type="curve" smooth="yes"/>
      <point x="520" y="232" type="line" smooth="yes"/>
      <point x="520" y="100"/>
      <point x="427" y="14"/>
      <point x="303" y="14" type="curve" smooth="yes"/>
      <point x="297" y="14" type="line" smooth="yes"/>
      <point x="159" y="14"/>
      <point x="80" y="94"/>
      <point x="80" y="250" type="curve"/>
      <point x="60" y="250" type="line"/>
      <point x="60" y="240" type="line" smooth="yes"/>
      <point x="60" y="94"/>
      <point x="139" y="-6"/>
      <point x="300" y="-6" type="curve" smooth="yes"/>
      <point x="435" y="-6"/>
      <point x="540" y="85"/>
      <point x="540" y="235" type="curve" smooth="yes"/>
      <point x="540" y="245" type="line" smooth="yes"/>
      <point x="540" y="395"/>
      <point x="435" y="486"/>
      <point x="300" y="486" type="curve" smooth="yes"/>
      <point x="199" y="486"/>
      <point x="128" y="446"/>
      <point x="88" y="380" type="curve"/>
      <point x="104" y="760" type="line"/>
      <point x="530" y="760" type="line"/>
      <point x="530" y="780" type="line"/>
      <point x="85" y="780" type="line"/>
      <point x="66" y="339" type="line"/>
      <point x="86" y="333" type="line"/>
      <point x="118" y="421"/>
      <point x="194" y="466"/>
    </contour>
  </outline>
</glyph>
<glyph name="six" format="1">
  <advance width="600"/>
  <unicode hex="0036"/>
  <outline>
    <contour>
      <point x="510" y="786" type="line"/>
      <point x="387" y="786"/>
      <point x="263" y="727"/>
      <point x="177" y="612" type="curve" smooth="yes"/>
      <point x="94" y="501"/>
      <point x="65" y="382"/>
      <point x="65" y="265" type="curve" smooth="yes"/>
      <point x="65" y="255" type="line" smooth="yes"/>
      <point x="65" y="90"/>
      <point x="170" y="-6"/>
      <point x="305" y="-6" type="curve" smooth="yes"/>
      <point x="440" y="-6"/>
      <point x="545" y="85"/>
      <point x="545" y="235" type="curve" smooth="yes"/>
      <point x="545" y="245" type="line" smooth="yes"/>
      <point x="545" y="395"/>
      <point x="445" y="486"/>
      <point x="310" y="486" type="curve" smooth="yes"/>
      <point x="207" y="486"/>
      <point x="132" y="430"/>
      <point x="92" y="358" type="curve"/>
      <point x="104" y="438"/>
      <point x="135" y="521"/>
      <point x="191" y="599" type="curve" smooth="yes"/>
      <point x="273" y="713"/>
      <point x="398" y="767"/>
      <point x="510" y="767" type="curve"/>
    </contour>
    <contour>
      <point x="307" y="466" type="curve" smooth="yes"/>
      <point x="313" y="466" type="line" smooth="yes"/>
      <point x="437" y="466"/>
      <point x="525" y="380"/>
      <point x="525" y="248" type="curve" smooth="yes"/>
      <point x="525" y="232" type="line" smooth="yes"/>
      <point x="525" y="100"/>
      <point x="432" y="14"/>
      <point x="308" y="14" type="curve" smooth="yes"/>
      <point x="302" y="14" type="line" smooth="yes"/>
      <point x="178" y="14"/>
      <point x="85" y="105"/>
      <point x="85" y="252" type="curve" smooth="yes"/>
      <point x="85" y="268" type="line" smooth="yes"/>
      <point x="85" y="283"/>
      <point x="86" y="297"/>
      <point x="87" y="313" type="curve"/>
      <point x="119" y="398"/>
      <point x="205" y="466"/>
    </contour>
  </outline>
</glyph>
<glyph name="seven" format="1">
  <advance width="600"/>
  <unicode hex="0037"/>
  <outline>
    <contour>
      <point x="70" y="500" type="line"/>
      <point x="90" y="500" type="line"/>
      <point x="90" y="760" type="line"/>
      <point x="400" y="760" type="line"/>
      <point x="517" y="761" type="line"/>
      <point x="201" y="0" type="line"/>
      <point x="223" y="0" type="line"/>
      <point x="540" y="765" type="line"/>
      <point x="540" y="780" type="line"/>
      <point x="70" y="780" type="line"/>
    </contour>
  </outline>
</glyph>
<glyph name="eight" format="1">
  <advance width="600"/>
  <unicode hex="0038"/>
  <outline>
    <contour>
      <point x="535" y="582" type="curve" smooth="yes"/>
      <point x="535" y="592" type="line" smooth="yes"/>
      <point x="535" y="714"/>
      <point x="430" y="786"/>
      <point x="300" y="786" type="curve" smooth="yes"/>
      <point x="170" y="786"/>
      <point x="65" y="714"/>
      <point x="65" y="592" type="curve" smooth="yes"/>
      <point x="65" y="582" type="line" smooth="yes"/>
      <point x="65" y="483"/>
      <point x="120" y="418"/>
      <point x="210" y="398" type="curve"/>
      <point x="116" y="378"/>
      <point x="60" y="315"/>
      <point x="60" y="205" type="curve" smooth="yes"/>
      <point x="60" y="195" type="line" smooth="yes"/>
      <point x="60" y="60"/>
      <point x="165" y="-6"/>
      <point x="300" y="-6" type="curve" smooth="yes"/>
      <point x="435" y="-6"/>
      <point x="540" y="60"/>
      <point x="540" y="195" type="curve" smooth="yes"/>
      <point x="540" y="205" type="line" smooth="yes"/>
      <point x="540" y="315"/>
      <point x="483" y="378"/>
      <point x="389" y="398" type="curve"/>
      <point x="479" y="418"/>
      <point x="535" y="483"/>
    </contour>
    <contour>
      <point x="277" y="388" type="curve" smooth="yes"/>
      <point x="323" y="388" type="line" smooth="yes"/>
      <point x="447" y="388"/>
      <point x="520" y="323"/>
      <point x="520" y="207" type="curve" smooth="yes"/>
      <point x="520" y="192" type="line" smooth="yes"/>
      <point x="520" y="76"/>
      <point x="427" y="14"/>
      <point x="303" y="14" type="curve" smooth="yes"/>
      <point x="297" y="14" type="line" smooth="yes"/>
      <point x="173" y="14"/>
      <point x="80" y="76"/>
      <point x="80" y="192" type="curve" smooth="yes"/>
      <point x="80" y="207" type="line" smooth="yes"/>
      <point x="80" y="323"/>
      <point x="153" y="388"/>
    </contour>
    <contour>
      <point x="303" y="766" type="line" smooth="yes"/>
      <point x="416" y="766"/>
      <point x="513" y="700"/>
      <point x="513" y="597" type="curve" smooth="yes"/>
      <point x="513" y="577" type="line" smooth="yes"/>
      <point x="513" y="474"/>
      <point x="436" y="408"/>
      <point x="323" y="408" type="curve" smooth="yes"/>
      <point x="277" y="408" type="line" smooth="yes"/>
      <point x="164" y="408"/>
      <point x="87" y="474"/>
      <point x="87" y="577" type="curve" smooth="yes"/>
      <point x="87" y="597" type="line" smooth="yes"/>
      <point x="87" y="700"/>
      <point x="184" y="766"/>
      <point x="297" y="766" type="curve" smooth="yes"/>
    </contour>
  </outline>
</glyph>
<glyph name="nine" format="1">
  <advance width="600"/>
  <unicode hex="0039"/>
  <outline>
    <contour>
      <point x="90" y="-6" type="line"/>
      <point x="213" y="-6"/>
      <point x="337" y="53"/>
      <point x="423" y="168" type="curve" smooth="yes"/>
      <point x="506" y="279"/>
      <point x="535" y="398"/>
      <point x="535" y="515" type="curve" smooth="yes"/>
      <point x="535" y="525" type="line" smooth="yes"/>
      <point x="535" y="690"/>
      <point x="430" y="786"/>
      <point x="295" y="786" type="curve" smooth="yes"/>
      <point x="160" y="786"/>
      <point x="55" y="695"/>
      <point x="55" y="545" type="curve" smooth="yes"/>
      <point x="55" y="535" type="line" smooth="yes"/>
      <point x="55" y="385"/>
      <point x="155" y="294"/>
      <point x="290" y="294" type="curve" smooth="yes"/>
      <point x="393" y="294"/>
      <point x="467" y="350"/>
      <point x="508" y="421" type="curve"/>
      <point x="495" y="341"/>
      <point x="464" y="258"/>
      <point x="409" y="181" type="curve" smooth="yes"/>
      <point x="327" y="67"/>
      <point x="202" y="13"/>
      <point x="90" y="13" type="curve"/>
    </contour>
    <contour>
      <point x="287" y="314" type="line" smooth="yes"/>
      <point x="163" y="314"/>
      <point x="75" y="400"/>
      <point x="75" y="532" type="curve" smooth="yes"/>
      <point x="75" y="548" type="line" smooth="yes"/>
      <point x="75" y="680"/>
      <point x="168" y="766"/>
      <point x="292" y="766" type="curve" smooth="yes"/>
      <point x="298" y="766" type="line" smooth="yes"/>
      <point x="422" y="766"/>
      <point x="515" y="675"/>
      <point x="515" y="528" type="curve" smooth="yes"/>
      <point x="515" y="512" type="line" smooth="yes"/>
      <point x="515" y="497"/>
      <point x="514" y="482"/>
      <point x="513" y="467" type="curve"/>
      <point x="480" y="382"/>
      <point x="395" y="314"/>
      <point x="293" y="314" type="curve" smooth="yes"/>
    </contour>
  </outline>
</glyph>
<glyph name="colon" format="1">
  <advance width="180"/>
  <unicode hex="003A"/>
  <outline>
    <contour>
      <point x="110" y="40" type="line"/>
      <point x="70" y="40" type="line"/>
      <point x="70" y="0" type="line"/>
      <point x="110" y="0" type="line"/>
    </contour>
    <contour>
      <point x="110" y="410" type="line"/>
      <point x="70" y="410" type="line"/>
      <point x="70" y="370" type="line"/>
      <point x="110" y="370" type="line"/>
    </contour>
  </outline>
</glyph>
<glyph name="less" format="1">
  <advance width="600"/>
  <unicode hex="003C"/>
  <outline>
    <contour>
      <point x="50" y="400" type="line"/>
      <point x="50" y="380" type="line"/>
      <point x="550" y="134" type="line"/>
      <point x="550" y="156" type="line"/>
      <point x="70" y="390" type="line"/>
      <point x="550" y="624" type="line"/>
      <point x="550" y="646" type="line"/>
    </contour>
  </outline>
</glyph>
<glyph name="equal" format="1">
  <advance width="600"/>
  <unicode hex="003D"/>
  <outline>
    <contour>
      <point x="50" y="480" type="line"/>
      <point x="550" y="480" type="line"/>
      <point x="550" y="500" type="line"/>
      <point x="50" y="500" type="line"/>
    </contour>
    <contour>
      <point x="50" y="280" type="line"/>
      <point x="550" y="280" type="line"/>
      <point x="550" y="300" type="line"/>
      <point x="50" y="300" type="line"/>
    </contour>
  </outline>
</glyph>
<glyph name="greater" format="1">
  <advance width="600"/>
  <unicode hex="003E"/>
  <outline>
    <contour>
      <point x="550" y="380" type="line"/>
      <point x="550" y="400" type="line"/>
      <point x="50" y="646" type="line"/>
      <point x="50" y="624" type="line"/>
      <point x="530" y="390" type="line"/>
      <point x="50" y="156" type="line"/>
      <point x="50" y="134" type="line"/>
    </contour>
  </outline>
</glyph>
<glyph name="question" format="1">
  <advance width="440"/>
  <unicode hex="003F"/>
  <outline>
    <contour>
      <point x="227" y="175" type="line"/>
      <point x="232" y="372"/>
      <point x="403" y="414"/>
      <point x="403" y="582" type="curve" smooth="yes"/>
      <point x="403" y="678"/>
      <point x="356" y="786"/>
      <point x="223" y="786" type="curve" smooth="yes"/>
      <point x="91" y="786"/>
      <point x="33" y="680"/>
      <point x="33" y="507" type="curve" smooth="yes"/>
      <point x="33" y="500" type="line"/>
      <point x="53" y="500" type="line"/>
      <point x="53" y="670"/>
      <point x="102" y="766"/>
      <point x="223" y="766" type="curve" smooth="yes"/>
      <point x="345" y="766"/>
      <point x="383" y="668"/>
      <point x="383" y="575" type="curve" smooth="yes"/>
      <point x="383" y="426"/>
      <point x="212" y="375"/>
      <point x="213" y="175" type="curve"/>
    </contour>
    <contour>
      <point x="240" y="40" type="line"/>
      <point x="200" y="40" type="line"/>
      <point x="200" y="0" type="line"/>
      <point x="240" y="0" type="line"/>
    </contour>
  </outline>
</glyph>
<glyph name="at" format="1">
  <advance width="930"/>
  <unicode hex="0040"/>
  <outline>
    <contour>
      <point x="487" y="-186" type="line" smooth="yes"/>
      <point x="240" y="-186"/>
      <point x="55" y="-15"/>
      <point x="55" y="270" type="curve" smooth="yes"/>
      <point x="55" y="310" type="line" smooth="yes"/>
      <point x="55" y="595"/>
      <point x="235" y="766"/>
      <point x="482" y="766" type="curve" smooth="yes"/>
      <point x="488" y="766" type="line" smooth="yes"/>
      <point x="690" y="766"/>
      <point x="875" y="640"/>
      <point x="875" y="385" type="curve" smooth="yes"/>
      <point x="875" y="355" type="line" smooth="yes"/>
      <point x="875" y="123"/>
      <point x="773" y="81"/>
      <point x="639" y="80" type="curve"/>
      <point x="635" y="180" type="line"/>
      <point x="635" y="410" type="line"/>
      <point x="640" y="530" type="line"/>
      <point x="625" y="530" type="line"/>
      <point x="618" y="451" type="line"/>
      <point x="593" y="486"/>
      <point x="535" y="536"/>
      <point x="452" y="536" type="curve" smooth="yes"/>
      <point x="320" y="536"/>
      <point x="250" y="440"/>
      <point x="250" y="305" type="curve" smooth="yes"/>
      <point x="250" y="285" type="line" smooth="yes"/>
      <point x="250" y="150"/>
      <point x="320" y="54"/>
      <point x="452" y="54" type="curve" smooth="yes"/>
      <point x="535" y="54"/>
      <point x="593" y="104"/>
      <point x="618" y="139" type="curve"/>
      <point x="625" y="60" type="line"/>
      <point x="630" y="60" type="line" smooth="yes"/>
      <point x="785" y="60"/>
      <point x="895" y="115"/>
      <point x="895" y="355" type="curve" smooth="yes"/>
      <point x="895" y="385" type="line" smooth="yes"/>
      <point x="895" y="645"/>
      <point x="705" y="786"/>
      <point x="485" y="786" type="curve" smooth="yes"/>
      <point x="220" y="786"/>
      <point x="35" y="600"/>
      <point x="35" y="310" type="curve" smooth="yes"/>
      <point x="35" y="270" type="line" smooth="yes"/>
      <point x="35" y="-20"/>
      <point x="225" y="-206"/>
      <point x="490" y="-206" type="curve" smooth="yes"/>
      <point x="607" y="-206"/>
      <point x="723" y="-186"/>
      <point x="834" y="-103" type="curve"/>
      <point x="822" y="-87" type="line"/>
      <point x="715" y="-164"/>
      <point x="614" y="-186"/>
      <point x="493" y="-186" type="curve" smooth="yes"/>
    </contour>
    <contour>
      <point x="615" y="423" type="curve"/>
      <point x="615" y="167" type="line"/>
      <point x="588" y="126"/>
      <point x="535" y="74"/>
      <point x="453" y="74" type="curve" smooth="yes"/>
      <point x="335" y="74"/>
      <point x="270" y="160"/>
      <point x="270" y="285" type="curve" smooth="yes"/>
      <point x="270" y="305" type="line" smooth="yes"/>
      <point x="270" y="430"/>
      <point x="335" y="516"/>
      <point x="453" y="516" type="curve" smooth="yes"/>
      <point x="535" y="516"/>
      <point x="588" y="464"/>
    </contour>
  </outline>
</glyph>
<glyph name="B" format="1">
  <advance width="552"/>
  <unicode hex="0042"/>
  <outline>
    <contour>
      <point x="80" y="780" type="line"/>
      <point x="80" y="0" type="line"/>
      <point x="279" y="0" type="line" smooth="yes"/>
      <point x="385" y="0"/>
      <point x="494" y="37"/>
      <point x="494" y="194" type="curve" smooth="yes"/>
      <point x="494" y="214" type="line" smooth="yes"/>
      <point x="494" y="342"/>
      <point x="420" y="387"/>
      <point x="339" y="399" type="curve"/>
      <point x="412" y="414"/>
      <point x="474" y="458"/>
      <point x="474" y="576" type="curve" smooth="yes"/>
      <point x="474" y="592" type="line" smooth="yes"/>
      <point x="474" y="749"/>
      <point x="365" y="780"/>
      <point x="259" y="780" type="curve" smooth="yes"/>
    </contour>
    <contour>
      <point x="277" y="388" type="line" smooth="yes"/>
      <point x="359" y="388"/>
      <point x="473" y="368"/>
      <point x="473" y="213" type="curve" smooth="yes"/>
      <point x="473" y="195" type="line" smooth="yes"/>
      <point x="473" y="40"/>
      <point x="359" y="20"/>
      <point x="277" y="20" type="curve" smooth="yes"/>
      <point x="100" y="20" type="line"/>
      <point x="100" y="388" type="line"/>
    </contour>
    <contour>
      <point x="257" y="760" type="line" smooth="yes"/>
      <point x="339" y="760"/>
      <point x="453" y="746"/>
      <point x="453" y="591" type="curve" smooth="yes"/>
      <point x="453" y="577" type="line" smooth="yes"/>
      <point x="453" y="422"/>
      <point x="339" y="408"/>
      <point x="257" y="408" type="curve" smooth="yes"/>
      <point x="100" y="408" type="line"/>
      <point x="100" y="760" type="line"/>
    </contour>
  </outline>
</glyph>
<glyph name="C" format="1">
  <advance width="593"/>
  <unicode hex="0043"/>
  <outline>
    <contour>
      <point x="65" y="410" type="curve" smooth="yes"/>
      <point x="65" y="370" type="line" smooth="yes"/>
      <point x="65" y="100"/>
      <point x="150" y="-6"/>
      <point x="315" y="-6" type="curve" smooth="yes"/>
      <point x="469" y="-6"/>
      <point x="535" y="91"/>
      <point x="535" y="236" type="curve" smooth="yes"/>
      <point x="535" y="250" type="line"/>
      <point x="515" y="250" type="line"/>
      <point x="515" y="84"/>
      <point x="443" y="14"/>
      <point x="318" y="14" type="curve" smooth="yes"/>
      <point x="312" y="14" type="line" smooth="yes"/>
      <point x="164" y="14"/>
      <point x="85" y="112"/>
      <point x="85" y="370" type="curve" smooth="yes"/>
      <point x="85" y="410" type="line" smooth="yes"/>
      <point x="85" y="668"/>
      <point x="164" y="766"/>
      <point x="312" y="766" type="curve" smooth="yes"/>
      <point x="318" y="766" type="line" smooth="yes"/>
      <point x="455" y="766"/>
      <point x="515" y="698"/>
      <point x="515" y="500" type="curve"/>
      <point x="535" y="500" type="line"/>
      <point x="535" y="520" type="line" smooth="yes"/>
      <point x="535" y="708"/>
      <point x="466" y="786"/>
      <point x="315" y="786" type="curve" smooth="yes"/>
      <point x="150" y="786"/>
      <point x="65" y="680"/>
    </contour>
  </outline>
</glyph>
<glyph name="D" format="1">
  <advance width="615"/>
  <unicode hex="0044"/>
  <outline>
    <contour>
      <point x="555" y="370" type="curve" smooth="yes"/>
      <point x="555" y="410" type="line" smooth="yes"/>
      <point x="555" y="685"/>
      <point x="435" y="780"/>
      <point x="270" y="780" type="curve" smooth="yes"/>
      <point x="80" y="780" type="line"/>
      <point x="80" y="0" type="line"/>
      <point x="270" y="0" type="line" smooth="yes"/>
      <point x="435" y="0"/>
      <point x="555" y="95"/>
    </contour>
    <contour>
      <point x="100" y="20" type="line"/>
      <point x="100" y="760" type="line"/>
      <point x="265" y="760" type="line" smooth="yes"/>
      <point x="425" y="760"/>
      <point x="535" y="670"/>
      <point x="535" y="410" type="curve" smooth="yes"/>
      <point x="535" y="370" type="line" smooth="yes"/>
      <point x="535" y="110"/>
      <point x="425" y="20"/>
      <point x="265" y="20" type="curve" smooth="yes"/>
    </contour>
  </outline>
</glyph>
<glyph name="H" format="1">
  <advance width="620"/>
  <unicode hex="0048"/>
  <outline>
    <contour>
      <point x="520" y="780" type="line"/>
      <point x="520" y="408" type="line"/>
      <point x="100" y="408" type="line"/>
      <point x="100" y="780" type="line"/>
      <point x="80" y="780" type="line"/>
      <point x="80" y="0" type="line"/>
      <point x="100" y="0" type="line"/>
      <point x="100" y="388" type="line"/>
      <point x="520" y="388" type="line"/>
      <point x="520" y="0" type="line"/>
      <point x="540" y="0" type="line"/>
      <point x="540" y="780" type="line"/>
    </contour>
  </outline>
</glyph>
<glyph name="J" format="1">
  <advance width="470"/>
  <unicode hex="004A"/>
  <outline>
    <contour>
      <point x="373" y="780" type="line"/>
      <point x="373" y="247" type="line" smooth="yes"/>
      <point x="373" y="100"/>
      <point x="335" y="14"/>
      <point x="213" y="14" type="curve" smooth="yes"/>
      <point x="92" y="14"/>
      <point x="53" y="100"/>
      <point x="53" y="247" type="curve"/>
      <point x="33" y="247" type="line"/>
      <point x="33" y="240" type="line" smooth="yes"/>
      <point x="33" y="90"/>
      <point x="81" y="-6"/>
      <point x="213" y="-6" type="curve" smooth="yes"/>
      <point x="346" y="-6"/>
      <point x="393" y="90"/>
      <point x="393" y="240" type="curve" smooth="yes"/>
      <point x="393" y="780" type="line"/>
    </contour>
  </outline>
</glyph>
<glyph name="K" format="1">
  <advance width="518"/>
  <unicode hex="004B"/>
  <outline>
    <contour>
      <point x="100" y="780" type="line"/>
      <point x="80" y="780" type="line"/>
      <point x="80" y="0" type="line"/>
      <point x="100" y="0" type="line"/>
      <point x="100" y="246" type="line"/>
      <point x="227" y="424" type="line"/>
      <point x="456" y="0" type="line"/>
      <point x="480" y="0" type="line"/>
      <point x="239" y="441" type="line"/>
      <point x="480" y="780" type="line"/>
      <point x="456" y="780" type="line"/>
      <point x="100" y="279" type="line"/>
    </contour>
  </outline>
</glyph>
<glyph name="L" format="1">
  <advance width="464"/>
  <unicode hex="004C"/>
  <outline>
    <contour>
      <point x="450" y="0" type="line"/>
      <point x="450" y="20" type="line"/>
      <point x="100" y="20" type="line"/>
      <point x="100" y="780" type="line"/>
      <point x="80" y="780" type="line"/>
      <point x="80" y="0" type="line"/>
    </contour>
  </outline>
</glyph>
<glyph name="M" format="1">
  <advance width="760"/>
  <unicode hex="004D"/>
  <outline>
    <contour>
      <point x="380" y="28" type="line"/>
      <point x="101" y="780" type="line"/>
      <point x="80" y="780" type="line"/>
      <point x="80" y="0" type="line"/>
      <point x="100" y="0" type="line"/>
      <point x="100" y="561" type="line"/>
      <point x="97" y="734" type="line"/>
      <point x="370" y="0" type="line"/>
      <point x="390" y="0" type="line"/>
      <point x="663" y="734" type="line"/>
      <point x="660" y="561" type="line"/>
      <point x="660" y="0" type="line"/>
      <point x="680" y="0" type="line"/>
      <point x="680" y="780" type="line"/>
      <point x="659" y="780" type="line"/>
    </contour>
  </outline>
</glyph>
<glyph name="N" format="1">
  <advance width="640"/>
  <unicode hex="004E"/>
  <outline>
    <contour>
      <point x="541" y="29" type="line"/>
      <point x="105" y="780" type="line"/>
      <point x="80" y="780" type="line"/>
      <point x="80" y="0" type="line"/>
      <point x="100" y="0" type="line"/>
      <point x="100" y="600" type="line"/>
      <point x="99" y="751" type="line"/>
      <point x="535" y="0" type="line"/>
      <point x="560" y="0" type="line"/>
      <point x="560" y="780" type="line"/>
      <point x="540" y="780" type="line"/>
      <point x="540" y="180" type="line"/>
    </contour>
  </outline>
</glyph>
<glyph name="Q" format="1">
  <advance width="626"/>
  <unicode hex="0051"/>
  <outline>
    <contour>
      <point x="65" y="410" type="curve" smooth="yes"/>
      <point x="65" y="370" type="line" smooth="yes"/>
      <point x="65" y="100"/>
      <point x="150" y="-6"/>
      <point x="315" y="-6" type="curve" smooth="yes"/>
      <point x="341" y="-6"/>
      <point x="364" y="-3"/>
      <point x="386" y="2" type="curve"/>
      <point x="425" y="-100" type="line"/>
      <point x="445" y="-100" type="line"/>
      <point x="404" y="7" type="line"/>
      <point x="510" y="43"/>
      <point x="565" y="154"/>
      <point x="565" y="370" type="curve" smooth="yes"/>
      <point x="565" y="410" type="line" smooth="yes"/>
      <point x="565" y="680"/>
      <point x="480" y="786"/>
      <point x="315" y="786" type="curve" smooth="yes"/>
      <point x="150" y="786"/>
      <point x="65" y="680"/>
    </contour>
    <contour>
      <point x="85" y="370" type="curve" smooth="yes"/>
      <point x="85" y="410" type="line" smooth="yes"/>
      <point x="85" y="668"/>
      <point x="164" y="766"/>
      <point x="312" y="766" type="curve" smooth="yes"/>
      <point x="318" y="766" type="line" smooth="yes"/>
      <point x="466" y="766"/>
      <point x="545" y="668"/>
      <point x="545" y="410" type="curve" smooth="yes"/>
      <point x="545" y="370" type="line" smooth="yes"/>
      <point x="545" y="163"/>
      <point x="494" y="59"/>
      <point x="397" y="26" type="curve"/>
      <point x="330" y="205" type="line"/>
      <point x="310" y="205" type="line"/>
      <point x="379" y="21" type="line"/>
      <point x="360" y="16"/>
      <point x="340" y="14"/>
      <point x="318" y="14" type="curve" smooth="yes"/>
      <point x="312" y="14" type="line" smooth="yes"/>
      <point x="164" y="14"/>
      <point x="85" y="112"/>
    </contour>
  </outline>
</glyph>
<glyph name="R" format="1">
  <advance width="553"/>
  <unicode hex="0052"/>
  <outline>
    <contour>
      <point x="100" y="340" type="line"/>
      <point x="273" y="340" type="line" smooth="yes"/>
      <point x="292" y="340"/>
      <point x="312" y="341"/>
      <point x="331" y="345" type="curve"/>
      <point x="472" y="0" type="line"/>
      <point x="494" y="0" type="line"/>
      <point x="351" y="349" type="line"/>
      <point x="428" y="368"/>
      <point x="494" y="424"/>
      <point x="494" y="550" type="curve" smooth="yes"/>
      <point x="494" y="570" type="line" smooth="yes"/>
      <point x="494" y="737"/>
      <point x="379" y="780"/>
      <point x="273" y="780" type="curve" smooth="yes"/>
      <point x="80" y="780" type="line"/>
      <point x="80" y="0" type="line"/>
      <point x="100" y="0" type="line"/>
    </contour>
    <contour>
      <point x="100" y="360" type="line"/>
      <point x="100" y="760" type="line"/>
      <point x="272" y="760" type="line" smooth="yes"/>
      <point x="354" y="760"/>
      <point x="473" y="734"/>
      <point x="473" y="569" type="curve" smooth="yes"/>
      <point x="473" y="551" type="line" smooth="yes"/>
      <point x="473" y="386"/>
      <point x="354" y="360"/>
      <point x="272" y="360" type="curve" smooth="yes"/>
    </contour>
  </outline>
</glyph>
<glyph name="S" format="1">
  <advance width="580"/>
  <unicode hex="0053"/>
  <outline>
    <contour>
      <point x="286" y="395" type="curve" smooth="yes"/>
      <point x="445" y="375"/>
      <point x="510" y="321"/>
      <point x="510" y="207" type="curve" smooth="yes"/>
      <point x="510" y="197" type="line" smooth="yes"/>
      <point x="510" y="81"/>
      <point x="417" y="14"/>
      <point x="293" y="14" type="curve" smooth="yes"/>
      <point x="287" y="14" type="line" smooth="yes"/>
      <point x="149" y="14"/>
      <point x="70" y="94"/>
      <point x="70" y="250" type="curve"/>
      <point x="50" y="250" type="line"/>
      <point x="50" y="240" type="line" smooth="yes"/>
      <point x="50" y="94"/>
      <point x="129" y="-6"/>
      <point x="290" y="-6" type="curve" smooth="yes"/>
      <point x="425" y="-6"/>
      <point x="530" y="66"/>
      <point x="530" y="201" type="curve" smooth="yes"/>
      <point x="530" y="211" type="line" smooth="yes"/>
      <point x="530" y="322"/>
      <point x="467" y="394"/>
      <point x="296" y="414" type="curve" smooth="yes"/>
      <point x="136" y="433"/>
      <point x="77" y="485"/>
      <point x="77" y="585" type="curve" smooth="yes"/>
      <point x="77" y="595" type="line" smooth="yes"/>
      <point x="77" y="698"/>
      <point x="174" y="766"/>
      <point x="287" y="766" type="curve" smooth="yes"/>
      <point x="293" y="766" type="line" smooth="yes"/>
      <point x="434" y="766"/>
      <point x="505" y="694"/>
      <point x="505" y="520" type="curve"/>
      <point x="525" y="520" type="line"/>
      <point x="525" y="545" type="line" smooth="yes"/>
      <point x="525" y="694"/>
      <point x="452" y="786"/>
      <point x="289" y="786" type="curve" smooth="yes"/>
      <point x="159" y="786"/>
      <point x="55" y="712"/>
      <point x="55" y="590" type="curve" smooth="yes"/>
      <point x="55" y="580" type="line" smooth="yes"/>
      <point x="55" y="481"/>
      <point x="116" y="416"/>
    </contour>
  </outline>
</glyph>
<glyph name="T" format="1">
  <advance width="490"/>
  <unicode hex="0054"/>
  <outline>
    <contour>
      <point x="255" y="760" type="line"/>
      <point x="465" y="760" type="line"/>
      <point x="465" y="780" type="line"/>
      <point x="25" y="780" type="line"/>
      <point x="25" y="760" type="line"/>
      <point x="235" y="760" type="line"/>
      <point x="235" y="0" type="line"/>
      <point x="255" y="0" type="line"/>
    </contour>
  </outline>
</glyph>
<glyph name="V" format="1">
  <advance width="590"/>
  <unicode hex="0056"/>
  <outline>
    <contour>
      <point x="305" y="-10" type="line"/>
      <point x="555" y="780" type="line"/>
      <point x="534" y="780" type="line"/>
      <point x="295" y="20" type="line"/>
      <point x="56" y="780" type="line"/>
      <point x="35" y="780" type="line"/>
      <point x="285" y="-10" type="line"/>
    </contour>
  </outline>
</glyph>
<glyph name="X" format="1">
  <advance width="580"/>
  <unicode hex="0058"/>
  <outline>
    <contour>
      <point x="290" y="378" type="line"/>
      <point x="528" y="0" type="line"/>
      <point x="552" y="0" type="line"/>
      <point x="303" y="395" type="line"/>
      <point x="552" y="780" type="line"/>
      <point x="528" y="780" type="line"/>
      <point x="290" y="411" type="line"/>
      <point x="52" y="780" type="line"/>
      <point x="28" y="780" type="line"/>
      <point x="277" y="395" type="line"/>
      <point x="28" y="0" type="line"/>
      <point x="52" y="0" type="line"/>
    </contour>
  </outline>
</glyph>
<glyph name="Y" format="1">
  <advance width="540"/>
  <unicode hex="0059"/>
  <outline>
    <contour>
      <point x="265" y="259" type="line"/>
      <point x="37" y="780" type="line"/>
      <point x="15" y="780" type="line"/>
      <point x="255" y="235" type="line"/>
      <point x="255" y="0" type="line"/>
      <point x="275" y="0" type="line"/>
      <point x="275" y="235" type="line"/>
      <point x="515" y="780" type="line"/>
      <point x="493" y="780" type="line"/>
    </contour>
  </outline>
</glyph>
<glyph name="Z" format="1">
  <advance width="550"/>
  <unicode hex="005A"/>
  <outline>
    <contour>
      <point x="40" y="15" type="line"/>
      <point x="40" y="0" type="line"/>
      <point x="510" y="0" type="line"/>
      <point x="510" y="20" type="line"/>
      <point x="180" y="20" type="line"/>
      <point x="65" y="19" type="line"/>
      <point x="500" y="765" type="line"/>
      <point x="500" y="780" type="line"/>
      <point x="50" y="780" type="line"/>
      <point x="50" y="760" type="line"/>
      <point x="360" y="760" type="line"/>
      <point x="475" y="761" type="line"/>
    </contour>
  </outline>
</glyph>
<glyph name="bracketleft" format="1">
  <advance width="300"/>
  <unicode hex="005B"/>
  <outline>
    <contour>
      <point x="80" y="840" type="line"/>
      <point x="80" y="-120" type="line"/>
      <point x="250" y="-120" type="line"/>
      <point x="250" y="-100" type="line"/>
      <point x="100" y="-100" type="line"/>
      <point x="100" y="820" type="line"/>
      <point x="250" y="820" type="line"/>
      <point x="250" y="840" type="line"/>
    </contour>
  </outline>
</glyph>
<glyph name="backslash" format="1">
  <advance width="300"/>
  <unicode hex="005C"/>
  <outline>
    <contour>
      <point x="255" y="-120" type="line"/>
      <point x="275" y="-120" type="line"/>
      <point x="45" y="840" type="line"/>
      <point x="25" y="840" type="line"/>
    </contour>
  </outline>
</glyph>
<glyph name="bracketright" format="1">
  <advance width="300"/>
  <unicode hex="005D"/>
  <outline>
    <contour>
      <point x="220" y="-120" type="line"/>
      <point x="220" y="840" type="line"/>
      <point x="50" y="840" type="line"/>
      <point x="50" y="820" type="line"/>
      <point x="200" y="820" type="line"/>
      <point x="200" y="-100" type="line"/>
      <point x="50" y="-100" type="line"/>
      <point x="50" y="-120" type="line"/>
    </contour>
  </outline>
</glyph>
<glyph name="asciicircum" format="1">
  <advance width="600"/>
  <unicode hex="005E"/>
  <outline>
    <contour>
      <point x="310" y="780" type="line"/>
      <point x="290" y="780" type="line"/>
      <point x="44" y="280" type="line"/>
      <point x="66" y="280" type="line"/>
      <point x="300" y="760" type="line"/>
      <point x="534" y="280" type="line"/>
      <point x="556" y="280" type="line"/>
    </contour>
  </outline>
</glyph>
<glyph name="underscore" format="1">
  <advance width="320"/>
  <unicode hex="005F"/>
  <outline>
    <contour>
      <point x="50" y="-110" type="line"/>
      <point x="270" y="-110" type="line"/>
      <point x="270" y="-90" type="line"/>
      <point x="50" y="-90" type="line"/>
    </contour>
  </outline>
</glyph>
<glyph name="grave" format="1">
  <advance width="500"/>
  <unicode hex="0060"/>
  <outline>
    <contour>
      <point x="149" y="780" type="line"/>
      <point x="239" y="620" type="line"/>
      <point x="261" y="620" type="line"/>
      <point x="171" y="780" type="line"/>
    </contour>
  </outline>
</glyph>
<glyph name="g" format="1">
  <advance width="510"/>
  <unicode hex="0067"/>
  <outline>
    <contour>
      <point x="250" y="-206" type="curve" smooth="yes"/>
      <point x="383" y="-206"/>
      <point x="440" y="-125"/>
      <point x="440" y="-11" type="curve" smooth="yes"/>
      <point x="440" y="410" type="line"/>
      <point x="445" y="530" type="line"/>
      <point x="430" y="530" type="line"/>
      <point x="423" y="451" type="line"/>
      <point x="398" y="486"/>
      <point x="344" y="536"/>
      <point x="257" y="536" type="curve" smooth="yes"/>
      <point x="123" y="536"/>
      <point x="55" y="447"/>
      <point x="55" y="295" type="curve" smooth="yes"/>
      <point x="55" y="275" type="line" smooth="yes"/>
      <point x="55" y="123"/>
      <point x="123" y="34"/>
      <point x="257" y="34" type="curve" smooth="yes"/>
      <point x="341" y="34"/>
      <point x="394" y="80"/>
      <point x="420" y="115" type="curve"/>
      <point x="420" y="0" type="line" smooth="yes"/>
      <point x="420" y="-115"/>
      <point x="373" y="-186"/>
      <point x="250" y="-186" type="curve" smooth="yes"/>
      <point x="120" y="-186"/>
      <point x="75" y="-115"/>
      <point x="75" y="0" type="curve"/>
      <point x="55" y="0" type="line"/>
      <point x="55" y="-11" type="line" smooth="yes"/>
      <point x="55" y="-125"/>
      <point x="110" y="-206"/>
    </contour>
    <contour>
      <point x="420" y="147" type="line"/>
      <point x="393" y="106"/>
      <point x="344" y="54"/>
      <point x="258" y="54" type="curve" smooth="yes"/>
      <point x="136" y="54"/>
      <point x="75" y="137"/>
      <point x="75" y="275" type="curve" smooth="yes"/>
      <point x="75" y="295" type="line" smooth="yes"/>
      <point x="75" y="433"/>
      <point x="136" y="516"/>
      <point x="258" y="516" type="curve" smooth="yes"/>
      <point x="344" y="516"/>
      <point x="393" y="464"/>
      <point x="420" y="423" type="curve"/>
    </contour>
  </outline>
</glyph>
<glyph name="i" format="1">
  <advance width="180"/>
  <unicode hex="0069"/>
  <outline>
    <contour>
      <point x="80" y="0" type="line"/>
      <point x="100" y="0" type="line"/>
      <point x="100" y="530" type="line"/>
      <point x="80" y="530" type="line"/>
    </contour>
    <contour>
      <point x="110" y="720" type="line"/>
      <point x="70" y="720" type="line"/>
      <point x="70" y="680" type="line"/>
      <point x="110" y="680" type="line"/>
    </contour>
  </outline>
</glyph>
<glyph name="j" format="1">
  <advance width="180"/>
  <unicode hex="006A"/>
  <outline>
    <contour>
      <point x="80" y="-65" type="line" smooth="yes"/>
      <point x="80" y="-164"/>
      <point x="33" y="-186"/>
      <point x="-35" y="-186" type="curve" smooth="yes"/>
      <point x="-60" y="-186"/>
      <point x="-87" y="-180"/>
      <point x="-95" y="-176" type="curve"/>
      <point x="-95" y="-196" type="line"/>
      <point x="-90" y="-198"/>
      <point x="-68" y="-206"/>
      <point x="-31" y="-206" type="curve" smooth="yes"/>
      <point x="39" y="-206"/>
      <point x="100" y="-179"/>
      <point x="100" y="-71" type="curve" smooth="yes"/>
      <point x="100" y="530" type="line"/>
      <point x="80" y="530" type="line"/>
    </contour>
    <contour>
      <point x="110" y="720" type="line"/>
      <point x="70" y="720" type="line"/>
      <point x="70" y="680" type="line"/>
      <point x="110" y="680" type="line"/>
    </contour>
  </outline>
</glyph>
<glyph name="k" format="1">
  <advance width="458"/>
  <unicode hex="006B"/>
  <outline>
    <contour>
      <point x="95" y="800" type="line"/>
      <point x="75" y="800" type="line"/>
      <point x="75" y="0" type="line"/>
      <point x="95" y="0" type="line"/>
      <point x="95" y="172" type="line"/>
      <point x="226" y="314" type="line"/>
      <point x="402" y="0" type="line"/>
      <point x="425" y="0" type="line"/>
      <point x="239" y="329" type="line"/>
      <point x="425" y="530" type="line"/>
      <point x="398" y="530" type="line"/>
      <point x="95" y="200" type="line"/>
    </contour>
  </outline>
</glyph>
<glyph name="m" format="1">
  <advance width="750"/>
  <unicode hex="006D"/>
  <outline>
    <contour>
      <point x="690" y="0" type="line"/>
      <point x="690" y="390" type="line" smooth="yes"/>
      <point x="690" y="487"/>
      <point x="644" y="536"/>
      <point x="551" y="536" type="curve" smooth="yes"/>
      <point x="463" y="536"/>
      <point x="411" y="487"/>
      <point x="384" y="444" type="curve"/>
      <point x="369" y="505"/>
      <point x="325" y="536"/>
      <point x="251" y="536" type="curve" smooth="yes"/>
      <point x="167" y="536"/>
      <point x="115" y="491"/>
      <point x="87" y="449" type="curve"/>
      <point x="80" y="530" type="line"/>
      <point x="65" y="530" type="line"/>
      <point x="70" y="410" type="line"/>
      <point x="70" y="0" type="line"/>
      <point x="90" y="0" type="line"/>
      <point x="90" y="423" type="line"/>
      <point x="117" y="466"/>
      <point x="168" y="516"/>
      <point x="249" y="516" type="curve" smooth="yes"/>
      <point x="330" y="516"/>
      <point x="370" y="480"/>
      <point x="370" y="385" type="curve" smooth="yes"/>
      <point x="370" y="0" type="line"/>
      <point x="390" y="0" type="line"/>
      <point x="390" y="423" type="line"/>
      <point x="417" y="466"/>
      <point x="468" y="516"/>
      <point x="549" y="516" type="curve" smooth="yes"/>
      <point x="630" y="516"/>
      <point x="670" y="480"/>
      <point x="670" y="385" type="curve" smooth="yes"/>
      <point x="670" y="0" type="line"/>
    </contour>
  </outline>
</glyph>
<glyph name="n" format="1">
  <advance width="490"/>
  <unicode hex="006E"/>
  <outline>
    <contour>
      <point x="430" y="0" type="line"/>
      <point x="430" y="380" type="line" smooth="yes"/>
      <point x="430" y="487"/>
      <point x="374" y="536"/>
      <point x="271" y="536" type="curve" smooth="yes"/>
      <point x="174" y="536"/>
      <point x="117" y="490"/>
      <point x="87" y="448" type="curve"/>
      <point x="80" y="530" type="line"/>
      <point x="65" y="530" type="line"/>
      <point x="70" y="410" type="line"/>
      <point x="70" y="0" type="line"/>
      <point x="90" y="0" type="line"/>
      <point x="90" y="423" type="line"/>
      <point x="117" y="466"/>
      <point x="173" y="516"/>
      <point x="269" y="516" type="curve" smooth="yes"/>
      <point x="360" y="516"/>
      <point x="410" y="480"/>
      <point x="410" y="375" type="curve" smooth="yes"/>
      <point x="410" y="0" type="line"/>
    </contour>
  </outline>
</glyph>
<glyph name="p" format="1">
  <advance width="510"/>
  <unicode hex="0070"/>
  <outline>
    <contour>
      <point x="252" y="-6" type="curve" smooth="yes"/>
      <point x="386" y="-6"/>
      <point x="455" y="93"/>
      <point x="455" y="255" type="curve" smooth="yes"/>
      <point x="455" y="275" type="line" smooth="yes"/>
      <point x="455" y="437"/>
      <point x="386" y="536"/>
      <point x="252" y="536" type="curve" smooth="yes"/>
      <point x="165" y="536"/>
      <point x="111" y="486"/>
      <point x="87" y="451" type="curve"/>
      <point x="80" y="530" type="line"/>
      <point x="65" y="530" type="line"/>
      <point x="70" y="410" type="line"/>
      <point x="70" y="-200" type="line"/>
      <point x="90" y="-200" type="line"/>
      <point x="90" y="75" type="line"/>
      <point x="116" y="40"/>
      <point x="168" y="-6"/>
    </contour>
    <contour>
      <point x="90" y="423" type="line"/>
      <point x="117" y="464"/>
      <point x="166" y="516"/>
      <point x="252" y="516" type="curve" smooth="yes"/>
      <point x="374" y="516"/>
      <point x="435" y="423"/>
      <point x="435" y="275" type="curve" smooth="yes"/>
      <point x="435" y="255" type="line" smooth="yes"/>
      <point x="435" y="107"/>
      <point x="374" y="14"/>
      <point x="252" y="14" type="curve" smooth="yes"/>
      <point x="166" y="14"/>
      <point x="117" y="66"/>
      <point x="90" y="107" type="curve"/>
    </contour>
  </outline>
</glyph>
<glyph name="q" format="1">
  <advance width="510"/>
  <unicode hex="0071"/>
  <outline>
    <contour>
      <point x="420" y="-200" type="line"/>
      <point x="440" y="-200" type="line"/>
      <point x="440" y="410" type="line"/>
      <point x="445" y="530" type="line"/>
      <point x="430" y="530" type="line"/>
      <point x="423" y="451" type="line"/>
      <point x="398" y="486"/>
      <point x="345" y="536"/>
      <point x="258" y="536" type="curve" smooth="yes"/>
      <point x="124" y="536"/>
      <point x="55" y="437"/>
      <point x="55" y="275" type="curve" smooth="yes"/>
      <point x="55" y="255" type="line" smooth="yes"/>
      <point x="55" y="93"/>
      <point x="124" y="-6"/>
      <point x="258" y="-6" type="curve" smooth="yes"/>
      <point x="342" y="-6"/>
      <point x="394" y="40"/>
      <point x="420" y="75" type="curve"/>
    </contour>
    <contour>
      <point x="420" y="107" type="line"/>
      <point x="393" y="66"/>
      <point x="344" y="14"/>
      <point x="258" y="14" type="curve" smooth="yes"/>
      <point x="136" y="14"/>
      <point x="75" y="107"/>
      <point x="75" y="255" type="curve" smooth="yes"/>
      <point x="75" y="275" type="line" smooth="yes"/>
      <point x="75" y="423"/>
      <point x="136" y="516"/>
      <point x="258" y="516" type="curve" smooth="yes"/>
      <point x="344" y="516"/>
      <point x="393" y="464"/>
      <point x="420" y="423" type="curve"/>
    </contour>
  </outline>
</glyph>
<glyph name="r" format="1">
  <advance width="297"/>
  <unicode hex="0072"/>
  <outline>
    <contour>
      <point x="240" y="536" type="curve" smooth="yes"/>
      <point x="160" y="536"/>
      <point x="111" y="489"/>
      <point x="87" y="449" type="curve"/>
      <point x="80" y="530" type="line"/>
      <point x="65" y="530" type="line"/>
      <point x="70" y="410" type="line"/>
      <point x="70" y="0" type="line"/>
      <point x="90" y="0" type="line"/>
      <point x="90" y="421" type="line"/>
      <point x="110" y="465"/>
      <point x="158" y="516"/>
      <point x="246" y="516" type="curve" smooth="yes"/>
      <point x="255" y="516" type="line"/>
      <point x="255" y="535" type="line"/>
      <point x="255" y="535"/>
      <point x="249" y="536"/>
    </contour>
  </outline>
</glyph>
<glyph name="s" format="1">
  <advance width="480"/>
  <unicode hex="0073"/>
  <outline>
    <contour>
      <point x="240" y="14" type="curve" smooth="yes"/>
      <point x="104" y="14"/>
      <point x="70" y="85"/>
      <point x="70" y="160" type="curve"/>
      <point x="50" y="160" type="line"/>
      <point x="50" y="156" type="line" smooth="yes"/>
      <point x="50" y="78"/>
      <point x="90" y="-6"/>
      <point x="240" y="-6" type="curve" smooth="yes"/>
      <point x="359" y="-6"/>
      <point x="430" y="52"/>
      <point x="430" y="137" type="curve" smooth="yes"/>
      <point x="430" y="143" type="line" smooth="yes"/>
      <point x="430" y="232"/>
      <point x="384" y="266"/>
      <point x="250" y="278" type="curve" smooth="yes"/>
      <point x="108" y="291"/>
      <point x="75" y="324"/>
      <point x="75" y="395" type="curve" smooth="yes"/>
      <point x="75" y="472"/>
      <point x="139" y="516"/>
      <point x="240" y="516" type="curve" smooth="yes"/>
      <point x="367" y="516"/>
      <point x="405" y="455"/>
      <point x="405" y="360" type="curve"/>
      <point x="425" y="360" type="line"/>
      <point x="425" y="364" type="line" smooth="yes"/>
      <point x="425" y="461"/>
      <point x="378" y="536"/>
      <point x="240" y="536" type="curve" smooth="yes"/>
      <point x="124" y="536"/>
      <point x="55" y="480"/>
      <point x="55" y="398" type="curve" smooth="yes"/>
      <point x="55" y="392" type="line" smooth="yes"/>
      <point x="55" y="321"/>
      <point x="90" y="276"/>
      <point x="230" y="262" type="curve" smooth="yes"/>
      <point x="352" y="252"/>
      <point x="410" y="232"/>
      <point x="410" y="140" type="curve" smooth="yes"/>
      <point x="410" y="62"/>
      <point x="345" y="14"/>
    </contour>
  </outline>
</glyph>
<glyph name="t" format="1">
  <advance width="360"/>
  <unicode hex="0074"/>
  <outline>
    <contour>
      <point x="135" y="530" type="line"/>
      <point x="135" y="680" type="line"/>
      <point x="115" y="680" type="line"/>
      <point x="115" y="530" type="line"/>
      <point x="30" y="530" type="line"/>
      <point x="30" y="510" type="line"/>
      <point x="115" y="510" type="line"/>
      <point x="115" y="129" type="line" smooth="yes"/>
      <point x="115" y="21"/>
      <point x="176" y="-6"/>
      <point x="246" y="-6" type="curve" smooth="yes"/>
      <point x="283" y="-6"/>
      <point x="305" y="2"/>
      <point x="310" y="4" type="curve"/>
      <point x="310" y="24" type="line"/>
      <point x="302" y="20"/>
      <point x="275" y="14"/>
      <point x="250" y="14" type="curve" smooth="yes"/>
      <point x="182" y="14"/>
      <point x="135" y="36"/>
      <point x="135" y="135" type="curve" smooth="yes"/>
      <point x="135" y="510" type="line"/>
      <point x="320" y="510" type="line"/>
      <point x="320" y="530" type="line"/>
    </contour>
  </outline>
</glyph>
<glyph name="v" format="1">
  <advance width="480"/>
  <unicode hex="0076"/>
  <outline>
    <contour>
      <point x="240" y="25" type="line"/>
      <point x="52" y="530" type="line"/>
      <point x="30" y="530" type="line"/>
      <point x="230" y="0" type="line"/>
      <point x="250" y="0" type="line"/>
      <point x="450" y="530" type="line"/>
      <point x="428" y="530" type="line"/>
    </contour>
  </outline>
</glyph>
<glyph name="w" format="1">
  <advance width="670"/>
  <unicode hex="0077"/>
  <outline>
    <contour>
      <point x="335" y="498" type="line"/>
      <point x="487" y="0" type="line"/>
      <point x="511" y="0" type="line"/>
      <point x="637" y="530" type="line"/>
      <point x="616" y="530" type="line"/>
      <point x="498" y="26" type="line"/>
      <point x="345" y="530" type="line"/>
      <point x="325" y="530" type="line"/>
      <point x="172" y="26" type="line"/>
      <point x="54" y="530" type="line"/>
      <point x="33" y="530" type="line"/>
      <point x="159" y="0" type="line"/>
      <point x="183" y="0" type="line"/>
    </contour>
  </outline>
</glyph>
<glyph name="x" format="1">
  <advance width="440"/>
  <unicode hex="0078"/>
  <outline>
    <contour>
      <point x="21" y="530" type="line"/>
      <point x="208" y="268" type="line"/>
      <point x="21" y="0" type="line"/>
      <point x="45" y="0" type="line"/>
      <point x="220" y="253" type="line"/>
      <point x="395" y="0" type="line"/>
      <point x="419" y="0" type="line"/>
      <point x="232" y="268" type="line"/>
      <point x="419" y="530" type="line"/>
      <point x="395" y="530" type="line"/>
      <point x="220" y="284" type="line"/>
      <point x="45" y="530" type="line"/>
    </contour>
  </outline>
</glyph>
<glyph name="z" format="1">
  <advance width="430"/>
  <unicode hex="007A"/>
  <outline>
    <contour>
      <point x="35" y="15" type="line"/>
      <point x="35" y="0" type="line"/>
      <point x="395" y="0" type="line"/>
      <point x="395" y="20" type="line"/>
      <point x="175" y="20" type="line"/>
      <point x="61" y="19" type="line"/>
      <point x="385" y="515" type="line"/>
      <point x="385" y="530" type="line"/>
      <point x="45" y="530" type="line"/>
      <point x="45" y="510" type="line"/>
      <point x="245" y="510" type="line"/>
      <point x="359" y="511" type="line"/>
    </contour>
  </outline>
</glyph>
<glyph name="braceleft" format="1">
  <advance width="300"/>
  <unicode hex="007B"/>
  <outline>
    <contour>
      <point x="250" y="840" type="line"/>
      <point x="246" y="840" type="line" smooth="yes"/>
      <point x="181" y="840"/>
      <point x="125" y="815"/>
      <point x="125" y="715" type="curve" smooth="yes"/>
      <point x="125" y="464" type="line" smooth="yes"/>
      <point x="125" y="387"/>
      <point x="88" y="370"/>
      <point x="35" y="370" type="curve"/>
      <point x="35" y="350" type="line"/>
      <point x="88" y="350"/>
      <point x="125" y="333"/>
      <point x="125" y="256" type="curve" smooth="yes"/>
      <point x="125" y="5" type="line" smooth="yes"/>
      <point x="125" y="-95"/>
      <point x="181" y="-120"/>
      <point x="246" y="-120" type="curve" smooth="yes"/>
      <point x="250" y="-120" type="line"/>
      <point x="250" y="-100" type="line"/>
      <point x="188" y="-100"/>
      <point x="145" y="-80"/>
      <point x="145" y="10" type="curve" smooth="yes"/>
      <point x="145" y="257" type="line" smooth="yes"/>
      <point x="145" y="318"/>
      <point x="121" y="348"/>
      <point x="87" y="360" type="curve"/>
      <point x="121" y="372"/>
      <point x="145" y="401"/>
      <point x="145" y="463" type="curve" smooth="yes"/>
      <point x="145" y="710" type="line" smooth="yes"/>
      <point x="145" y="800"/>
      <point x="188" y="820"/>
      <point x="250" y="820" type="curve"/>
    </contour>
  </outline>
</glyph>
<glyph name="bar" format="1">
  <advance width="180"/>
  <unicode hex="007C"/>
  <outline>
    <contour>
      <point x="80" y="-120" type="line"/>
      <point x="100" y="-120" type="line"/>
      <point x="100" y="840" type="line"/>
      <point x="80" y="840" type="line"/>
    </contour>
  </outline>
</glyph>
<glyph name="braceright" format="1">
  <advance width="300"/>
  <unicode hex="007D"/>
  <outline>
    <contour>
      <point x="50" y="-120" type="line"/>
      <point x="54" y="-120" type="line" smooth="yes"/>
      <point x="119" y="-120"/>
      <point x="175" y="-95"/>
      <point x="175" y="5" type="curve" smooth="yes"/>
      <point x="175" y="256" type="line" smooth="yes"/>
      <point x="175" y="333"/>
      <point x="212" y="350"/>
      <point x="265" y="350" type="curve"/>
      <point x="265" y="370" type="line"/>
      <point x="212" y="370"/>
      <point x="175" y="387"/>
      <point x="175" y="464" type="curve" smooth="yes"/>
      <point x="175" y="715" type="line" smooth="yes"/>
      <point x="175" y="815"/>
      <point x="119" y="840"/>
      <point x="54" y="840" type="curve" smooth="yes"/>
      <point x="50" y="840" type="line"/>
      <point x="50" y="820" type="line"/>
      <point x="112" y="820"/>
      <point x="155" y="800"/>
      <point x="155" y="710" type="curve" smooth="yes"/>
      <point x="155" y="463" type="line" smooth="yes"/>
      <point x="155" y="401"/>
      <point x="179" y="372"/>
      <point x="213" y="360" type="curve"/>
      <point x="179" y="348"/>
      <point x="155" y="318"/>
      <point x="155" y="257" type="curve" smooth="yes"/>
      <point x="155" y="10" type="line" smooth="yes"/>
      <point x="155" y="-80"/>
      <point x="112" y="-100"/>
      <point x="50" y="-100" type="curve"/>
    </contour>
  </outline>
</glyph>
<glyph name="asciitilde" format="1">
  <advance width="600"/>
  <unicode hex="007E"/>
  <outline>
    <contour>
      <point x="429" y="354" type="curve" smooth="yes"/>
      <point x="324" y="354"/>
      <point x="285" y="436"/>
      <point x="170" y="436" type="curve" smooth="yes"/>
      <point x="100" y="436"/>
      <point x="57" y="385"/>
      <point x="45" y="371" type="curve"/>
      <point x="60" y="356" type="line"/>
      <point x="74" y="372"/>
      <point x="111" y="416"/>
      <point x="171" y="416" type="curve" smooth="yes"/>
      <point x="276" y="416"/>
      <point x="315" y="334"/>
      <point x="430" y="334" type="curve" smooth="yes"/>
      <point x="500" y="334"/>
      <point x="543" y="385"/>
      <point x="555" y="399" type="curve"/>
      <point x="540" y="414" type="line"/>
      <point x="526" y="398"/>
      <point x="489" y="354"/>
    </contour>
  </outline>
</glyph>
<glyph name="exclamdown" format="1">
  <advance width="180"/>
  <unicode hex="00A1"/>
  <outline>
    <contour>
      <point x="100" y="-200" type="line"/>
      <point x="97" y="355" type="line"/>
      <point x="83" y="355" type="line"/>
      <point x="80" y="-200" type="line"/>
    </contour>
    <contour>
      <point x="70" y="490" type="line"/>
      <point x="110" y="490" type="line"/>
      <point x="110" y="530" type="line"/>
      <point x="70" y="530" type="line"/>
    </contour>
  </outline>
</glyph>
<glyph name="cent" format="1">
  <advance width="600"/>
  <unicode hex="00A2"/>
  <outline>
    <contour>
      <point x="413" y="840" type="line"/>
      <point x="393" y="840" type="line"/>
      <point x="363" y="716" type="line"/>
      <point x="348" y="719"/>
      <point x="332" y="720"/>
      <point x="315" y="720" type="curve" smooth="yes"/>
      <point x="158" y="720"/>
      <point x="74" y="611"/>
      <point x="74" y="401" type="curve" smooth="yes"/>
      <point x="74" y="378" type="line" smooth="yes"/>
      <point x="74" y="220"/>
      <point x="121" y="120"/>
      <point x="211" y="80" type="curve"/>
      <point x="178" y="-60" type="line"/>
      <point x="198" y="-60" type="line"/>
      <point x="230" y="73" type="line"/>
      <point x="255" y="64"/>
      <point x="284" y="60"/>
      <point x="315" y="60" type="curve" smooth="yes"/>
      <point x="461" y="60"/>
      <point x="526" y="153"/>
      <point x="526" y="266" type="curve" smooth="yes"/>
      <point x="526" y="278" type="line"/>
      <point x="506" y="278" type="line"/>
      <point x="506" y="149"/>
      <point x="438" y="80"/>
      <point x="317" y="80" type="curve" smooth="yes"/>
      <point x="314" y="80" type="line" smooth="yes"/>
      <point x="285" y="80"/>
      <point x="258" y="84"/>
      <point x="234" y="92" type="curve"/>
      <point x="378" y="693" type="line"/>
      <point x="463" y="672"/>
      <point x="506" y="602"/>
      <point x="506" y="481" type="curve"/>
      <point x="526" y="481" type="line"/>
      <point x="526" y="496" type="line" smooth="yes"/>
      <point x="526" y="609"/>
      <point x="480" y="688"/>
      <point x="382" y="712" type="curve"/>
    </contour>
    <contour>
      <point x="94" y="378" type="curve" smooth="yes"/>
      <point x="94" y="401" type="line" smooth="yes"/>
      <point x="94" y="603"/>
      <point x="175" y="700"/>
      <point x="314" y="700" type="curve" smooth="yes"/>
      <point x="317" y="700" type="line" smooth="yes"/>
      <point x="332" y="700"/>
      <point x="346" y="699"/>
      <point x="359" y="697" type="curve"/>
      <point x="216" y="100" type="line"/>
      <point x="138" y="138"/>
      <point x="94" y="230"/>
    </contour>
  </outline>
</glyph>
<glyph name="sterling" format="1">
  <advance width="600"/>
  <unicode hex="00A3"/>
  <outline>
    <contour>
      <point x="60" y="380" type="line"/>
      <point x="163" y="380" type="line"/>
      <point x="193" y="267"/>
      <point x="233" y="146"/>
      <point x="237" y="20" type="curve"/>
      <point x="60" y="20" type="line"/>
      <point x="60" y="0" type="line"/>
      <point x="540" y="0" type="line"/>
      <point x="540" y="20" type="line"/>
      <point x="257" y="20" type="line"/>
      <point x="256" y="141"/>
      <point x="216" y="267"/>
      <point x="185" y="380" type="curve"/>
      <point x="400" y="380" type="line"/>
      <point x="400" y="400" type="line"/>
      <point x="180" y="400" type="line"/>
      <point x="163" y="463"/>
      <point x="150" y="523"/>
      <point x="150" y="575" type="curve" smooth="yes"/>
      <point x="150" y="668"/>
      <point x="208" y="766"/>
      <point x="330" y="766" type="curve" smooth="yes"/>
      <point x="451" y="766"/>
      <point x="520" y="670"/>
      <point x="520" y="500" type="curve"/>
      <point x="540" y="500" type="line"/>
      <point x="540" y="507" type="line" smooth="yes"/>
      <point x="540" y="680"/>
      <point x="462" y="786"/>
      <point x="330" y="786" type="curve" smooth="yes"/>
      <point x="197" y="786"/>
      <point x="130" y="678"/>
      <point x="130" y="582" type="curve" smooth="yes"/>
      <point x="130" y="524"/>
      <point x="142" y="463"/>
      <point x="158" y="400" type="curve"/>
      <point x="60" y="400" type="line"/>
    </contour>
  </outline>
</glyph>
<glyph name="yen" format="1">
  <advance width="600"/>
  <unicode hex="00A5"/>
  <outline>
    <contour>
      <point x="50" y="450" type="line"/>
      <point x="192" y="450" type="line"/>
      <point x="280" y="270" type="line"/>
      <point x="50" y="270" type="line"/>
      <point x="50" y="250" type="line"/>
      <point x="290" y="250" type="line"/>
      <point x="290" y="0" type="line"/>
      <point x="310" y="0" type="line"/>
      <point x="310" y="250" type="line"/>
      <point x="550" y="250" type="line"/>
      <point x="550" y="270" type="line"/>
      <point x="320" y="270" type="line"/>
      <point x="408" y="450" type="line"/>
      <point x="550" y="450" type="line"/>
      <point x="550" y="470" type="line"/>
      <point x="418" y="470" type="line"/>
      <point x="570" y="780" type="line"/>
      <point x="548" y="780" type="line"/>
      <point x="300" y="274" type="line"/>
      <point x="52" y="780" type="line"/>
      <point x="30" y="780" type="line"/>
      <point x="182" y="470" type="line"/>
      <point x="50" y="470" type="line"/>
    </contour>
  </outline>
</glyph>
<glyph name="brokenbar" format="1">
  <advance width="180"/>
  <unicode hex="00A6"/>
  <outline>
    <contour>
      <point x="80" y="400" type="line"/>
      <point x="100" y="400" type="line"/>
      <point x="100" y="840" type="line"/>
      <point x="80" y="840" type="line"/>
    </contour>
    <contour>
      <point x="80" y="-120" type="line"/>
      <point x="100" y="-120" type="line"/>
      <point x="100" y="320" type="line"/>
      <point x="80" y="320" type="line"/>
    </contour>
  </outline>
</glyph>
<glyph name="section" format="1">
  <advance width="500"/>
  <unicode hex="00A7"/>
  <outline>
    <contour>
      <point x="50" y="389" type="curve" smooth="yes"/>
      <point x="50" y="383" type="line" smooth="yes"/>
      <point x="50" y="294"/>
      <point x="96" y="260"/>
      <point x="230" y="248" type="curve" smooth="yes"/>
      <point x="372" y="235"/>
      <point x="405" y="202"/>
      <point x="405" y="131" type="curve" smooth="yes"/>
      <point x="405" y="54"/>
      <point x="341" y="10"/>
      <point x="240" y="10" type="curve" smooth="yes"/>
      <point x="113" y="10"/>
      <point x="75" y="71"/>
      <point x="75" y="166" type="curve"/>
      <point x="55" y="166" type="line"/>
      <point x="55" y="162" type="line" smooth="yes"/>
      <point x="55" y="65"/>
      <point x="102" y="-10"/>
      <point x="240" y="-10" type="curve" smooth="yes"/>
      <point x="356" y="-10"/>
      <point x="425" y="46"/>
      <point x="425" y="128" type="curve" smooth="yes"/>
      <point x="425" y="134" type="line" smooth="yes"/>
      <point x="425" y="191"/>
      <point x="402" y="231"/>
      <point x="322" y="252" type="curve"/>
      <point x="403" y="268"/>
      <point x="450" y="318"/>
      <point x="450" y="387" type="curve" smooth="yes"/>
      <point x="450" y="393" type="line" smooth="yes"/>
      <point x="450" y="482"/>
      <point x="404" y="516"/>
      <point x="270" y="528" type="curve" smooth="yes"/>
      <point x="128" y="541"/>
      <point x="95" y="574"/>
      <point x="95" y="645" type="curve" smooth="yes"/>
      <point x="95" y="722"/>
      <point x="159" y="766"/>
      <point x="260" y="766" type="curve" smooth="yes"/>
      <point x="387" y="766"/>
      <point x="425" y="705"/>
      <point x="425" y="610" type="curve"/>
      <point x="445" y="610" type="line"/>
      <point x="445" y="614" type="line" smooth="yes"/>
      <point x="445" y="711"/>
      <point x="398" y="786"/>
      <point x="260" y="786" type="curve" smooth="yes"/>
      <point x="144" y="786"/>
      <point x="75" y="730"/>
      <point x="75" y="648" type="curve" smooth="yes"/>
      <point x="75" y="642" type="line" smooth="yes"/>
      <point x="75" y="585"/>
      <point x="97" y="545"/>
      <point x="178" y="524" type="curve"/>
      <point x="96" y="507"/>
      <point x="50" y="458"/>
    </contour>
    <contour>
      <point x="70" y="386" type="curve" smooth="yes"/>
      <point x="70" y="464"/>
      <point x="135" y="512"/>
      <point x="240" y="512" type="curve" smooth="yes"/>
      <point x="250" y="512" type="line"/>
      <point x="372" y="502"/>
      <point x="430" y="482"/>
      <point x="430" y="390" type="curve" smooth="yes"/>
      <point x="430" y="312"/>
      <point x="365" y="264"/>
      <point x="260" y="264" type="curve" smooth="yes"/>
      <point x="250" y="264" type="line"/>
      <point x="128" y="274"/>
      <point x="70" y="294"/>
    </contour>
  </outline>
</glyph>
<glyph name="dieresis" format="1">
  <advance width="500"/>
  <unicode hex="00A8"/>
  <outline>
    <contour>
      <point x="200" y="720" type="line"/>
      <point x="160" y="720" type="line"/>
      <point x="160" y="680" type="line"/>
      <point x="200" y="680" type="line"/>
    </contour>
    <contour>
      <point x="340" y="720" type="line"/>
      <point x="300" y="720" type="line"/>
      <point x="300" y="680" type="line"/>
      <point x="340" y="680" type="line"/>
    </contour>
  </outline>
</glyph>
<glyph name="copyright" format="1">
  <advance width="900"/>
  <unicode hex="00A9"/>
  <outline>
    <contour>
      <point x="54" y="390" type="curve" smooth="yes"/>
      <point x="54" y="171"/>
      <point x="231" y="-6"/>
      <point x="450" y="-6" type="curve" smooth="yes"/>
      <point x="669" y="-6"/>
      <point x="846" y="171"/>
      <point x="846" y="390" type="curve" smooth="yes"/>
      <point x="846" y="609"/>
      <point x="669" y="786"/>
      <point x="450" y="786" type="curve" smooth="yes"/>
      <point x="231" y="786"/>
      <point x="54" y="609"/>
    </contour>
    <contour>
      <point x="74" y="390" type="curve" smooth="yes"/>
      <point x="74" y="598"/>
      <point x="242" y="766"/>
      <point x="450" y="766" type="curve" smooth="yes"/>
      <point x="658" y="766"/>
      <point x="826" y="598"/>
      <point x="826" y="390" type="curve" smooth="yes"/>
      <point x="826" y="182"/>
      <point x="658" y="14"/>
      <point x="450" y="14" type="curve" smooth="yes"/>
      <point x="242" y="14"/>
      <point x="74" y="182"/>
    </contour>
    <contour>
      <point x="450" y="149" type="curve" smooth="yes"/>
      <point x="580" y="149"/>
      <point x="630" y="230"/>
      <point x="630" y="290" type="curve" smooth="yes"/>
      <point x="630" y="300" type="line"/>
      <point x="610" y="300" type="line"/>
      <point x="610" y="230"/>
      <point x="560" y="169"/>
      <point x="450" y="169" type="curve" smooth="yes"/>
      <point x="332" y="169"/>
      <point x="267" y="255"/>
      <point x="267" y="380" type="curve" smooth="yes"/>
      <point x="267" y="400" type="line" smooth="yes"/>
      <point x="267" y="525"/>
      <point x="332" y="611"/>
      <point x="450" y="611" type="curve" smooth="yes"/>
      <point x="560" y="611"/>
      <point x="610" y="560"/>
      <point x="610" y="470" type="curve"/>
      <point x="630" y="470" type="line"/>
      <point x="630" y="480" type="line" smooth="yes"/>
      <point x="630" y="560"/>
      <point x="580" y="631"/>
      <point x="450" y="631" type="curve" smooth="yes"/>
      <point x="317" y="631"/>
      <point x="247" y="535"/>
      <point x="247" y="400" type="curve" smooth="yes"/>
      <point x="247" y="380" type="line" smooth="yes"/>
      <point x="247" y="245"/>
      <point x="317" y="149"/>
    </contour>
  </outline>
</glyph>
<glyph name="ordfeminine" format="1">
  <advance width="377"/>
  <unicode hex="00AA"/>
  <outline>
    <contour>
      <point x="42" y="481" type="line" smooth="yes"/>
      <point x="42" y="417"/>
      <point x="89" y="380"/>
      <point x="154" y="380" type="curve" smooth="yes"/>
      <point x="236" y="380"/>
      <point x="279" y="419"/>
      <point x="301" y="450" type="curve"/>
      <point x="307" y="388" type="line"/>
      <point x="322" y="388" type="line"/>
      <point x="319" y="485" type="line"/>
      <point x="319" y="649" type="line" smooth="yes"/>
      <point x="319" y="722"/>
      <point x="292" y="786"/>
      <point x="189" y="786" type="curve" smooth="yes"/>
      <point x="82" y="786"/>
      <point x="59" y="718"/>
      <point x="59" y="654" type="curve" smooth="yes"/>
      <point x="59" y="646" type="line"/>
      <point x="79" y="646" type="line"/>
      <point x="79" y="711"/>
      <point x="95" y="766"/>
      <point x="189" y="766" type="curve" smooth="yes"/>
      <point x="280" y="766"/>
      <point x="299" y="715"/>
      <point x="299" y="644" type="curve" smooth="yes"/>
      <point x="299" y="626" type="line"/>
      <point x="166" y="604" type="line" smooth="yes"/>
      <point x="108" y="594"/>
      <point x="42" y="579"/>
      <point x="42" y="490" type="curve" smooth="yes"/>
    </contour>
    <contour>
      <point x="155" y="400" type="curve" smooth="yes"/>
      <point x="92" y="400"/>
      <point x="62" y="438"/>
      <point x="62" y="481" type="curve" smooth="yes"/>
      <point x="62" y="491" type="line" smooth="yes"/>
      <point x="62" y="556"/>
      <point x="106" y="575"/>
      <point x="161" y="584" type="curve" smooth="yes"/>
      <point x="299" y="607" type="line"/>
      <point x="299" y="479" type="line"/>
      <point x="284" y="453"/>
      <point x="248" y="400"/>
    </contour>
    <contour>
      <point x="50" y="230" type="line"/>
      <point x="322" y="230" type="line"/>
      <point x="322" y="250" type="line"/>
      <point x="50" y="250" type="line"/>
    </contour>
  </outline>
</glyph>
<glyph name="guillemotleft" format="1">
  <advance width="500"/>
  <unicode hex="00AB"/>
  <outline>
    <contour>
      <point x="250" y="506" type="line"/>
      <point x="50" y="350" type="line"/>
      <point x="50" y="330" type="line"/>
      <point x="250" y="174" type="line"/>
      <point x="250" y="199" type="line"/>
      <point x="68" y="340" type="line"/>
      <point x="250" y="481" type="line"/>
    </contour>
    <contour>
      <point x="450" y="506" type="line"/>
      <point x="250" y="350" type="line"/>
      <point x="250" y="330" type="line"/>
      <point x="450" y="174" type="line"/>
      <point x="450" y="199" type="line"/>
      <point x="268" y="340" type="line"/>
      <point x="450" y="481" type="line"/>
    </contour>
  </outline>
</glyph>
<glyph name="logicalnot" format="1">
  <advance width="600"/>
  <unicode hex="00AC"/>
  <outline>
    <contour>
      <point x="50" y="540" type="line"/>
      <point x="530" y="540" type="line"/>
      <point x="530" y="220" type="line"/>
      <point x="550" y="220" type="line"/>
      <point x="550" y="560" type="line"/>
      <point x="50" y="560" type="line"/>
    </contour>
  </outline>
</glyph>
<glyph name="uni00AD" format="1">
  <advance width="320"/>
  <unicode hex="00AD"/>
  <outline>
    <contour>
      <point x="50" y="330" type="line"/>
      <point x="270" y="330" type="line"/>
      <point x="270" y="350" type="line"/>
      <point x="50" y="350" type="line"/>
    </contour>
  </outline>
</glyph>
<glyph name="macron" format="1">
  <advance width="500"/>
  <unicode hex="00AF"/>
  <outline>
    <contour>
      <point x="150" y="690" type="line"/>
      <point x="350" y="690" type="line"/>
      <point x="350" y="710" type="line"/>
      <point x="150" y="710" type="line"/>
    </contour>
  </outline>
</glyph>
<glyph name="degree" format="1">
  <advance width="400"/>
  <unicode hex="00B0"/>
  <outline>
    <contour>
      <point x="326" y="635" type="line" smooth="yes"/>
      <point x="326" y="560"/>
      <point x="271" y="514"/>
      <point x="203" y="514" type="curve" smooth="yes"/>
      <point x="197" y="514" type="line" smooth="yes"/>
      <point x="129" y="514"/>
      <point x="74" y="560"/>
      <point x="74" y="635" type="curve" smooth="yes"/>
      <point x="74" y="645" type="line" smooth="yes"/>
      <point x="74" y="720"/>
      <point x="129" y="766"/>
      <point x="197" y="766" type="curve" smooth="yes"/>
      <point x="203" y="766" type="line" smooth="yes"/>
      <point x="271" y="766"/>
      <point x="326" y="720"/>
      <point x="326" y="645" type="curve" smooth="yes"/>
    </contour>
    <contour>
      <point x="346" y="642" type="line" smooth="yes"/>
      <point x="346" y="731"/>
      <point x="283" y="786"/>
      <point x="200" y="786" type="curve" smooth="yes"/>
      <point x="117" y="786"/>
      <point x="54" y="731"/>
      <point x="54" y="642" type="curve" smooth="yes"/>
      <point x="54" y="638" type="line" smooth="yes"/>
      <point x="54" y="549"/>
      <point x="117" y="494"/>
      <point x="200" y="494" type="curve" smooth="yes"/>
      <point x="283" y="494"/>
      <point x="346" y="549"/>
      <point x="346" y="638" type="curve" smooth="yes"/>
    </contour>
  </outline>
</glyph>
<glyph name="plusminus" format="1">
  <advance width="600"/>
  <unicode hex="00B1"/>
  <outline>
    <contour>
      <point x="290" y="640" type="line"/>
      <point x="290" y="480" type="line"/>
      <point x="50" y="480" type="line"/>
      <point x="50" y="460" type="line"/>
      <point x="290" y="460" type="line"/>
      <point x="290" y="300" type="line"/>
      <point x="310" y="300" type="line"/>
      <point x="310" y="460" type="line"/>
      <point x="550" y="460" type="line"/>
      <point x="550" y="480" type="line"/>
      <point x="310" y="480" type="line"/>
      <point x="310" y="640" type="line"/>
    </contour>
    <contour>
      <point x="50" y="180" type="line"/>
      <point x="550" y="180" type="line"/>
      <point x="550" y="200" type="line"/>
      <point x="50" y="200" type="line"/>
    </contour>
  </outline>
</glyph>
<glyph name="twosuperior" format="1">
  <advance width="300"/>
  <unicode hex="00B2"/>
  <outline>
    <contour>
      <point x="102" y="410" type="line"/>
      <point x="64" y="409" type="line"/>
      <point x="224" y="577" type="line" smooth="yes"/>
      <point x="261" y="616"/>
      <point x="270" y="639"/>
      <point x="270" y="677" type="curve" smooth="yes"/>
      <point x="270" y="682" type="line" smooth="yes"/>
      <point x="270" y="747"/>
      <point x="223" y="785"/>
      <point x="150" y="785" type="curve" smooth="yes"/>
      <point x="66" y="785"/>
      <point x="30" y="739"/>
      <point x="30" y="662" type="curve" smooth="yes"/>
      <point x="30" y="650" type="line"/>
      <point x="50" y="650" type="line"/>
      <point x="50" y="732"/>
      <point x="82" y="766"/>
      <point x="148" y="766" type="curve" smooth="yes"/>
      <point x="151" y="766" type="line" smooth="yes"/>
      <point x="210" y="766"/>
      <point x="249" y="732"/>
      <point x="249" y="680" type="curve" smooth="yes"/>
      <point x="249" y="675" type="line" smooth="yes"/>
      <point x="249" y="644"/>
      <point x="239" y="622"/>
      <point x="205" y="586" type="curve" smooth="yes"/>
      <point x="30" y="402" type="line"/>
      <point x="30" y="390" type="line"/>
      <point x="265" y="390" type="line"/>
      <point x="265" y="410" type="line"/>
    </contour>
  </outline>
</glyph>
<glyph name="acute" format="1">
  <advance width="500"/>
  <unicode hex="00B4"/>
  <outline>
    <contour>
      <point x="329" y="780" type="line"/>
      <point x="239" y="620" type="line"/>
      <point x="261" y="620" type="line"/>
      <point x="351" y="780" type="line"/>
    </contour>
  </outline>
</glyph>
<glyph name="paragraph" format="1">
  <advance width="500"/>
  <unicode hex="00B6"/>
  <outline>
    <contour>
      <point x="400" y="0" type="line"/>
      <point x="420" y="0" type="line"/>
      <point x="420" y="780" type="line"/>
      <point x="271" y="780" type="line" smooth="yes"/>
      <point x="165" y="780"/>
      <point x="50" y="737"/>
      <point x="50" y="570" type="curve" smooth="yes"/>
      <point x="50" y="550" type="line" smooth="yes"/>
      <point x="50" y="383"/>
      <point x="165" y="340"/>
      <point x="271" y="340" type="curve" smooth="yes"/>
      <point x="290" y="340" type="line"/>
      <point x="290" y="0" type="line"/>
      <point x="310" y="0" type="line"/>
      <point x="310" y="760" type="line"/>
      <point x="400" y="760" type="line"/>
    </contour>
    <contour>
      <point x="71" y="551" type="curve" smooth="yes"/>
      <point x="71" y="569" type="line" smooth="yes"/>
      <point x="71" y="734"/>
      <point x="190" y="760"/>
      <point x="272" y="760" type="curve" smooth="yes"/>
      <point x="290" y="760" type="line"/>
      <point x="290" y="360" type="line"/>
      <point x="272" y="360" type="line" smooth="yes"/>
      <point x="190" y="360"/>
      <point x="71" y="386"/>
    </contour>
  </outline>
</glyph>
<glyph name="periodcentered" format="1">
  <advance width="180"/>
  <unicode hex="00B7"/>
  <outline>
    <contour>
      <point x="110" y="360" type="line"/>
      <point x="70" y="360" type="line"/>
      <point x="70" y="320" type="line"/>
      <point x="110" y="320" type="line"/>
    </contour>
  </outline>
</glyph>
<glyph name="cedilla" format="1">
  <advance width="602"/>
  <unicode hex="00B8"/>
  <outline>
    <contour>
      <point x="171" y="-188" type="line"/>
      <point x="193" y="-199"/>
      <point x="223" y="-206"/>
      <point x="250" y="-206" type="curve" smooth="yes"/>
      <point x="297" y="-206"/>
      <point x="341" y="-192"/>
      <point x="341" y="-135" type="curve" smooth="yes"/>
      <point x="341" y="-78"/>
      <point x="295" y="-64"/>
      <point x="255" y="-64" type="curve" smooth="yes"/>
      <point x="248" y="-64"/>
      <point x="242" y="-64"/>
      <point x="237" y="-65" type="curve"/>
      <point x="260" y="0" type="line"/>
      <point x="240" y="0" type="line"/>
      <point x="214" y="-73" type="line"/>
      <point x="225" y="-84" type="line"/>
      <point x="225" y="-84"/>
      <point x="236" y="-82"/>
      <point x="250" y="-82" type="curve" smooth="yes"/>
      <point x="288" y="-82"/>
      <point x="323" y="-87"/>
      <point x="323" y="-135" type="curve" smooth="yes"/>
      <point x="323" y="-183"/>
      <point x="288" y="-188"/>
      <point x="250" y="-188" type="curve" smooth="yes"/>
      <point x="226" y="-188"/>
      <point x="193" y="-181"/>
      <point x="177" y="-172" type="curve"/>
    </contour>
  </outline>
</glyph>
<glyph name="onesuperior" format="1">
  <advance width="300"/>
  <unicode hex="00B9"/>
  <outline>
    <contour>
      <point x="272" y="390" type="line"/>
      <point x="272" y="410" type="line"/>
      <point x="165" y="410" type="line"/>
      <point x="165" y="782" type="line"/>
      <point x="155" y="782" type="line"/>
      <point x="32" y="699" type="line"/>
      <point x="43" y="682" type="line"/>
      <point x="145" y="752" type="line"/>
      <point x="145" y="410" type="line"/>
      <point x="37" y="410" type="line"/>
      <point x="37" y="390" type="line"/>
    </contour>
  </outline>
</glyph>
<glyph name="ordmasculine" format="1">
  <advance width="410"/>
  <unicode hex="00BA"/>
  <outline>
    <contour>
      <point x="205" y="400" type="curve" smooth="yes"/>
      <point x="114" y="400"/>
      <point x="66" y="468"/>
      <point x="66" y="576" type="curve" smooth="yes"/>
      <point x="66" y="590" type="line" smooth="yes"/>
      <point x="66" y="698"/>
      <point x="114" y="766"/>
      <point x="205" y="766" type="curve" smooth="yes"/>
      <point x="296" y="766"/>
      <point x="344" y="698"/>
      <point x="344" y="590" type="curve" smooth="yes"/>
      <point x="344" y="576" type="line" smooth="yes"/>
      <point x="344" y="468"/>
      <point x="296" y="400"/>
    </contour>
    <contour>
      <point x="205" y="380" type="curve" smooth="yes"/>
      <point x="310" y="380"/>
      <point x="364" y="459"/>
      <point x="364" y="576" type="curve" smooth="yes"/>
      <point x="364" y="590" type="line" smooth="yes"/>
      <point x="364" y="707"/>
      <point x="310" y="786"/>
      <point x="205" y="786" type="curve" smooth="yes"/>
      <point x="100" y="786"/>
      <point x="46" y="707"/>
      <point x="46" y="590" type="curve" smooth="yes"/>
      <point x="46" y="576" type="line" smooth="yes"/>
      <point x="46" y="459"/>
      <point x="100" y="380"/>
    </contour>
    <contour>
      <point x="56" y="230" type="line"/>
      <point x="354" y="230" type="line"/>
      <point x="354" y="250" type="line"/>
      <point x="56" y="250" type="line"/>
    </contour>
  </outline>
</glyph>
<glyph name="guillemotright" format="1">
  <advance width="500"/>
  <unicode hex="00BB"/>
  <outline>
    <contour>
      <point x="250" y="481" type="line"/>
      <point x="432" y="340" type="line"/>
      <point x="250" y="199" type="line"/>
      <point x="250" y="174" type="line"/>
      <point x="450" y="330" type="line"/>
      <point x="450" y="350" type="line"/>
      <point x="250" y="506" type="line"/>
    </contour>
    <contour>
      <point x="50" y="481" type="line"/>
      <point x="232" y="340" type="line"/>
      <point x="50" y="199" type="line"/>
      <point x="50" y="174" type="line"/>
      <point x="250" y="330" type="line"/>
      <point x="250" y="350" type="line"/>
      <point x="50" y="506" type="line"/>
    </contour>
  </outline>
</glyph>
<glyph name="onequarter" format="1">
  <advance width="800"/>
  <unicode hex="00BC"/>
  <outline>
    <contour>
      <point x="710" y="0" type="line"/>
      <point x="710" y="110" type="line"/>
      <point x="782" y="110" type="line"/>
      <point x="782" y="130" type="line"/>
      <point x="710" y="130" type="line"/>
      <point x="710" y="390" type="line"/>
      <point x="690" y="390" type="line"/>
      <point x="517" y="122" type="line"/>
      <point x="517" y="110" type="line"/>
      <point x="690" y="110" type="line"/>
      <point x="690" y="0" type="line"/>
    </contour>
    <contour>
      <point x="124" y="0" type="line"/>
      <point x="700" y="780" type="line"/>
      <point x="676" y="780" type="line"/>
      <point x="100" y="0" type="line"/>
    </contour>
    <contour>
      <point x="690" y="354" type="line"/>
      <point x="690" y="130" type="line"/>
      <point x="595" y="130" type="line"/>
      <point x="546" y="129" type="line"/>
    </contour>
    <contour>
      <point x="272" y="390" type="line"/>
      <point x="272" y="410" type="line"/>
      <point x="165" y="410" type="line"/>
      <point x="165" y="782" type="line"/>
      <point x="155" y="782" type="line"/>
      <point x="32" y="699" type="line"/>
      <point x="43" y="682" type="line"/>
      <point x="145" y="752" type="line"/>
      <point x="145" y="410" type="line"/>
      <point x="37" y="410" type="line"/>
      <point x="37" y="390" type="line"/>
    </contour>
  </outline>
</glyph>
<glyph name="onehalf" format="1">
  <advance width="800"/>
  <unicode hex="00BD"/>
  <outline>
    <contour>
      <point x="602" y="20" type="line"/>
      <point x="564" y="19" type="line"/>
      <point x="724" y="187" type="line" smooth="yes"/>
      <point x="761" y="226"/>
      <point x="770" y="249"/>
      <point x="770" y="287" type="curve" smooth="yes"/>
      <point x="770" y="292" type="line" smooth="yes"/>
      <point x="770" y="357"/>
      <point x="723" y="395"/>
      <point x="650" y="395" type="curve" smooth="yes"/>
      <point x="566" y="395"/>
      <point x="530" y="349"/>
      <point x="530" y="272" type="curve" smooth="yes"/>
      <point x="530" y="260" type="line"/>
      <point x="550" y="260" type="line"/>
      <point x="550" y="342"/>
      <point x="582" y="376"/>
      <point x="648" y="376" type="curve" smooth="yes"/>
      <point x="651" y="376" type="line" smooth="yes"/>
      <point x="710" y="376"/>
      <point x="749" y="342"/>
      <point x="749" y="290" type="curve" smooth="yes"/>
      <point x="749" y="285" type="line" smooth="yes"/>
      <point x="749" y="254"/>
      <point x="739" y="232"/>
      <point x="705" y="196" type="curve" smooth="yes"/>
      <point x="530" y="12" type="line"/>
      <point x="530" y="0" type="line"/>
      <point x="765" y="0" type="line"/>
      <point x="765" y="20" type="line"/>
    </contour>
    <contour>
      <point x="124" y="0" type="line"/>
      <point x="700" y="780" type="line"/>
      <point x="676" y="780" type="line"/>
      <point x="100" y="0" type="line"/>
    </contour>
    <contour>
      <point x="272" y="390" type="line"/>
      <point x="272" y="410" type="line"/>
      <point x="165" y="410" type="line"/>
      <point x="165" y="782" type="line"/>
      <point x="155" y="782" type="line"/>
      <point x="32" y="699" type="line"/>
      <point x="43" y="682" type="line"/>
      <point x="145" y="752" type="line"/>
      <point x="145" y="410" type="line"/>
      <point x="37" y="410" type="line"/>
      <point x="37" y="390" type="line"/>
    </contour>
  </outline>
</glyph>
<glyph name="questiondown" format="1">
  <advance width="440"/>
  <unicode hex="00BF"/>
  <outline>
    <contour>
      <point x="200" y="490" type="line"/>
      <point x="240" y="490" type="line"/>
      <point x="240" y="530" type="line"/>
      <point x="200" y="530" type="line"/>
    </contour>
    <contour>
      <point x="213" y="355" type="line"/>
      <point x="208" y="148"/>
      <point x="37" y="141"/>
      <point x="37" y="-35" type="curve" smooth="yes"/>
      <point x="37" y="-115"/>
      <point x="84" y="-206"/>
      <point x="217" y="-206" type="curve" smooth="yes"/>
      <point x="349" y="-206"/>
      <point x="407" y="-105"/>
      <point x="407" y="53" type="curve" smooth="yes"/>
      <point x="407" y="60" type="line"/>
      <point x="387" y="60" type="line"/>
      <point x="387" y="-95"/>
      <point x="338" y="-186"/>
      <point x="217" y="-186" type="curve" smooth="yes"/>
      <point x="95" y="-186"/>
      <point x="57" y="-105"/>
      <point x="57" y="-30" type="curve" smooth="yes"/>
      <point x="57" y="129"/>
      <point x="228" y="140"/>
      <point x="227" y="355" type="curve"/>
    </contour>
  </outline>
</glyph>
<glyph name="Agrave" format="1">
  <advance width="590"/>
  <unicode hex="00C0"/>
  <outline>
    <contour>
      <point x="285" y="790" type="line"/>
      <point x="35" y="0" type="line"/>
      <point x="56" y="0" type="line"/>
      <point x="128" y="230" type="line"/>
      <point x="462" y="230" type="line"/>
      <point x="534" y="0" type="line"/>
      <point x="555" y="0" type="line"/>
      <point x="305" y="790" type="line"/>
    </contour>
    <contour>
      <point x="295" y="760" type="line"/>
      <point x="455" y="250" type="line"/>
      <point x="135" y="250" type="line"/>
    </contour>
    <contour>
      <point x="222" y="950" type="line"/>
      <point x="284" y="840" type="line"/>
      <point x="306" y="840" type="line"/>
      <point x="244" y="950" type="line"/>
    </contour>
  </outline>
</glyph>
<glyph name="Aacute" format="1">
  <advance width="590"/>
  <unicode hex="00C1"/>
  <outline>
    <contour>
      <point x="285" y="790" type="line"/>
      <point x="35" y="0" type="line"/>
      <point x="56" y="0" type="line"/>
      <point x="128" y="230" type="line"/>
      <point x="462" y="230" type="line"/>
      <point x="534" y="0" type="line"/>
      <point x="555" y="0" type="line"/>
      <point x="305" y="790" type="line"/>
    </contour>
    <contour>
      <point x="295" y="760" type="line"/>
      <point x="455" y="250" type="line"/>
      <point x="135" y="250" type="line"/>
    </contour>
    <contour>
      <point x="346" y="950" type="line"/>
      <point x="284" y="840" type="line"/>
      <point x="306" y="840" type="line"/>
      <point x="368" y="950" type="line"/>
    </contour>
  </outline>
</glyph>
<glyph name="Acircumflex" format="1">
  <advance width="590"/>
  <unicode hex="00C2"/>
  <outline>
    <contour>
      <point x="285" y="790" type="line"/>
      <point x="35" y="0" type="line"/>
      <point x="56" y="0" type="line"/>
      <point x="128" y="230" type="line"/>
      <point x="462" y="230" type="line"/>
      <point x="534" y="0" type="line"/>
      <point x="555" y="0" type="line"/>
      <point x="305" y="790" type="line"/>
    </contour>
    <contour>
      <point x="295" y="760" type="line"/>
      <point x="455" y="250" type="line"/>
      <point x="135" y="250" type="line"/>
    </contour>
    <contour>
      <point x="209" y="840" type="line"/>
      <point x="295" y="935" type="line"/>
      <point x="381" y="840" type="line"/>
      <point x="405" y="840" type="line"/>
      <point x="305" y="950" type="line"/>
      <point x="285" y="950" type="line"/>
      <point x="185" y="840" type="line"/>
    </contour>
  </outline>
</glyph>
<glyph name="Atilde" format="1">
  <advance width="590"/>
  <unicode hex="00C3"/>
  <outline>
    <contour>
      <point x="285" y="790" type="line"/>
      <point x="35" y="0" type="line"/>
      <point x="56" y="0" type="line"/>
      <point x="128" y="230" type="line"/>
      <point x="462" y="230" type="line"/>
      <point x="534" y="0" type="line"/>
      <point x="555" y="0" type="line"/>
      <point x="305" y="790" type="line"/>
    </contour>
    <contour>
      <point x="295" y="760" type="line"/>
      <point x="455" y="250" type="line"/>
      <point x="135" y="250" type="line"/>
    </contour>
    <contour>
      <point x="412" y="927" type="line"/>
      <point x="412" y="882"/>
      <point x="390" y="875"/>
      <point x="367" y="875" type="curve" smooth="yes"/>
      <point x="320" y="875"/>
      <point x="274" y="933"/>
      <point x="220" y="933" type="curve" smooth="yes"/>
      <point x="190" y="933"/>
      <point x="160" y="917"/>
      <point x="160" y="863" type="curve"/>
      <point x="178" y="863" type="line"/>
      <point x="178" y="908"/>
      <point x="200" y="915"/>
      <point x="223" y="915" type="curve" smooth="yes"/>
      <point x="270" y="915"/>
      <point x="316" y="857"/>
      <point x="370" y="857" type="curve" smooth="yes"/>
      <point x="400" y="857"/>
      <point x="430" y="873"/>
      <point x="430" y="927" type="curve"/>
    </contour>
  </outline>
</glyph>
<glyph name="Aring" format="1">
  <advance width="590"/>
  <unicode hex="00C5"/>
  <outline>
    <contour>
      <point x="209" y="870" type="curve" smooth="yes"/>
      <point x="209" y="827"/>
      <point x="241" y="790"/>
      <point x="283" y="784" type="curve"/>
      <point x="35" y="0" type="line"/>
      <point x="56" y="0" type="line"/>
      <point x="128" y="230" type="line"/>
      <point x="462" y="230" type="line"/>
      <point x="534" y="0" type="line"/>
      <point x="555" y="0" type="line"/>
      <point x="306" y="784" type="line"/>
      <point x="348" y="790"/>
      <point x="381" y="827"/>
      <point x="381" y="870" type="curve" smooth="yes"/>
      <point x="381" y="917"/>
      <point x="342" y="956"/>
      <point x="295" y="956" type="curve" smooth="yes"/>
      <point x="248" y="956"/>
      <point x="209" y="917"/>
    </contour>
    <contour>
      <point x="295" y="760" type="line"/>
      <point x="455" y="250" type="line"/>
      <point x="135" y="250" type="line"/>
    </contour>
    <contour>
      <point x="227" y="870" type="curve" smooth="yes"/>
      <point x="227" y="908"/>
      <point x="257" y="938"/>
      <point x="295" y="938" type="curve" smooth="yes"/>
      <point x="333" y="938"/>
      <point x="363" y="908"/>
      <point x="363" y="870" type="curve" smooth="yes"/>
      <point x="363" y="832"/>
      <point x="333" y="802"/>
      <point x="295" y="802" type="curve" smooth="yes"/>
      <point x="257" y="802"/>
      <point x="227" y="832"/>
    </contour>
  </outline>
</glyph>
<glyph name="AE" format="1">
  <advance width="820"/>
  <unicode hex="00C6"/>
  <outline>
    <contour>
      <point x="325" y="780" type="line"/>
      <point x="30" y="0" type="line"/>
      <point x="51" y="0" type="line"/>
      <point x="138" y="230" type="line"/>
      <point x="420" y="230" type="line"/>
      <point x="458" y="0" type="line"/>
      <point x="770" y="0" type="line"/>
      <point x="770" y="20" type="line"/>
      <point x="476" y="20" type="line"/>
      <point x="416" y="388" type="line"/>
      <point x="720" y="388" type="line"/>
      <point x="720" y="408" type="line"/>
      <point x="412" y="408" type="line"/>
      <point x="355" y="760" type="line"/>
      <point x="770" y="760" type="line"/>
      <point x="770" y="780" type="line"/>
    </contour>
    <contour>
      <point x="337" y="757" type="line"/>
      <point x="417" y="250" type="line"/>
      <point x="146" y="250" type="line"/>
    </contour>
  </outline>
</glyph>
<glyph name="Ccedilla" format="1">
  <advance width="593"/>
  <unicode hex="00C7"/>
  <outline>
    <contour>
      <point x="236" y="-188" type="line"/>
      <point x="258" y="-199"/>
      <point x="288" y="-206"/>
      <point x="315" y="-206" type="curve" smooth="yes"/>
      <point x="362" y="-206"/>
      <point x="406" y="-192"/>
      <point x="406" y="-135" type="curve" smooth="yes"/>
      <point x="406" y="-78"/>
      <point x="360" y="-64"/>
      <point x="320" y="-64" type="curve" smooth="yes"/>
      <point x="313" y="-64"/>
      <point x="307" y="-64"/>
      <point x="302" y="-65" type="curve"/>
      <point x="323" y="-6" type="line"/>
      <point x="471" y="-2"/>
      <point x="535" y="93"/>
      <point x="535" y="236" type="curve" smooth="yes"/>
      <point x="535" y="250" type="line"/>
      <point x="515" y="250" type="line"/>
      <point x="515" y="84"/>
      <point x="443" y="14"/>
      <point x="318" y="14" type="curve" smooth="yes"/>
      <point x="312" y="14" type="line" smooth="yes"/>
      <point x="164" y="14"/>
      <point x="85" y="112"/>
      <point x="85" y="370" type="curve" smooth="yes"/>
      <point x="85" y="410" type="line" smooth="yes"/>
      <point x="85" y="668"/>
      <point x="164" y="766"/>
      <point x="312" y="766" type="curve" smooth="yes"/>
      <point x="318" y="766" type="line" smooth="yes"/>
      <point x="455" y="766"/>
      <point x="515" y="698"/>
      <point x="515" y="500" type="curve"/>
      <point x="535" y="500" type="line"/>
      <point x="535" y="520" type="line" smooth="yes"/>
      <point x="535" y="708"/>
      <point x="466" y="786"/>
      <point x="315" y="786" type="curve" smooth="yes"/>
      <point x="150" y="786"/>
      <point x="65" y="680"/>
      <point x="65" y="410" type="curve" smooth="yes"/>
      <point x="65" y="370" type="line" smooth="yes"/>
      <point x="65" y="106"/>
      <point x="146" y="-1"/>
      <point x="303" y="-6" type="curve"/>
      <point x="279" y="-73" type="line"/>
      <point x="290" y="-84" type="line"/>
      <point x="290" y="-84"/>
      <point x="301" y="-82"/>
      <point x="315" y="-82" type="curve" smooth="yes"/>
      <point x="353" y="-82"/>
      <point x="388" y="-87"/>
      <point x="388" y="-135" type="curve" smooth="yes"/>
      <point x="388" y="-183"/>
      <point x="353" y="-188"/>
      <point x="315" y="-188" type="curve" smooth="yes"/>
      <point x="291" y="-188"/>
      <point x="258" y="-181"/>
      <point x="242" y="-172" type="curve"/>
    </contour>
  </outline>
</glyph>
<glyph name="Egrave" format="1">
  <advance width="540"/>
  <unicode hex="00C8"/>
  <outline>
    <contour>
      <point x="80" y="780" type="line"/>
      <point x="80" y="0" type="line"/>
      <point x="490" y="0" type="line"/>
      <point x="490" y="20" type="line"/>
      <point x="100" y="20" type="line"/>
      <point x="100" y="388" type="line"/>
      <point x="440" y="388" type="line"/>
      <point x="440" y="408" type="line"/>
      <point x="100" y="408" type="line"/>
      <point x="100" y="760" type="line"/>
      <point x="490" y="760" type="line"/>
      <point x="490" y="780" type="line"/>
    </contour>
    <contour>
      <point x="217" y="950" type="line"/>
      <point x="279" y="840" type="line"/>
      <point x="301" y="840" type="line"/>
      <point x="239" y="950" type="line"/>
    </contour>
  </outline>
</glyph>
<glyph name="Eacute" format="1">
  <advance width="540"/>
  <unicode hex="00C9"/>
  <outline>
    <contour>
      <point x="80" y="780" type="line"/>
      <point x="80" y="0" type="line"/>
      <point x="490" y="0" type="line"/>
      <point x="490" y="20" type="line"/>
      <point x="100" y="20" type="line"/>
      <point x="100" y="388" type="line"/>
      <point x="440" y="388" type="line"/>
      <point x="440" y="408" type="line"/>
      <point x="100" y="408" type="line"/>
      <point x="100" y="760" type="line"/>
      <point x="490" y="760" type="line"/>
      <point x="490" y="780" type="line"/>
    </contour>
    <contour>
      <point x="341" y="950" type="line"/>
      <point x="279" y="840" type="line"/>
      <point x="301" y="840" type="line"/>
      <point x="363" y="950" type="line"/>
    </contour>
  </outline>
</glyph>
<glyph name="Iacute" format="1">
  <advance width="190"/>
  <unicode hex="00CD"/>
  <outline>
    <contour>
      <point x="105" y="780" type="line"/>
      <point x="85" y="780" type="line"/>
      <point x="85" y="0" type="line"/>
      <point x="105" y="0" type="line"/>
    </contour>
    <contour>
      <point x="146" y="950" type="line"/>
      <point x="84" y="840" type="line"/>
      <point x="106" y="840" type="line"/>
      <point x="168" y="950" type="line"/>
    </contour>
  </outline>
</glyph>
<glyph name="Icircumflex" format="1">
  <advance width="190"/>
  <unicode hex="00CE"/>
  <outline>
    <contour>
      <point x="105" y="780" type="line"/>
      <point x="85" y="780" type="line"/>
      <point x="85" y="0" type="line"/>
      <point x="105" y="0" type="line"/>
    </contour>
    <contour>
      <point x="9" y="840" type="line"/>
      <point x="95" y="935" type="line"/>
      <point x="181" y="840" type="line"/>
      <point x="205" y="840" type="line"/>
      <point x="105" y="950" type="line"/>
      <point x="85" y="950" type="line"/>
      <point x="-15" y="840" type="line"/>
    </contour>
  </outline>
</glyph>
<glyph name="Idieresis" format="1">
  <advance width="190"/>
  <unicode hex="00CF"/>
  <outline>
    <contour>
      <point x="105" y="780" type="line"/>
      <point x="85" y="780" type="line"/>
      <point x="85" y="0" type="line"/>
      <point x="105" y="0" type="line"/>
    </contour>
    <contour>
      <point x="185" y="915" type="line"/>
      <point x="145" y="915" type="line"/>
      <point x="145" y="875" type="line"/>
      <point x="185" y="875" type="line"/>
    </contour>
    <contour>
      <point x="45" y="915" type="line"/>
      <point x="5" y="915" type="line"/>
      <point x="5" y="875" type="line"/>
      <point x="45" y="875" type="line"/>
    </contour>
  </outline>
</glyph>
<glyph name="Ntilde" format="1">
  <advance width="640"/>
  <unicode hex="00D1"/>
  <outline>
    <contour>
      <point x="541" y="29" type="line"/>
      <point x="105" y="780" type="line"/>
      <point x="80" y="780" type="line"/>
      <point x="80" y="0" type="line"/>
      <point x="100" y="0" type="line"/>
      <point x="100" y="600" type="line"/>
      <point x="99" y="751" type="line"/>
      <point x="535" y="0" type="line"/>
      <point x="560" y="0" type="line"/>
      <point x="560" y="780" type="line"/>
      <point x="540" y="780" type="line"/>
      <point x="540" y="180" type="line"/>
    </contour>
    <contour>
      <point x="437" y="927" type="line"/>
      <point x="437" y="882"/>
      <point x="415" y="875"/>
      <point x="392" y="875" type="curve" smooth="yes"/>
      <point x="345" y="875"/>
      <point x="299" y="933"/>
      <point x="245" y="933" type="curve" smooth="yes"/>
      <point x="215" y="933"/>
      <point x="185" y="917"/>
      <point x="185" y="863" type="curve"/>
      <point x="203" y="863" type="line"/>
      <point x="203" y="908"/>
      <point x="225" y="915"/>
      <point x="248" y="915" type="curve" smooth="yes"/>
      <point x="295" y="915"/>
      <point x="341" y="857"/>
      <point x="395" y="857" type="curve" smooth="yes"/>
      <point x="425" y="857"/>
      <point x="455" y="873"/>
      <point x="455" y="927" type="curve"/>
    </contour>
  </outline>
</glyph>
<glyph name="Otilde" format="1">
  <advance width="630"/>
  <unicode hex="00D5"/>
  <outline>
    <contour>
      <point x="65" y="410" type="curve" smooth="yes"/>
      <point x="65" y="370" type="line" smooth="yes"/>
      <point x="65" y="100"/>
      <point x="150" y="-6"/>
      <point x="315" y="-6" type="curve" smooth="yes"/>
      <point x="480" y="-6"/>
      <point x="565" y="100"/>
      <point x="565" y="370" type="curve" smooth="yes"/>
      <point x="565" y="410" type="line" smooth="yes"/>
      <point x="565" y="680"/>
      <point x="480" y="786"/>
      <point x="315" y="786" type="curve" smooth="yes"/>
      <point x="150" y="786"/>
      <point x="65" y="680"/>
    </contour>
    <contour>
      <point x="85" y="370" type="curve" smooth="yes"/>
      <point x="85" y="410" type="line" smooth="yes"/>
      <point x="85" y="668"/>
      <point x="164" y="766"/>
      <point x="312" y="766" type="curve" smooth="yes"/>
      <point x="318" y="766" type="line" smooth="yes"/>
      <point x="466" y="766"/>
      <point x="545" y="668"/>
      <point x="545" y="410" type="curve" smooth="yes"/>
      <point x="545" y="370" type="line" smooth="yes"/>
      <point x="545" y="112"/>
      <point x="466" y="14"/>
      <point x="318" y="14" type="curve" smooth="yes"/>
      <point x="312" y="14" type="line" smooth="yes"/>
      <point x="164" y="14"/>
      <point x="85" y="112"/>
    </contour>
    <contour>
      <point x="432" y="927" type="line"/>
      <point x="432" y="882"/>
      <point x="410" y="875"/>
      <point x="387" y="875" type="curve" smooth="yes"/>
      <point x="340" y="875"/>
      <point x="294" y="933"/>
      <point x="240" y="933" type="curve" smooth="yes"/>
      <point x="210" y="933"/>
      <point x="180" y="917"/>
      <point x="180" y="863" type="curve"/>
      <point x="198" y="863" type="line"/>
      <point x="198" y="908"/>
      <point x="220" y="915"/>
      <point x="243" y="915" type="curve" smooth="yes"/>
      <point x="290" y="915"/>
      <point x="336" y="857"/>
      <point x="390" y="857" type="curve" smooth="yes"/>
      <point x="420" y="857"/>
      <point x="450" y="873"/>
      <point x="450" y="927" type="curve"/>
    </contour>
  </outline>
</glyph>
<glyph name="Odieresis" format="1">
  <advance width="630"/>
  <unicode hex="00D6"/>
  <outline>
    <contour>
      <point x="65" y="410" type="curve" smooth="yes"/>
      <point x="65" y="370" type="line" smooth="yes"/>
      <point x="65" y="100"/>
      <point x="150" y="-6"/>
      <point x="315" y="-6" type="curve" smooth="yes"/>
      <point x="480" y="-6"/>
      <point x="565" y="100"/>
      <point x="565" y="370" type="curve" smooth="yes"/>
      <point x="565" y="410" type="line" smooth="yes"/>
      <point x="565" y="680"/>
      <point x="480" y="786"/>
      <point x="315" y="786" type="curve" smooth="yes"/>
      <point x="150" y="786"/>
      <point x="65" y="680"/>
    </contour>
    <contour>
      <point x="85" y="370" type="curve" smooth="yes"/>
      <point x="85" y="410" type="line" smooth="yes"/>
      <point x="85" y="668"/>
      <point x="164" y="766"/>
      <point x="312" y="766" type="curve" smooth="yes"/>
      <point x="318" y="766" type="line" smooth="yes"/>
      <point x="466" y="766"/>
      <point x="545" y="668"/>
      <point x="545" y="410" type="curve" smooth="yes"/>
      <point x="545" y="370" type="line" smooth="yes"/>
      <point x="545" y="112"/>
      <point x="466" y="14"/>
      <point x="318" y="14" type="curve" smooth="yes"/>
      <point x="312" y="14" type="line" smooth="yes"/>
      <point x="164" y="14"/>
      <point x="85" y="112"/>
    </contour>
    <contour>
      <point x="265" y="915" type="line"/>
      <point x="225" y="915" type="line"/>
      <point x="225" y="875" type="line"/>
      <point x="265" y="875" type="line"/>
    </contour>
    <contour>
      <point x="405" y="915" type="line"/>
      <point x="365" y="915" type="line"/>
      <point x="365" y="875" type="line"/>
      <point x="405" y="875" type="line"/>
    </contour>
  </outline>
</glyph>
<glyph name="multiply" format="1">
  <advance width="600"/>
  <unicode hex="00D7"/>
  <outline>
    <contour>
      <point x="45" y="630" type="line"/>
      <point x="285" y="390" type="line"/>
      <point x="45" y="150" type="line"/>
      <point x="60" y="135" type="line"/>
      <point x="300" y="375" type="line"/>
      <point x="540" y="135" type="line"/>
      <point x="555" y="150" type="line"/>
      <point x="315" y="390" type="line"/>
      <point x="555" y="630" type="line"/>
      <point x="540" y="645" type="line"/>
      <point x="300" y="405" type="line"/>
      <point x="60" y="645" type="line"/>
    </contour>
  </outline>
</glyph>
<glyph name="Oslash" format="1">
  <advance width="626"/>
  <unicode hex="00D8"/>
  <outline>
    <contour>
      <point x="565" y="780" type="line"/>
      <point x="542" y="780" type="line"/>
      <point x="497" y="706" type="line"/>
      <point x="455" y="761"/>
      <point x="394" y="786"/>
      <point x="315" y="786" type="curve" smooth="yes"/>
      <point x="150" y="786"/>
      <point x="65" y="680"/>
      <point x="65" y="410" type="curve" smooth="yes"/>
      <point x="65" y="370" type="line" smooth="yes"/>
      <point x="65" y="243"/>
      <point x="84" y="152"/>
      <point x="121" y="91" type="curve"/>
      <point x="65" y="0" type="line"/>
      <point x="88" y="0" type="line"/>
      <point x="133" y="74" type="line"/>
      <point x="175" y="18"/>
      <point x="235" y="-6"/>
      <point x="315" y="-6" type="curve" smooth="yes"/>
      <point x="480" y="-6"/>
      <point x="565" y="100"/>
      <point x="565" y="370" type="curve" smooth="yes"/>
      <point x="565" y="410" type="line" smooth="yes"/>
      <point x="565" y="537"/>
      <point x="546" y="628"/>
      <point x="509" y="688" type="curve"/>
    </contour>
    <contour>
      <point x="545" y="410" type="curve" smooth="yes"/>
      <point x="545" y="370" type="line" smooth="yes"/>
      <point x="545" y="112"/>
      <point x="466" y="14"/>
      <point x="318" y="14" type="curve" smooth="yes"/>
      <point x="312" y="14" type="line" smooth="yes"/>
      <point x="239" y="14"/>
      <point x="182" y="38"/>
      <point x="144" y="93" type="curve"/>
      <point x="497" y="668" type="line"/>
      <point x="529" y="611"/>
      <point x="545" y="527"/>
    </contour>
    <contour>
      <point x="85" y="370" type="curve" smooth="yes"/>
      <point x="85" y="410" type="line" smooth="yes"/>
      <point x="85" y="668"/>
      <point x="164" y="766"/>
      <point x="312" y="766" type="curve" smooth="yes"/>
      <point x="318" y="766" type="line" smooth="yes"/>
      <point x="391" y="766"/>
      <point x="447" y="742"/>
      <point x="485" y="687" type="curve"/>
      <point x="133" y="111" type="line"/>
      <point x="101" y="168"/>
      <point x="85" y="252"/>
    </contour>
  </outline>
</glyph>
<glyph name="Ugrave" format="1">
  <advance width="620"/>
  <unicode hex="00D9"/>
  <outline>
    <contour>
      <point x="310" y="-6" type="curve" smooth="yes"/>
      <point x="450" y="-6"/>
      <point x="543" y="50"/>
      <point x="543" y="243" type="curve" smooth="yes"/>
      <point x="543" y="780" type="line"/>
      <point x="523" y="780" type="line"/>
      <point x="523" y="246" type="line" smooth="yes"/>
      <point x="523" y="65"/>
      <point x="445" y="14"/>
      <point x="310" y="14" type="curve" smooth="yes"/>
      <point x="175" y="14"/>
      <point x="97" y="65"/>
      <point x="97" y="246" type="curve" smooth="yes"/>
      <point x="97" y="780" type="line"/>
      <point x="77" y="780" type="line"/>
      <point x="77" y="243" type="line" smooth="yes"/>
      <point x="77" y="50"/>
      <point x="170" y="-6"/>
    </contour>
    <contour>
      <point x="237" y="950" type="line"/>
      <point x="299" y="840" type="line"/>
      <point x="321" y="840" type="line"/>
      <point x="259" y="950" type="line"/>
    </contour>
  </outline>
</glyph>
<glyph name="Yacute" format="1">
  <advance width="540"/>
  <unicode hex="00DD"/>
  <outline>
    <contour>
      <point x="265" y="259" type="line"/>
      <point x="37" y="780" type="line"/>
      <point x="15" y="780" type="line"/>
      <point x="255" y="235" type="line"/>
      <point x="255" y="0" type="line"/>
      <point x="275" y="0" type="line"/>
      <point x="275" y="235" type="line"/>
      <point x="515" y="780" type="line"/>
      <point x="493" y="780" type="line"/>
    </contour>
    <contour>
      <point x="316" y="950" type="line"/>
      <point x="254" y="840" type="line"/>
      <point x="276" y="840" type="line"/>
      <point x="338" y="950" type="line"/>
    </contour>
  </outline>
</glyph>
<glyph name="Thorn" format="1">
  <advance width="544"/>
  <unicode hex="00DE"/>
  <outline>
    <contour>
      <point x="100" y="780" type="line"/>
      <point x="80" y="780" type="line"/>
      <point x="80" y="0" type="line"/>
      <point x="100" y="0" type="line"/>
      <point x="100" y="170" type="line"/>
      <point x="273" y="170" type="line" smooth="yes"/>
      <point x="379" y="170"/>
      <point x="494" y="213"/>
      <point x="494" y="380" type="curve" smooth="yes"/>
      <point x="494" y="400" type="line" smooth="yes"/>
      <point x="494" y="567"/>
      <point x="379" y="610"/>
      <point x="273" y="610" type="curve" smooth="yes"/>
      <point x="100" y="610" type="line"/>
    </contour>
    <contour>
      <point x="100" y="190" type="line"/>
      <point x="100" y="590" type="line"/>
      <point x="272" y="590" type="line" smooth="yes"/>
      <point x="354" y="590"/>
      <point x="473" y="564"/>
      <point x="473" y="399" type="curve" smooth="yes"/>
      <point x="473" y="381" type="line" smooth="yes"/>
      <point x="473" y="216"/>
      <point x="354" y="190"/>
      <point x="272" y="190" type="curve" smooth="yes"/>
    </contour>
  </outline>
</glyph>
<glyph name="germandbls" format="1">
  <advance width="550"/>
  <unicode hex="00DF"/>
  <outline>
    <contour>
      <point x="260" y="786" type="curve" smooth="yes"/>
      <point x="375" y="786"/>
      <point x="420" y="715"/>
      <point x="420" y="610" type="curve" smooth="yes"/>
      <point x="420" y="518"/>
      <point x="371" y="470"/>
      <point x="259" y="408" type="curve"/>
      <point x="259" y="393" type="line"/>
      <point x="315" y="356" type="line" smooth="yes"/>
      <point x="417" y="289"/>
      <point x="490" y="250"/>
      <point x="490" y="160" type="curve" smooth="yes"/>
      <point x="490" y="85"/>
      <point x="456" y="14"/>
      <point x="350" y="14" type="curve" smooth="yes"/>
      <point x="244" y="14"/>
      <point x="210" y="85"/>
      <point x="210" y="160" type="curve"/>
      <point x="190" y="160" type="line"/>
      <point x="190" y="156" type="line" smooth="yes"/>
      <point x="190" y="78"/>
      <point x="230" y="-6"/>
      <point x="350" y="-6" type="curve" smooth="yes"/>
      <point x="470" y="-6"/>
      <point x="510" y="78"/>
      <point x="510" y="157" type="curve" smooth="yes"/>
      <point x="510" y="163" type="line" smooth="yes"/>
      <point x="510" y="252"/>
      <point x="449" y="291"/>
      <point x="335" y="366" type="curve" smooth="yes"/>
      <point x="283" y="400" type="line"/>
      <point x="400" y="468"/>
      <point x="440" y="520"/>
      <point x="440" y="608" type="curve" smooth="yes"/>
      <point x="440" y="614" type="line" smooth="yes"/>
      <point x="440" y="722"/>
      <point x="390" y="806"/>
      <point x="260" y="806" type="curve" smooth="yes"/>
      <point x="130" y="806"/>
      <point x="80" y="722"/>
      <point x="80" y="614" type="curve" smooth="yes"/>
      <point x="80" y="0" type="line"/>
      <point x="100" y="0" type="line"/>
      <point x="100" y="610" type="line" smooth="yes"/>
      <point x="100" y="715"/>
      <point x="145" y="786"/>
    </contour>
  </outline>
</glyph>
<glyph name="agrave" format="1">
  <advance width="485"/>
  <unicode hex="00E0"/>
  <outline>
    <contour>
      <point x="52" y="125" type="line" smooth="yes"/>
      <point x="52" y="40"/>
      <point x="115" y="-6"/>
      <point x="200" y="-6" type="curve" smooth="yes"/>
      <point x="314" y="-6"/>
      <point x="370" y="46"/>
      <point x="397" y="84" type="curve"/>
      <point x="405" y="0" type="line"/>
      <point x="420" y="0" type="line"/>
      <point x="415" y="120" type="line"/>
      <point x="415" y="361" type="line" smooth="yes"/>
      <point x="415" y="450"/>
      <point x="383" y="536"/>
      <point x="245" y="536" type="curve" smooth="yes"/>
      <point x="107" y="536"/>
      <point x="75" y="450"/>
      <point x="75" y="361" type="curve" smooth="yes"/>
      <point x="75" y="350" type="line"/>
      <point x="95" y="350" type="line"/>
      <point x="95" y="440"/>
      <point x="115" y="516"/>
      <point x="245" y="516" type="curve" smooth="yes"/>
      <point x="375" y="516"/>
      <point x="395" y="440"/>
      <point x="395" y="350" type="curve" smooth="yes"/>
      <point x="395" y="317" type="line"/>
      <point x="215" y="288" type="line" smooth="yes"/>
      <point x="138" y="277"/>
      <point x="52" y="255"/>
      <point x="52" y="135" type="curve" smooth="yes"/>
    </contour>
    <contour>
      <point x="201" y="14" type="curve" smooth="yes"/>
      <point x="114" y="14"/>
      <point x="72" y="67"/>
      <point x="72" y="125" type="curve" smooth="yes"/>
      <point x="72" y="136" type="line" smooth="yes"/>
      <point x="72" y="233"/>
      <point x="134" y="255"/>
      <point x="208" y="268" type="curve" smooth="yes"/>
      <point x="395" y="298" type="line"/>
      <point x="395" y="118" type="line"/>
      <point x="376" y="83"/>
      <point x="327" y="14"/>
    </contour>
    <contour>
      <point x="144" y="780" type="line"/>
      <point x="234" y="620" type="line"/>
      <point x="256" y="620" type="line"/>
      <point x="166" y="780" type="line"/>
    </contour>
  </outline>
</glyph>
<glyph name="aring" format="1">
  <advance width="480"/>
  <unicode hex="00E5"/>
  <outline>
    <contour>
      <point x="47" y="125" type="line" smooth="yes"/>
      <point x="47" y="40"/>
      <point x="110" y="-6"/>
      <point x="195" y="-6" type="curve" smooth="yes"/>
      <point x="309" y="-6"/>
      <point x="365" y="46"/>
      <point x="392" y="84" type="curve"/>
      <point x="400" y="0" type="line"/>
      <point x="415" y="0" type="line"/>
      <point x="410" y="120" type="line"/>
      <point x="410" y="361" type="line" smooth="yes"/>
      <point x="410" y="450"/>
      <point x="378" y="536"/>
      <point x="240" y="536" type="curve" smooth="yes"/>
      <point x="102" y="536"/>
      <point x="70" y="450"/>
      <point x="70" y="361" type="curve" smooth="yes"/>
      <point x="70" y="350" type="line"/>
      <point x="90" y="350" type="line"/>
      <point x="90" y="440"/>
      <point x="110" y="516"/>
      <point x="240" y="516" type="curve" smooth="yes"/>
      <point x="370" y="516"/>
      <point x="390" y="440"/>
      <point x="390" y="350" type="curve" smooth="yes"/>
      <point x="390" y="317" type="line"/>
      <point x="210" y="288" type="line" smooth="yes"/>
      <point x="133" y="277"/>
      <point x="47" y="255"/>
      <point x="47" y="135" type="curve" smooth="yes"/>
    </contour>
    <contour>
      <point x="196" y="14" type="curve" smooth="yes"/>
      <point x="109" y="14"/>
      <point x="67" y="67"/>
      <point x="67" y="125" type="curve" smooth="yes"/>
      <point x="67" y="136" type="line" smooth="yes"/>
      <point x="67" y="233"/>
      <point x="129" y="255"/>
      <point x="203" y="268" type="curve" smooth="yes"/>
      <point x="390" y="298" type="line"/>
      <point x="390" y="118" type="line"/>
      <point x="371" y="83"/>
      <point x="322" y="14"/>
    </contour>
    <contour>
      <point x="154" y="700" type="curve" smooth="yes"/>
      <point x="154" y="653"/>
      <point x="193" y="614"/>
      <point x="240" y="614" type="curve" smooth="yes"/>
      <point x="287" y="614"/>
      <point x="326" y="653"/>
      <point x="326" y="700" type="curve" smooth="yes"/>
      <point x="326" y="747"/>
      <point x="287" y="786"/>
      <point x="240" y="786" type="curve" smooth="yes"/>
      <point x="193" y="786"/>
      <point x="154" y="747"/>
    </contour>
    <contour>
      <point x="172" y="700" type="curve" smooth="yes"/>
      <point x="172" y="738"/>
      <point x="202" y="768"/>
      <point x="240" y="768" type="curve" smooth="yes"/>
      <point x="278" y="768"/>
      <point x="308" y="738"/>
      <point x="308" y="700" type="curve" smooth="yes"/>
      <point x="308" y="662"/>
      <point x="278" y="632"/>
      <point x="240" y="632" type="curve" smooth="yes"/>
      <point x="202" y="632"/>
      <point x="172" y="662"/>
    </contour>
  </outline>
</glyph>
<glyph name="ae" format="1">
  <advance width="865"/>
  <unicode hex="00E6"/>
  <outline>
    <contour>
      <point x="47" y="125" type="line" smooth="yes"/>
      <point x="47" y="40"/>
      <point x="110" y="-6"/>
      <point x="195" y="-6" type="curve" smooth="yes"/>
      <point x="327" y="-6"/>
      <point x="388" y="67"/>
      <point x="414" y="118" type="curve"/>
      <point x="445" y="43"/>
      <point x="506" y="-6"/>
      <point x="605" y="-6" type="curve" smooth="yes"/>
      <point x="752" y="-6"/>
      <point x="810" y="90"/>
      <point x="810" y="165" type="curve" smooth="yes"/>
      <point x="810" y="170" type="line"/>
      <point x="790" y="170" type="line"/>
      <point x="790" y="99"/>
      <point x="741" y="14"/>
      <point x="605" y="14" type="curve" smooth="yes"/>
      <point x="469" y="14"/>
      <point x="410" y="115"/>
      <point x="410" y="255" type="curve"/>
      <point x="810" y="255" type="line"/>
      <point x="810" y="275" type="line" smooth="yes"/>
      <point x="810" y="421"/>
      <point x="748" y="536"/>
      <point x="600" y="536" type="curve" smooth="yes"/>
      <point x="493" y="536"/>
      <point x="432" y="476"/>
      <point x="407" y="387" type="curve"/>
      <point x="401" y="466"/>
      <point x="364" y="536"/>
      <point x="240" y="536" type="curve" smooth="yes"/>
      <point x="102" y="536"/>
      <point x="70" y="450"/>
      <point x="70" y="361" type="curve" smooth="yes"/>
      <point x="70" y="350" type="line"/>
      <point x="90" y="350" type="line"/>
      <point x="90" y="440"/>
      <point x="110" y="516"/>
      <point x="240" y="516" type="curve" smooth="yes"/>
      <point x="370" y="516"/>
      <point x="390" y="440"/>
      <point x="390" y="350" type="curve" smooth="yes"/>
      <point x="390" y="317" type="line"/>
      <point x="210" y="288" type="line" smooth="yes"/>
      <point x="133" y="277"/>
      <point x="47" y="255"/>
      <point x="47" y="135" type="curve" smooth="yes"/>
    </contour>
    <contour>
      <point x="600" y="516" type="curve" smooth="yes"/>
      <point x="729" y="516"/>
      <point x="790" y="416"/>
      <point x="790" y="275" type="curve"/>
      <point x="410" y="275" type="line"/>
      <point x="410" y="416"/>
      <point x="471" y="516"/>
    </contour>
    <contour>
      <point x="196" y="14" type="curve" smooth="yes"/>
      <point x="109" y="14"/>
      <point x="67" y="67"/>
      <point x="67" y="125" type="curve" smooth="yes"/>
      <point x="67" y="136" type="line" smooth="yes"/>
      <point x="67" y="232"/>
      <point x="129" y="256"/>
      <point x="203" y="268" type="curve" smooth="yes"/>
      <point x="390" y="298" type="line"/>
      <point x="390" y="255" type="line" smooth="yes"/>
      <point x="390" y="214"/>
      <point x="395" y="177"/>
      <point x="405" y="143" type="curve"/>
      <point x="376" y="80"/>
      <point x="319" y="14"/>
    </contour>
  </outline>
</glyph>
<glyph name="ccedilla" format="1">
  <advance width="505"/>
  <unicode hex="00E7"/>
  <outline>
    <contour>
      <point x="189" y="-188" type="line"/>
      <point x="211" y="-199"/>
      <point x="241" y="-206"/>
      <point x="268" y="-206" type="curve" smooth="yes"/>
      <point x="315" y="-206"/>
      <point x="359" y="-192"/>
      <point x="359" y="-135" type="curve" smooth="yes"/>
      <point x="359" y="-78"/>
      <point x="313" y="-64"/>
      <point x="273" y="-64" type="curve" smooth="yes"/>
      <point x="266" y="-64"/>
      <point x="260" y="-64"/>
      <point x="255" y="-65" type="curve"/>
      <point x="276" y="-6" type="line"/>
      <point x="406" y="-2"/>
      <point x="450" y="85"/>
      <point x="450" y="165" type="curve" smooth="yes"/>
      <point x="450" y="175" type="line"/>
      <point x="430" y="175" type="line"/>
      <point x="430" y="83"/>
      <point x="385" y="14"/>
      <point x="268" y="14" type="curve" smooth="yes"/>
      <point x="138" y="14"/>
      <point x="75" y="110"/>
      <point x="75" y="255" type="curve" smooth="yes"/>
      <point x="75" y="275" type="line" smooth="yes"/>
      <point x="75" y="420"/>
      <point x="138" y="516"/>
      <point x="268" y="516" type="curve" smooth="yes"/>
      <point x="384" y="516"/>
      <point x="430" y="441"/>
      <point x="430" y="345" type="curve"/>
      <point x="450" y="345" type="line"/>
      <point x="450" y="355" type="line" smooth="yes"/>
      <point x="450" y="440"/>
      <point x="404" y="536"/>
      <point x="268" y="536" type="curve" smooth="yes"/>
      <point x="119" y="536"/>
      <point x="55" y="425"/>
      <point x="55" y="275" type="curve" smooth="yes"/>
      <point x="55" y="255" type="line" smooth="yes"/>
      <point x="55" y="109"/>
      <point x="115" y="0"/>
      <point x="256" y="-6" type="curve"/>
      <point x="232" y="-73" type="line"/>
      <point x="243" y="-84" type="line"/>
      <point x="243" y="-84"/>
      <point x="254" y="-82"/>
      <point x="268" y="-82" type="curve" smooth="yes"/>
      <point x="306" y="-82"/>
      <point x="341" y="-87"/>
      <point x="341" y="-135" type="curve" smooth="yes"/>
      <point x="341" y="-183"/>
      <point x="306" y="-188"/>
      <point x="268" y="-188" type="curve" smooth="yes"/>
      <point x="244" y="-188"/>
      <point x="211" y="-181"/>
      <point x="195" y="-172" type="curve"/>
    </contour>
  </outline>
</glyph>
<glyph name="ecircumflex" format="1">
  <advance width="530"/>
  <unicode hex="00EA"/>
  <outline>
    <contour>
      <point x="475" y="255" type="line"/>
      <point x="475" y="275" type="line" smooth="yes"/>
      <point x="475" y="421"/>
      <point x="413" y="536"/>
      <point x="265" y="536" type="curve" smooth="yes"/>
      <point x="117" y="536"/>
      <point x="55" y="421"/>
      <point x="55" y="275" type="curve" smooth="yes"/>
      <point x="55" y="255" type="line" smooth="yes"/>
      <point x="55" y="109"/>
      <point x="119" y="-6"/>
      <point x="270" y="-6" type="curve" smooth="yes"/>
      <point x="417" y="-6"/>
      <point x="475" y="90"/>
      <point x="475" y="165" type="curve" smooth="yes"/>
      <point x="475" y="170" type="line"/>
      <point x="455" y="170" type="line"/>
      <point x="455" y="99"/>
      <point x="406" y="14"/>
      <point x="270" y="14" type="curve" smooth="yes"/>
      <point x="134" y="14"/>
      <point x="75" y="115"/>
      <point x="75" y="255" type="curve"/>
    </contour>
    <contour>
      <point x="265" y="516" type="curve" smooth="yes"/>
      <point x="394" y="516"/>
      <point x="455" y="416"/>
      <point x="455" y="275" type="curve"/>
      <point x="75" y="275" type="line"/>
      <point x="75" y="416"/>
      <point x="136" y="516"/>
    </contour>
    <contour>
      <point x="155" y="620" type="line"/>
      <point x="265" y="762" type="line"/>
      <point x="375" y="620" type="line"/>
      <point x="400" y="620" type="line"/>
      <point x="275" y="780" type="line"/>
      <point x="255" y="780" type="line"/>
      <point x="130" y="620" type="line"/>
    </contour>
  </outline>
</glyph>
<glyph name="edieresis" format="1">
  <advance width="530"/>
  <unicode hex="00EB"/>
  <outline>
    <contour>
      <point x="475" y="255" type="line"/>
      <point x="475" y="275" type="line" smooth="yes"/>
      <point x="475" y="421"/>
      <point x="413" y="536"/>
      <point x="265" y="536" type="curve" smooth="yes"/>
      <point x="117" y="536"/>
      <point x="55" y="421"/>
      <point x="55" y="275" type="curve" smooth="yes"/>
      <point x="55" y="255" type="line" smooth="yes"/>
      <point x="55" y="109"/>
      <point x="119" y="-6"/>
      <point x="270" y="-6" type="curve" smooth="yes"/>
      <point x="417" y="-6"/>
      <point x="475" y="90"/>
      <point x="475" y="165" type="curve" smooth="yes"/>
      <point x="475" y="170" type="line"/>
      <point x="455" y="170" type="line"/>
      <point x="455" y="99"/>
      <point x="406" y="14"/>
      <point x="270" y="14" type="curve" smooth="yes"/>
      <point x="134" y="14"/>
      <point x="75" y="115"/>
      <point x="75" y="255" type="curve"/>
    </contour>
    <contour>
      <point x="265" y="516" type="curve" smooth="yes"/>
      <point x="394" y="516"/>
      <point x="455" y="416"/>
      <point x="455" y="275" type="curve"/>
      <point x="75" y="275" type="line"/>
      <point x="75" y="416"/>
      <point x="136" y="516"/>
    </contour>
    <contour>
      <point x="215" y="720" type="line"/>
      <point x="175" y="720" type="line"/>
      <point x="175" y="680" type="line"/>
      <point x="215" y="680" type="line"/>
    </contour>
    <contour>
      <point x="355" y="720" type="line"/>
      <point x="315" y="720" type="line"/>
      <point x="315" y="680" type="line"/>
      <point x="355" y="680" type="line"/>
    </contour>
  </outline>
</glyph>
<glyph name="igrave" format="1">
  <advance width="180"/>
  <unicode hex="00EC"/>
  <outline>
    <contour>
      <point x="80" y="0" type="line"/>
      <point x="100" y="0" type="line"/>
      <point x="100" y="530" type="line"/>
      <point x="80" y="530" type="line"/>
    </contour>
    <contour>
      <point x="-11" y="780" type="line"/>
      <point x="79" y="620" type="line"/>
      <point x="101" y="620" type="line"/>
      <point x="11" y="780" type="line"/>
    </contour>
  </outline>
</glyph>
<glyph name="iacute" format="1">
  <advance width="180"/>
  <unicode hex="00ED"/>
  <outline>
    <contour>
      <point x="80" y="0" type="line"/>
      <point x="100" y="0" type="line"/>
      <point x="100" y="530" type="line"/>
      <point x="80" y="530" type="line"/>
    </contour>
    <contour>
      <point x="169" y="780" type="line"/>
      <point x="79" y="620" type="line"/>
      <point x="101" y="620" type="line"/>
      <point x="191" y="780" type="line"/>
    </contour>
  </outline>
</glyph>
<glyph name="icircumflex" format="1">
  <advance width="180"/>
  <unicode hex="00EE"/>
  <outline>
    <contour>
      <point x="80" y="0" type="line"/>
      <point x="100" y="0" type="line"/>
      <point x="100" y="530" type="line"/>
      <point x="80" y="530" type="line"/>
    </contour>
    <contour>
      <point x="-20" y="620" type="line"/>
      <point x="90" y="762" type="line"/>
      <point x="200" y="620" type="line"/>
      <point x="225" y="620" type="line"/>
      <point x="100" y="780" type="line"/>
      <point x="80" y="780" type="line"/>
      <point x="-45" y="620" type="line"/>
    </contour>
  </outline>
</glyph>
<glyph name="idieresis" format="1">
  <advance width="180"/>
  <unicode hex="00EF"/>
  <outline>
    <contour>
      <point x="80" y="0" type="line"/>
      <point x="100" y="0" type="line"/>
      <point x="100" y="530" type="line"/>
      <point x="80" y="530" type="line"/>
    </contour>
    <contour>
      <point x="180" y="720" type="line"/>
      <point x="140" y="720" type="line"/>
      <point x="140" y="680" type="line"/>
      <point x="180" y="680" type="line"/>
    </contour>
    <contour>
      <point x="40" y="720" type="line"/>
      <point x="0" y="720" type="line"/>
      <point x="0" y="680" type="line"/>
      <point x="40" y="680" type="line"/>
    </contour>
  </outline>
</glyph>
<glyph name="eth" format="1">
  <advance width="526"/>
  <unicode hex="00F0"/>
  <outline>
    <contour>
      <point x="346" y="623" type="curve" smooth="yes"/>
      <point x="394" y="566"/>
      <point x="422" y="497"/>
      <point x="437" y="429" type="curve"/>
      <point x="405" y="497"/>
      <point x="346" y="536"/>
      <point x="263" y="536" type="curve" smooth="yes"/>
      <point x="129" y="536"/>
      <point x="55" y="437"/>
      <point x="55" y="275" type="curve" smooth="yes"/>
      <point x="55" y="255" type="line" smooth="yes"/>
      <point x="55" y="93"/>
      <point x="129" y="-6"/>
      <point x="263" y="-6" type="curve" smooth="yes"/>
      <point x="397" y="-6"/>
      <point x="471" y="93"/>
      <point x="471" y="255" type="curve" smooth="yes"/>
      <point x="471" y="275" type="line" smooth="yes"/>
      <point x="471" y="392"/>
      <point x="449" y="532"/>
      <point x="359" y="637" type="curve" smooth="yes"/>
      <point x="329" y="671"/>
      <point x="298" y="699"/>
      <point x="266" y="722" type="curve"/>
      <point x="366" y="782" type="line"/>
      <point x="366" y="806" type="line"/>
      <point x="247" y="736" type="line"/>
      <point x="183" y="777"/>
      <point x="118" y="798"/>
      <point x="56" y="806" type="curve"/>
      <point x="56" y="786" type="line"/>
      <point x="103" y="779"/>
      <point x="166" y="761"/>
      <point x="227" y="724" type="curve"/>
      <point x="95" y="646" type="line"/>
      <point x="95" y="622" type="line"/>
      <point x="247" y="711" type="line"/>
      <point x="281" y="688"/>
      <point x="315" y="659"/>
    </contour>
    <contour>
      <point x="263" y="14" type="curve" smooth="yes"/>
      <point x="141" y="14"/>
      <point x="75" y="107"/>
      <point x="75" y="255" type="curve" smooth="yes"/>
      <point x="75" y="275" type="line" smooth="yes"/>
      <point x="75" y="423"/>
      <point x="141" y="516"/>
      <point x="263" y="516" type="curve" smooth="yes"/>
      <point x="385" y="516"/>
      <point x="451" y="423"/>
      <point x="451" y="275" type="curve" smooth="yes"/>
      <point x="451" y="255" type="line" smooth="yes"/>
      <point x="451" y="107"/>
      <point x="385" y="14"/>
    </contour>
  </outline>
</glyph>
<glyph name="ntilde" format="1">
  <advance width="490"/>
  <unicode hex="00F1"/>
  <outline>
    <contour>
      <point x="430" y="0" type="line"/>
      <point x="430" y="380" type="line" smooth="yes"/>
      <point x="430" y="487"/>
      <point x="374" y="536"/>
      <point x="271" y="536" type="curve" smooth="yes"/>
      <point x="174" y="536"/>
      <point x="117" y="490"/>
      <point x="87" y="448" type="curve"/>
      <point x="80" y="530" type="line"/>
      <point x="65" y="530" type="line"/>
      <point x="70" y="410" type="line"/>
      <point x="70" y="0" type="line"/>
      <point x="90" y="0" type="line"/>
      <point x="90" y="423" type="line"/>
      <point x="117" y="466"/>
      <point x="173" y="516"/>
      <point x="269" y="516" type="curve" smooth="yes"/>
      <point x="360" y="516"/>
      <point x="410" y="480"/>
      <point x="410" y="375" type="curve" smooth="yes"/>
      <point x="410" y="0" type="line"/>
    </contour>
    <contour>
      <point x="367" y="732" type="line"/>
      <point x="367" y="687"/>
      <point x="345" y="680"/>
      <point x="322" y="680" type="curve" smooth="yes"/>
      <point x="275" y="680"/>
      <point x="229" y="738"/>
      <point x="175" y="738" type="curve" smooth="yes"/>
      <point x="145" y="738"/>
      <point x="115" y="722"/>
      <point x="115" y="668" type="curve"/>
      <point x="133" y="668" type="line"/>
      <point x="133" y="713"/>
      <point x="155" y="720"/>
      <point x="178" y="720" type="curve" smooth="yes"/>
      <point x="225" y="720"/>
      <point x="271" y="662"/>
      <point x="325" y="662" type="curve" smooth="yes"/>
      <point x="355" y="662"/>
      <point x="385" y="678"/>
      <point x="385" y="732" type="curve"/>
    </contour>
  </outline>
</glyph>
<glyph name="ograve" format="1">
  <advance width="526"/>
  <unicode hex="00F2"/>
  <outline>
    <contour>
      <point x="263" y="-6" type="curve" smooth="yes"/>
      <point x="397" y="-6"/>
      <point x="471" y="93"/>
      <point x="471" y="255" type="curve" smooth="yes"/>
      <point x="471" y="275" type="line" smooth="yes"/>
      <point x="471" y="437"/>
      <point x="397" y="536"/>
      <point x="263" y="536" type="curve" smooth="yes"/>
      <point x="129" y="536"/>
      <point x="55" y="437"/>
      <point x="55" y="275" type="curve" smooth="yes"/>
      <point x="55" y="255" type="line" smooth="yes"/>
      <point x="55" y="93"/>
      <point x="129" y="-6"/>
    </contour>
    <contour>
      <point x="263" y="14" type="curve" smooth="yes"/>
      <point x="141" y="14"/>
      <point x="75" y="107"/>
      <point x="75" y="255" type="curve" smooth="yes"/>
      <point x="75" y="275" type="line" smooth="yes"/>
      <point x="75" y="423"/>
      <point x="141" y="516"/>
      <point x="263" y="516" type="curve" smooth="yes"/>
      <point x="385" y="516"/>
      <point x="451" y="423"/>
      <point x="451" y="275" type="curve" smooth="yes"/>
      <point x="451" y="255" type="line" smooth="yes"/>
      <point x="451" y="107"/>
      <point x="385" y="14"/>
    </contour>
    <contour>
      <point x="162" y="780" type="line"/>
      <point x="252" y="620" type="line"/>
      <point x="274" y="620" type="line"/>
      <point x="184" y="780" type="line"/>
    </contour>
  </outline>
</glyph>
<glyph name="otilde" format="1">
  <advance width="526"/>
  <unicode hex="00F5"/>
  <outline>
    <contour>
      <point x="263" y="-6" type="curve" smooth="yes"/>
      <point x="397" y="-6"/>
      <point x="471" y="93"/>
      <point x="471" y="255" type="curve" smooth="yes"/>
      <point x="471" y="275" type="line" smooth="yes"/>
      <point x="471" y="437"/>
      <point x="397" y="536"/>
      <point x="263" y="536" type="curve" smooth="yes"/>
      <point x="129" y="536"/>
      <point x="55" y="437"/>
      <point x="55" y="275" type="curve" smooth="yes"/>
      <point x="55" y="255" type="line" smooth="yes"/>
      <point x="55" y="93"/>
      <point x="129" y="-6"/>
    </contour>
    <contour>
      <point x="263" y="14" type="curve" smooth="yes"/>
      <point x="141" y="14"/>
      <point x="75" y="107"/>
      <point x="75" y="255" type="curve" smooth="yes"/>
      <point x="75" y="275" type="line" smooth="yes"/>
      <point x="75" y="423"/>
      <point x="141" y="516"/>
      <point x="263" y="516" type="curve" smooth="yes"/>
      <point x="385" y="516"/>
      <point x="451" y="423"/>
      <point x="451" y="275" type="curve" smooth="yes"/>
      <point x="451" y="255" type="line" smooth="yes"/>
      <point x="451" y="107"/>
      <point x="385" y="14"/>
    </contour>
    <contour>
      <point x="380" y="732" type="line"/>
      <point x="380" y="687"/>
      <point x="358" y="680"/>
      <point x="335" y="680" type="curve" smooth="yes"/>
      <point x="288" y="680"/>
      <point x="242" y="738"/>
      <point x="188" y="738" type="curve" smooth="yes"/>
      <point x="158" y="738"/>
      <point x="128" y="722"/>
      <point x="128" y="668" type="curve"/>
      <point x="146" y="668" type="line"/>
      <point x="146" y="713"/>
      <point x="168" y="720"/>
      <point x="191" y="720" type="curve" smooth="yes"/>
      <point x="238" y="720"/>
      <point x="284" y="662"/>
      <point x="338" y="662" type="curve" smooth="yes"/>
      <point x="368" y="662"/>
      <point x="398" y="678"/>
      <point x="398" y="732" type="curve"/>
    </contour>
  </outline>
</glyph>
<glyph name="divide" format="1">
  <advance width="600"/>
  <unicode hex="00F7"/>
  <outline>
    <contour>
      <point x="50" y="380" type="line"/>
      <point x="550" y="380" type="line"/>
      <point x="550" y="400" type="line"/>
      <point x="50" y="400" type="line"/>
    </contour>
    <contour>
      <point x="320" y="640" type="line"/>
      <point x="280" y="640" type="line"/>
      <point x="280" y="600" type="line"/>
      <point x="320" y="600" type="line"/>
    </contour>
    <contour>
      <point x="320" y="180" type="line"/>
      <point x="280" y="180" type="line"/>
      <point x="280" y="140" type="line"/>
      <point x="320" y="140" type="line"/>
    </contour>
  </outline>
</glyph>
<glyph name="oslash" format="1">
  <advance width="526"/>
  <unicode hex="00F8"/>
  <outline>
    <contour>
      <point x="471" y="530" type="line"/>
      <point x="447" y="530" type="line"/>
      <point x="408" y="477" type="line"/>
      <point x="373" y="515"/>
      <point x="324" y="536"/>
      <point x="263" y="536" type="curve" smooth="yes"/>
      <point x="129" y="536"/>
      <point x="55" y="437"/>
      <point x="55" y="275" type="curve" smooth="yes"/>
      <point x="55" y="255" type="line" smooth="yes"/>
      <point x="55" y="176"/>
      <point x="72" y="113"/>
      <point x="105" y="68" type="curve"/>
      <point x="55" y="0" type="line"/>
      <point x="79" y="0" type="line"/>
      <point x="118" y="53" type="line"/>
      <point x="153" y="15"/>
      <point x="201" y="-6"/>
      <point x="263" y="-6" type="curve" smooth="yes"/>
      <point x="397" y="-6"/>
      <point x="471" y="93"/>
      <point x="471" y="255" type="curve" smooth="yes"/>
      <point x="471" y="275" type="line" smooth="yes"/>
      <point x="471" y="353"/>
      <point x="453" y="417"/>
      <point x="420" y="462" type="curve"/>
    </contour>
    <contour>
      <point x="263" y="14" type="curve" smooth="yes"/>
      <point x="206" y="14"/>
      <point x="162" y="34"/>
      <point x="130" y="70" type="curve"/>
      <point x="407" y="444" type="line"/>
      <point x="436" y="403"/>
      <point x="451" y="345"/>
      <point x="451" y="275" type="curve" smooth="yes"/>
      <point x="451" y="255" type="line" smooth="yes"/>
      <point x="451" y="107"/>
      <point x="385" y="14"/>
    </contour>
    <contour>
      <point x="75" y="255" type="curve" smooth="yes"/>
      <point x="75" y="275" type="line" smooth="yes"/>
      <point x="75" y="423"/>
      <point x="141" y="516"/>
      <point x="263" y="516" type="curve" smooth="yes"/>
      <point x="319" y="516"/>
      <point x="364" y="496"/>
      <point x="395" y="460" type="curve"/>
      <point x="118" y="85" type="line"/>
      <point x="90" y="127"/>
      <point x="75" y="184"/>
    </contour>
  </outline>
</glyph>
<glyph name="udieresis" format="1">
  <advance width="490"/>
  <unicode hex="00FC"/>
  <outline>
    <contour>
      <point x="60" y="530" type="line"/>
      <point x="60" y="150" type="line" smooth="yes"/>
      <point x="60" y="43"/>
      <point x="116" y="-6"/>
      <point x="219" y="-6" type="curve" smooth="yes"/>
      <point x="316" y="-6"/>
      <point x="373" y="39"/>
      <point x="402" y="81" type="curve"/>
      <point x="410" y="0" type="line"/>
      <point x="425" y="0" type="line"/>
      <point x="420" y="120" type="line"/>
      <point x="420" y="530" type="line"/>
      <point x="400" y="530" type="line"/>
      <point x="400" y="107" type="line"/>
      <point x="373" y="64"/>
      <point x="317" y="14"/>
      <point x="221" y="14" type="curve" smooth="yes"/>
      <point x="130" y="14"/>
      <point x="80" y="50"/>
      <point x="80" y="155" type="curve" smooth="yes"/>
      <point x="80" y="530" type="line"/>
    </contour>
    <contour>
      <point x="330" y="720" type="line"/>
      <point x="290" y="720" type="line"/>
      <point x="290" y="680" type="line"/>
      <point x="330" y="680" type="line"/>
    </contour>
    <contour>
      <point x="190" y="720" type="line"/>
      <point x="150" y="720" type="line"/>
      <point x="150" y="680" type="line"/>
      <point x="190" y="680" type="line"/>
    </contour>
  </outline>
</glyph>
<glyph name="yacute" format="1">
  <advance width="460"/>
  <unicode hex="00FD"/>
  <outline>
    <contour>
      <point x="230" y="44" type="line"/>
      <point x="49" y="530" type="line"/>
      <point x="27" y="530" type="line"/>
      <point x="221" y="18" type="line"/>
      <point x="139" y="-200" type="line"/>
      <point x="158" y="-200" type="line"/>
      <point x="239" y="18" type="line"/>
      <point x="433" y="530" type="line"/>
      <point x="411" y="530" type="line"/>
    </contour>
    <contour>
      <point x="309" y="780" type="line"/>
      <point x="219" y="620" type="line"/>
      <point x="241" y="620" type="line"/>
      <point x="331" y="780" type="line"/>
    </contour>
  </outline>
</glyph>
<glyph name="thorn" format="1">
  <advance width="510"/>
  <unicode hex="00FE"/>
  <outline>
    <contour>
      <point x="90" y="423" type="line"/>
      <point x="117" y="464"/>
      <point x="166" y="516"/>
      <point x="252" y="516" type="curve" smooth="yes"/>
      <point x="374" y="516"/>
      <point x="435" y="423"/>
      <point x="435" y="275" type="curve" smooth="yes"/>
      <point x="435" y="255" type="line" smooth="yes"/>
      <point x="435" y="107"/>
      <point x="374" y="14"/>
      <point x="252" y="14" type="curve" smooth="yes"/>
      <point x="166" y="14"/>
      <point x="117" y="66"/>
      <point x="90" y="107" type="curve"/>
    </contour>
    <contour>
      <point x="70" y="-200" type="line"/>
      <point x="90" y="-200" type="line"/>
      <point x="90" y="75" type="line"/>
      <point x="116" y="40"/>
      <point x="168" y="-6"/>
      <point x="252" y="-6" type="curve" smooth="yes"/>
      <point x="386" y="-6"/>
      <point x="455" y="93"/>
      <point x="455" y="255" type="curve" smooth="yes"/>
      <point x="455" y="275" type="line" smooth="yes"/>
      <point x="455" y="437"/>
      <point x="386" y="536"/>
      <point x="252" y="536" type="curve" smooth="yes"/>
      <point x="168" y="536"/>
      <point x="116" y="490"/>
      <point x="90" y="455" type="curve"/>
      <point x="90" y="800" type="line"/>
      <point x="70" y="800" type="line"/>
    </contour>
  </outline>
</glyph>
<glyph name="ydieresis" format="1">
  <advance width="460"/>
  <unicode hex="00FF"/>
  <outline>
    <contour>
      <point x="230" y="44" type="line"/>
      <point x="49" y="530" type="line"/>
      <point x="27" y="530" type="line"/>
      <point x="221" y="18" type="line"/>
      <point x="139" y="-200" type="line"/>
      <point x="158" y="-200" type="line"/>
      <point x="239" y="18" type="line"/>
      <point x="433" y="530" type="line"/>
      <point x="411" y="530" type="line"/>
    </contour>
    <contour>
      <point x="320" y="720" type="line"/>
      <point x="280" y="720" type="line"/>
      <point x="280" y="680" type="line"/>
      <point x="320" y="680" type="line"/>
    </contour>
    <contour>
      <point x="180" y="720" type="line"/>
      <point x="140" y="720" type="line"/>
      <point x="140" y="680" type="line"/>
      <point x="180" y="680" type="line"/>
    </contour>
  </outline>
</glyph>
<glyph name="Abreve" format="1">
  <advance width="590"/>
  <unicode hex="0102"/>
  <outline>
    <contour>
      <point x="285" y="790" type="line"/>
      <point x="35" y="0" type="line"/>
      <point x="56" y="0" type="line"/>
      <point x="128" y="230" type="line"/>
      <point x="462" y="230" type="line"/>
      <point x="534" y="0" type="line"/>
      <point x="555" y="0" type="line"/>
      <point x="305" y="790" type="line"/>
    </contour>
    <contour>
      <point x="295" y="760" type="line"/>
      <point x="455" y="250" type="line"/>
      <point x="135" y="250" type="line"/>
    </contour>
    <contour>
      <point x="295" y="852" type="curve" smooth="yes"/>
      <point x="224" y="852"/>
      <point x="183" y="890"/>
      <point x="183" y="950" type="curve"/>
      <point x="165" y="950" type="line"/>
      <point x="165" y="880"/>
      <point x="214" y="834"/>
      <point x="295" y="834" type="curve" smooth="yes"/>
      <point x="376" y="834"/>
      <point x="425" y="880"/>
      <point x="425" y="950" type="curve"/>
      <point x="407" y="950" type="line"/>
      <point x="407" y="890"/>
      <point x="366" y="852"/>
    </contour>
  </outline>
</glyph>
<glyph name="Aogonek" format="1">
  <advance width="590"/>
  <unicode hex="0104"/>
  <outline>
    <contour>
      <point x="594" y="-172" type="line"/>
      <point x="579" y="-179"/>
      <point x="555" y="-188"/>
      <point x="521" y="-188" type="curve" smooth="yes"/>
      <point x="483" y="-188"/>
      <point x="448" y="-170"/>
      <point x="448" y="-115" type="curve" smooth="yes"/>
      <point x="448" y="-45"/>
      <point x="508" y="-15"/>
      <point x="555" y="0" type="curve"/>
      <point x="305" y="790" type="line"/>
      <point x="285" y="790" type="line"/>
      <point x="35" y="0" type="line"/>
      <point x="56" y="0" type="line"/>
      <point x="128" y="230" type="line"/>
      <point x="462" y="230" type="line"/>
      <point x="531" y="9" type="line"/>
      <point x="479" y="-11"/>
      <point x="430" y="-43"/>
      <point x="430" y="-115" type="curve" smooth="yes"/>
      <point x="430" y="-180"/>
      <point x="474" y="-206"/>
      <point x="521" y="-206" type="curve" smooth="yes"/>
      <point x="560" y="-206"/>
      <point x="582" y="-197"/>
      <point x="600" y="-188" type="curve"/>
    </contour>
    <contour>
      <point x="295" y="760" type="line"/>
      <point x="455" y="250" type="line"/>
      <point x="135" y="250" type="line"/>
    </contour>
  </outline>
</glyph>
<glyph name="aogonek" format="1">
  <advance width="485"/>
  <unicode hex="0105"/>
  <outline>
    <contour>
      <point x="459" y="-172" type="line"/>
      <point x="444" y="-179"/>
      <point x="420" y="-188"/>
      <point x="386" y="-188" type="curve" smooth="yes"/>
      <point x="348" y="-188"/>
      <point x="313" y="-170"/>
      <point x="313" y="-115" type="curve" smooth="yes"/>
      <point x="313" y="-45"/>
      <point x="373" y="-15"/>
      <point x="420" y="0" type="curve"/>
      <point x="415" y="120" type="line"/>
      <point x="415" y="361" type="line" smooth="yes"/>
      <point x="415" y="450"/>
      <point x="383" y="536"/>
      <point x="245" y="536" type="curve" smooth="yes"/>
      <point x="107" y="536"/>
      <point x="75" y="450"/>
      <point x="75" y="361" type="curve" smooth="yes"/>
      <point x="75" y="350" type="line"/>
      <point x="95" y="350" type="line"/>
      <point x="95" y="440"/>
      <point x="115" y="516"/>
      <point x="245" y="516" type="curve" smooth="yes"/>
      <point x="375" y="516"/>
      <point x="395" y="440"/>
      <point x="395" y="350" type="curve" smooth="yes"/>
      <point x="395" y="317" type="line"/>
      <point x="215" y="288" type="line" smooth="yes"/>
      <point x="138" y="277"/>
      <point x="52" y="255"/>
      <point x="52" y="135" type="curve" smooth="yes"/>
      <point x="52" y="125" type="line" smooth="yes"/>
      <point x="52" y="40"/>
      <point x="115" y="-6"/>
      <point x="200" y="-6" type="curve" smooth="yes"/>
      <point x="314" y="-6"/>
      <point x="370" y="46"/>
      <point x="397" y="84" type="curve"/>
      <point x="404" y="12" type="line"/>
      <point x="349" y="-8"/>
      <point x="295" y="-39"/>
      <point x="295" y="-115" type="curve" smooth="yes"/>
      <point x="295" y="-180"/>
      <point x="339" y="-206"/>
      <point x="386" y="-206" type="curve" smooth="yes"/>
      <point x="425" y="-206"/>
      <point x="447" y="-197"/>
      <point x="465" y="-188" type="curve"/>
    </contour>
    <contour>
      <point x="201" y="14" type="curve" smooth="yes"/>
      <point x="114" y="14"/>
      <point x="72" y="67"/>
      <point x="72" y="125" type="curve" smooth="yes"/>
      <point x="72" y="136" type="line" smooth="yes"/>
      <point x="72" y="233"/>
      <point x="134" y="255"/>
      <point x="208" y="268" type="curve" smooth="yes"/>
      <point x="395" y="298" type="line"/>
      <point x="395" y="118" type="line"/>
      <point x="376" y="83"/>
      <point x="327" y="14"/>
    </contour>
  </outline>
</glyph>
<glyph name="ccircumflex" format="1">
  <advance width="505"/>
  <unicode hex="0109"/>
  <outline>
    <contour>
      <point x="55" y="275" type="curve" smooth="yes"/>
      <point x="55" y="255" type="line" smooth="yes"/>
      <point x="55" y="105"/>
      <point x="119" y="-6"/>
      <point x="268" y="-6" type="curve" smooth="yes"/>
      <point x="405" y="-6"/>
      <point x="450" y="84"/>
      <point x="450" y="165" type="curve" smooth="yes"/>
      <point x="450" y="175" type="line"/>
      <point x="430" y="175" type="line"/>
      <point x="430" y="83"/>
      <point x="385" y="14"/>
      <point x="268" y="14" type="curve" smooth="yes"/>
      <point x="138" y="14"/>
      <point x="75" y="110"/>
      <point x="75" y="255" type="curve" smooth="yes"/>
      <point x="75" y="275" type="line" smooth="yes"/>
      <point x="75" y="420"/>
      <point x="138" y="516"/>
      <point x="268" y="516" type="curve" smooth="yes"/>
      <point x="384" y="516"/>
      <point x="430" y="441"/>
      <point x="430" y="345" type="curve"/>
      <point x="450" y="345" type="line"/>
      <point x="450" y="355" type="line" smooth="yes"/>
      <point x="450" y="440"/>
      <point x="404" y="536"/>
      <point x="268" y="536" type="curve" smooth="yes"/>
      <point x="119" y="536"/>
      <point x="55" y="425"/>
    </contour>
    <contour>
      <point x="158" y="620" type="line"/>
      <point x="268" y="762" type="line"/>
      <point x="378" y="620" type="line"/>
      <point x="403" y="620" type="line"/>
      <point x="278" y="780" type="line"/>
      <point x="258" y="780" type="line"/>
      <point x="133" y="620" type="line"/>
    </contour>
  </outline>
</glyph>
<glyph name="Dcaron" format="1">
  <advance width="615"/>
  <unicode hex="010E"/>
  <outline>
    <contour>
      <point x="555" y="370" type="curve" smooth="yes"/>
      <point x="555" y="410" type="line" smooth="yes"/>
      <point x="555" y="685"/>
      <point x="435" y="780"/>
      <point x="270" y="780" type="curve" smooth="yes"/>
      <point x="80" y="780" type="line"/>
      <point x="80" y="0" type="line"/>
      <point x="270" y="0" type="line" smooth="yes"/>
      <point x="435" y="0"/>
      <point x="555" y="95"/>
    </contour>
    <contour>
      <point x="100" y="20" type="line"/>
      <point x="100" y="760" type="line"/>
      <point x="265" y="760" type="line" smooth="yes"/>
      <point x="425" y="760"/>
      <point x="535" y="670"/>
      <point x="535" y="410" type="curve" smooth="yes"/>
      <point x="535" y="370" type="line" smooth="yes"/>
      <point x="535" y="110"/>
      <point x="425" y="20"/>
      <point x="265" y="20" type="curve" smooth="yes"/>
    </contour>
    <contour>
      <point x="356" y="950" type="line"/>
      <point x="270" y="855" type="line"/>
      <point x="184" y="950" type="line"/>
      <point x="160" y="950" type="line"/>
      <point x="260" y="840" type="line"/>
      <point x="280" y="840" type="line"/>
      <point x="380" y="950" type="line"/>
    </contour>
  </outline>
</glyph>
<glyph name="Dcroat" format="1">
  <advance width="670"/>
  <unicode hex="0110"/>
  <outline>
    <contour>
      <point x="25" y="408" type="line"/>
      <point x="25" y="388" type="line"/>
      <point x="135" y="388" type="line"/>
      <point x="135" y="0" type="line"/>
      <point x="325" y="0" type="line" smooth="yes"/>
      <point x="490" y="0"/>
      <point x="610" y="95"/>
      <point x="610" y="370" type="curve" smooth="yes"/>
      <point x="610" y="410" type="line" smooth="yes"/>
      <point x="610" y="685"/>
      <point x="490" y="780"/>
      <point x="325" y="780" type="curve" smooth="yes"/>
      <point x="135" y="780" type="line"/>
      <point x="135" y="408" type="line"/>
    </contour>
    <contour>
      <point x="155" y="20" type="line"/>
      <point x="155" y="388" type="line"/>
      <point x="385" y="388" type="line"/>
      <point x="385" y="408" type="line"/>
      <point x="155" y="408" type="line"/>
      <point x="155" y="760" type="line"/>
      <point x="320" y="760" type="line" smooth="yes"/>
      <point x="480" y="760"/>
      <point x="590" y="670"/>
      <point x="590" y="410" type="curve" smooth="yes"/>
      <point x="590" y="370" type="line" smooth="yes"/>
      <point x="590" y="110"/>
      <point x="480" y="20"/>
      <point x="320" y="20" type="curve" smooth="yes"/>
    </contour>
  </outline>
</glyph>
<glyph name="dcroat" format="1">
  <advance width="510"/>
  <unicode hex="0111"/>
  <outline>
    <contour>
      <point x="255" y="655" type="line"/>
      <point x="420" y="655" type="line"/>
      <point x="420" y="455" type="line"/>
      <point x="394" y="489"/>
      <point x="342" y="536"/>
      <point x="258" y="536" type="curve" smooth="yes"/>
      <point x="124" y="536"/>
      <point x="55" y="437"/>
      <point x="55" y="275" type="curve" smooth="yes"/>
      <point x="55" y="255" type="line" smooth="yes"/>
      <point x="55" y="93"/>
      <point x="124" y="-6"/>
      <point x="258" y="-6" type="curve" smooth="yes"/>
      <point x="345" y="-6"/>
      <point x="398" y="44"/>
      <point x="423" y="79" type="curve"/>
      <point x="430" y="0" type="line"/>
      <point x="445" y="0" type="line"/>
      <point x="440" y="120" type="line"/>
      <point x="440" y="655" type="line"/>
      <point x="545" y="655" type="line"/>
      <point x="545" y="675" type="line"/>
      <point x="440" y="675" type="line"/>
      <point x="440" y="800" type="line"/>
      <point x="420" y="800" type="line"/>
      <point x="420" y="675" type="line"/>
      <point x="255" y="675" type="line"/>
    </contour>
    <contour>
      <point x="420" y="423" type="curve"/>
      <point x="420" y="107" type="line"/>
      <point x="393" y="66"/>
      <point x="344" y="14"/>
      <point x="258" y="14" type="curve" smooth="yes"/>
      <point x="136" y="14"/>
      <point x="75" y="107"/>
      <point x="75" y="255" type="curve" smooth="yes"/>
      <point x="75" y="275" type="line" smooth="yes"/>
      <point x="75" y="423"/>
      <point x="136" y="516"/>
      <point x="258" y="516" type="curve" smooth="yes"/>
      <point x="344" y="516"/>
      <point x="393" y="464"/>
    </contour>
  </outline>
</glyph>
<glyph name="Ebreve" format="1">
  <advance width="540"/>
  <unicode hex="0114"/>
  <outline>
    <contour>
      <point x="80" y="780" type="line"/>
      <point x="80" y="0" type="line"/>
      <point x="490" y="0" type="line"/>
      <point x="490" y="20" type="line"/>
      <point x="100" y="20" type="line"/>
      <point x="100" y="388" type="line"/>
      <point x="440" y="388" type="line"/>
      <point x="440" y="408" type="line"/>
      <point x="100" y="408" type="line"/>
      <point x="100" y="760" type="line"/>
      <point x="490" y="760" type="line"/>
      <point x="490" y="780" type="line"/>
    </contour>
    <contour>
      <point x="290" y="852" type="curve" smooth="yes"/>
      <point x="219" y="852"/>
      <point x="178" y="890"/>
      <point x="178" y="950" type="curve"/>
      <point x="160" y="950" type="line"/>
      <point x="160" y="880"/>
      <point x="209" y="834"/>
      <point x="290" y="834" type="curve" smooth="yes"/>
      <point x="371" y="834"/>
      <point x="420" y="880"/>
      <point x="420" y="950" type="curve"/>
      <point x="402" y="950" type="line"/>
      <point x="402" y="890"/>
      <point x="361" y="852"/>
    </contour>
  </outline>
</glyph>
<glyph name="ebreve" format="1">
  <advance width="530"/>
  <unicode hex="0115"/>
  <outline>
    <contour>
      <point x="475" y="255" type="line"/>
      <point x="475" y="275" type="line" smooth="yes"/>
      <point x="475" y="421"/>
      <point x="413" y="536"/>
      <point x="265" y="536" type="curve" smooth="yes"/>
      <point x="117" y="536"/>
      <point x="55" y="421"/>
      <point x="55" y="275" type="curve" smooth="yes"/>
      <point x="55" y="255" type="line" smooth="yes"/>
      <point x="55" y="109"/>
      <point x="119" y="-6"/>
      <point x="270" y="-6" type="curve" smooth="yes"/>
      <point x="417" y="-6"/>
      <point x="475" y="90"/>
      <point x="475" y="165" type="curve" smooth="yes"/>
      <point x="475" y="170" type="line"/>
      <point x="455" y="170" type="line"/>
      <point x="455" y="99"/>
      <point x="406" y="14"/>
      <point x="270" y="14" type="curve" smooth="yes"/>
      <point x="134" y="14"/>
      <point x="75" y="115"/>
      <point x="75" y="255" type="curve"/>
    </contour>
    <contour>
      <point x="265" y="516" type="curve" smooth="yes"/>
      <point x="394" y="516"/>
      <point x="455" y="416"/>
      <point x="455" y="275" type="curve"/>
      <point x="75" y="275" type="line"/>
      <point x="75" y="416"/>
      <point x="136" y="516"/>
    </contour>
    <contour>
      <point x="265" y="614" type="curve" smooth="yes"/>
      <point x="365" y="614"/>
      <point x="415" y="690"/>
      <point x="415" y="780" type="curve"/>
      <point x="397" y="780" type="line"/>
      <point x="397" y="700"/>
      <point x="356" y="632"/>
      <point x="265" y="632" type="curve" smooth="yes"/>
      <point x="174" y="632"/>
      <point x="133" y="700"/>
      <point x="133" y="780" type="curve"/>
      <point x="115" y="780" type="line"/>
      <point x="115" y="690"/>
      <point x="165" y="614"/>
    </contour>
  </outline>
</glyph>
<glyph name="Edotaccent" format="1">
  <advance width="540"/>
  <unicode hex="0116"/>
  <outline>
    <contour>
      <point x="80" y="780" type="line"/>
      <point x="80" y="0" type="line"/>
      <point x="490" y="0" type="line"/>
      <point x="490" y="20" type="line"/>
      <point x="100" y="20" type="line"/>
      <point x="100" y="388" type="line"/>
      <point x="440" y="388" type="line"/>
      <point x="440" y="408" type="line"/>
      <point x="100" y="408" type="line"/>
      <point x="100" y="760" type="line"/>
      <point x="490" y="760" type="line"/>
      <point x="490" y="780" type="line"/>
    </contour>
    <contour>
      <point x="310" y="915" type="line"/>
      <point x="270" y="915" type="line"/>
      <point x="270" y="875" type="line"/>
      <point x="310" y="875" type="line"/>
    </contour>
  </outline>
</glyph>
<glyph name="Eogonek" format="1">
  <advance width="540"/>
  <unicode hex="0118"/>
  <outline>
    <contour>
      <point x="529" y="-172" type="line"/>
      <point x="514" y="-179"/>
      <point x="490" y="-188"/>
      <point x="456" y="-188" type="curve" smooth="yes"/>
      <point x="418" y="-188"/>
      <point x="383" y="-170"/>
      <point x="383" y="-115" type="curve" smooth="yes"/>
      <point x="383" y="-45"/>
      <point x="443" y="-15"/>
      <point x="490" y="0" type="curve"/>
      <point x="490" y="20" type="line"/>
      <point x="100" y="20" type="line"/>
      <point x="100" y="388" type="line"/>
      <point x="440" y="388" type="line"/>
      <point x="440" y="408" type="line"/>
      <point x="100" y="408" type="line"/>
      <point x="100" y="760" type="line"/>
      <point x="490" y="760" type="line"/>
      <point x="490" y="780" type="line"/>
      <point x="80" y="780" type="line"/>
      <point x="80" y="0" type="line"/>
      <point x="444" y="0" type="line"/>
      <point x="401" y="-21"/>
      <point x="365" y="-53"/>
      <point x="365" y="-115" type="curve" smooth="yes"/>
      <point x="365" y="-180"/>
      <point x="409" y="-206"/>
      <point x="456" y="-206" type="curve" smooth="yes"/>
      <point x="495" y="-206"/>
      <point x="517" y="-197"/>
      <point x="535" y="-188" type="curve"/>
    </contour>
  </outline>
</glyph>
<glyph name="eogonek" format="1">
  <advance width="530"/>
  <unicode hex="0119"/>
  <outline>
    <contour>
      <point x="369" y="-172" type="line"/>
      <point x="354" y="-179"/>
      <point x="330" y="-188"/>
      <point x="296" y="-188" type="curve" smooth="yes"/>
      <point x="258" y="-188"/>
      <point x="223" y="-170"/>
      <point x="223" y="-115" type="curve" smooth="yes"/>
      <point x="223" y="-45"/>
      <point x="286" y="-9"/>
      <point x="330" y="0" type="curve" smooth="yes"/>
      <point x="433" y="22"/>
      <point x="475" y="101"/>
      <point x="475" y="165" type="curve" smooth="yes"/>
      <point x="475" y="170" type="line"/>
      <point x="455" y="170" type="line"/>
      <point x="455" y="99"/>
      <point x="406" y="14"/>
      <point x="270" y="14" type="curve" smooth="yes"/>
      <point x="134" y="14"/>
      <point x="75" y="115"/>
      <point x="75" y="255" type="curve"/>
      <point x="475" y="255" type="line"/>
      <point x="475" y="275" type="line" smooth="yes"/>
      <point x="475" y="421"/>
      <point x="413" y="536"/>
      <point x="265" y="536" type="curve" smooth="yes"/>
      <point x="117" y="536"/>
      <point x="55" y="421"/>
      <point x="55" y="275" type="curve" smooth="yes"/>
      <point x="55" y="255" type="line" smooth="yes"/>
      <point x="55" y="109"/>
      <point x="119" y="-6"/>
      <point x="270" y="-6" type="curve" smooth="yes"/>
      <point x="272" y="-6" type="line"/>
      <point x="234" y="-27"/>
      <point x="205" y="-59"/>
      <point x="205" y="-115" type="curve" smooth="yes"/>
      <point x="205" y="-180"/>
      <point x="249" y="-206"/>
      <point x="296" y="-206" type="curve" smooth="yes"/>
      <point x="335" y="-206"/>
      <point x="357" y="-197"/>
      <point x="375" y="-188" type="curve"/>
    </contour>
    <contour>
      <point x="265" y="516" type="curve" smooth="yes"/>
      <point x="394" y="516"/>
      <point x="455" y="416"/>
      <point x="455" y="275" type="curve"/>
      <point x="75" y="275" type="line"/>
      <point x="75" y="416"/>
      <point x="136" y="516"/>
    </contour>
  </outline>
</glyph>
<glyph name="Ecaron" format="1">
  <advance width="540"/>
  <unicode hex="011A"/>
  <outline>
    <contour>
      <point x="80" y="780" type="line"/>
      <point x="80" y="0" type="line"/>
      <point x="490" y="0" type="line"/>
      <point x="490" y="20" type="line"/>
      <point x="100" y="20" type="line"/>
      <point x="100" y="388" type="line"/>
      <point x="440" y="388" type="line"/>
      <point x="440" y="408" type="line"/>
      <point x="100" y="408" type="line"/>
      <point x="100" y="760" type="line"/>
      <point x="490" y="760" type="line"/>
      <point x="490" y="780" type="line"/>
    </contour>
    <contour>
      <point x="376" y="950" type="line"/>
      <point x="290" y="855" type="line"/>
      <point x="204" y="950" type="line"/>
      <point x="180" y="950" type="line"/>
      <point x="280" y="840" type="line"/>
      <point x="300" y="840" type="line"/>
      <point x="400" y="950" type="line"/>
    </contour>
  </outline>
</glyph>
<glyph name="Gcircumflex" format="1">
  <advance width="625"/>
  <unicode hex="011C"/>
  <outline>
    <contour>
      <point x="336" y="-6" type="curve" smooth="yes"/>
      <point x="452" y="-6"/>
      <point x="518" y="38"/>
      <point x="550" y="79" type="curve"/>
      <point x="550" y="362" type="line"/>
      <point x="371" y="362" type="line"/>
      <point x="371" y="342" type="line"/>
      <point x="530" y="342" type="line"/>
      <point x="530" y="88" type="line"/>
      <point x="500" y="50"/>
      <point x="436" y="14"/>
      <point x="339" y="14" type="curve" smooth="yes"/>
      <point x="333" y="14" type="line" smooth="yes"/>
      <point x="175" y="14"/>
      <point x="85" y="110"/>
      <point x="85" y="370" type="curve" smooth="yes"/>
      <point x="85" y="410" type="line" smooth="yes"/>
      <point x="85" y="670"/>
      <point x="176" y="766"/>
      <point x="322" y="766" type="curve" smooth="yes"/>
      <point x="328" y="766" type="line" smooth="yes"/>
      <point x="471" y="766"/>
      <point x="530" y="686"/>
      <point x="530" y="500" type="curve"/>
      <point x="550" y="500" type="line"/>
      <point x="550" y="523" type="line" smooth="yes"/>
      <point x="550" y="683"/>
      <point x="490" y="786"/>
      <point x="325" y="786" type="curve" smooth="yes"/>
      <point x="160" y="786"/>
      <point x="65" y="682"/>
      <point x="65" y="410" type="curve" smooth="yes"/>
      <point x="65" y="370" type="line" smooth="yes"/>
      <point x="65" y="98"/>
      <point x="159" y="-6"/>
    </contour>
    <contour>
      <point x="239" y="840" type="line"/>
      <point x="325" y="935" type="line"/>
      <point x="411" y="840" type="line"/>
      <point x="435" y="840" type="line"/>
      <point x="335" y="950" type="line"/>
      <point x="315" y="950" type="line"/>
      <point x="215" y="840" type="line"/>
    </contour>
  </outline>
</glyph>
<glyph name="Gcommaaccent" format="1">
  <advance width="625"/>
  <unicode hex="0122"/>
  <outline>
    <contour>
      <point x="336" y="-6" type="curve" smooth="yes"/>
      <point x="452" y="-6"/>
      <point x="518" y="38"/>
      <point x="550" y="79" type="curve"/>
      <point x="550" y="362" type="line"/>
      <point x="371" y="362" type="line"/>
      <point x="371" y="342" type="line"/>
      <point x="530" y="342" type="line"/>
      <point x="530" y="88" type="line"/>
      <point x="500" y="50"/>
      <point x="436" y="14"/>
      <point x="339" y="14" type="curve" smooth="yes"/>
      <point x="333" y="14" type="line" smooth="yes"/>
      <point x="175" y="14"/>
      <point x="85" y="110"/>
      <point x="85" y="370" type="curve" smooth="yes"/>
      <point x="85" y="410" type="line" smooth="yes"/>
      <point x="85" y="670"/>
      <point x="176" y="766"/>
      <point x="322" y="766" type="curve" smooth="yes"/>
      <point x="328" y="766" type="line" smooth="yes"/>
      <point x="471" y="766"/>
      <point x="530" y="686"/>
      <point x="530" y="500" type="curve"/>
      <point x="550" y="500" type="line"/>
      <point x="550" y="523" type="line" smooth="yes"/>
      <point x="550" y="683"/>
      <point x="490" y="786"/>
      <point x="325" y="786" type="curve" smooth="yes"/>
      <point x="160" y="786"/>
      <point x="65" y="682"/>
      <point x="65" y="410" type="curve" smooth="yes"/>
      <point x="65" y="370" type="line" smooth="yes"/>
      <point x="65" y="98"/>
      <point x="159" y="-6"/>
    </contour>
    <contour>
      <point x="356" y="-70" type="line"/>
      <point x="316" y="-70" type="line"/>
      <point x="316" y="-110" type="line"/>
      <point x="336" y="-110" type="line"/>
      <point x="335" y="-176"/>
      <point x="317" y="-188"/>
      <point x="281" y="-188" type="curve"/>
      <point x="281" y="-206" type="line"/>
      <point x="332" y="-206"/>
      <point x="356" y="-178"/>
      <point x="356" y="-102" type="curve" smooth="yes"/>
    </contour>
  </outline>
</glyph>
<glyph name="Hcircumflex" format="1">
  <advance width="620"/>
  <unicode hex="0124"/>
  <outline>
    <contour>
      <point x="520" y="780" type="line"/>
      <point x="520" y="408" type="line"/>
      <point x="100" y="408" type="line"/>
      <point x="100" y="780" type="line"/>
      <point x="80" y="780" type="line"/>
      <point x="80" y="0" type="line"/>
      <point x="100" y="0" type="line"/>
      <point x="100" y="388" type="line"/>
      <point x="520" y="388" type="line"/>
      <point x="520" y="0" type="line"/>
      <point x="540" y="0" type="line"/>
      <point x="540" y="780" type="line"/>
    </contour>
    <contour>
      <point x="224" y="840" type="line"/>
      <point x="310" y="935" type="line"/>
      <point x="396" y="840" type="line"/>
      <point x="420" y="840" type="line"/>
      <point x="320" y="950" type="line"/>
      <point x="300" y="950" type="line"/>
      <point x="200" y="840" type="line"/>
    </contour>
  </outline>
</glyph>
<glyph name="hcircumflex" format="1">
  <advance width="490"/>
  <unicode hex="0125"/>
  <outline>
    <contour>
      <point x="430" y="0" type="line"/>
      <point x="430" y="380" type="line" smooth="yes"/>
      <point x="430" y="487"/>
      <point x="374" y="536"/>
      <point x="271" y="536" type="curve" smooth="yes"/>
      <point x="177" y="536"/>
      <point x="120" y="493"/>
      <point x="90" y="452" type="curve"/>
      <point x="90" y="800" type="line"/>
      <point x="70" y="800" type="line"/>
      <point x="70" y="0" type="line"/>
      <point x="90" y="0" type="line"/>
      <point x="90" y="423" type="line"/>
      <point x="117" y="466"/>
      <point x="173" y="516"/>
      <point x="269" y="516" type="curve" smooth="yes"/>
      <point x="360" y="516"/>
      <point x="410" y="480"/>
      <point x="410" y="375" type="curve" smooth="yes"/>
      <point x="410" y="0" type="line"/>
    </contour>
    <contour>
      <point x="-6" y="840" type="line"/>
      <point x="80" y="935" type="line"/>
      <point x="166" y="840" type="line"/>
      <point x="190" y="840" type="line"/>
      <point x="90" y="950" type="line"/>
      <point x="70" y="950" type="line"/>
      <point x="-30" y="840" type="line"/>
    </contour>
  </outline>
</glyph>
<glyph name="Itilde" format="1">
  <advance width="190"/>
  <unicode hex="0128"/>
  <outline>
    <contour>
      <point x="105" y="780" type="line"/>
      <point x="85" y="780" type="line"/>
      <point x="85" y="0" type="line"/>
      <point x="105" y="0" type="line"/>
    </contour>
    <contour>
      <point x="212" y="927" type="line"/>
      <point x="212" y="882"/>
      <point x="190" y="875"/>
      <point x="167" y="875" type="curve" smooth="yes"/>
      <point x="120" y="875"/>
      <point x="74" y="933"/>
      <point x="20" y="933" type="curve" smooth="yes"/>
      <point x="-10" y="933"/>
      <point x="-40" y="917"/>
      <point x="-40" y="863" type="curve"/>
      <point x="-22" y="863" type="line"/>
      <point x="-22" y="908"/>
      <point x="0" y="915"/>
      <point x="23" y="915" type="curve" smooth="yes"/>
      <point x="70" y="915"/>
      <point x="116" y="857"/>
      <point x="170" y="857" type="curve" smooth="yes"/>
      <point x="200" y="857"/>
      <point x="230" y="873"/>
      <point x="230" y="927" type="curve"/>
    </contour>
  </outline>
</glyph>
<glyph name="itilde" format="1">
  <advance width="180"/>
  <unicode hex="0129"/>
  <outline>
    <contour>
      <point x="80" y="0" type="line"/>
      <point x="100" y="0" type="line"/>
      <point x="100" y="530" type="line"/>
      <point x="80" y="530" type="line"/>
    </contour>
    <contour>
      <point x="207" y="732" type="line"/>
      <point x="207" y="687"/>
      <point x="185" y="680"/>
      <point x="162" y="680" type="curve" smooth="yes"/>
      <point x="115" y="680"/>
      <point x="69" y="738"/>
      <point x="15" y="738" type="curve" smooth="yes"/>
      <point x="-15" y="738"/>
      <point x="-45" y="722"/>
      <point x="-45" y="668" type="curve"/>
      <point x="-27" y="668" type="line"/>
      <point x="-27" y="713"/>
      <point x="-5" y="720"/>
      <point x="18" y="720" type="curve" smooth="yes"/>
      <point x="65" y="720"/>
      <point x="111" y="662"/>
      <point x="165" y="662" type="curve" smooth="yes"/>
      <point x="195" y="662"/>
      <point x="225" y="678"/>
      <point x="225" y="732" type="curve"/>
    </contour>
  </outline>
</glyph>
<glyph name="Imacron" format="1">
  <advance width="190"/>
  <unicode hex="012A"/>
  <outline>
    <contour>
      <point x="105" y="780" type="line"/>
      <point x="85" y="780" type="line"/>
      <point x="85" y="0" type="line"/>
      <point x="105" y="0" type="line"/>
    </contour>
    <contour>
      <point x="-5" y="885" type="line"/>
      <point x="195" y="885" type="line"/>
      <point x="195" y="905" type="line"/>
      <point x="-5" y="905" type="line"/>
    </contour>
  </outline>
</glyph>
<glyph name="Ibreve" format="1">
  <advance width="190"/>
  <unicode hex="012C"/>
  <outline>
    <contour>
      <point x="105" y="780" type="line"/>
      <point x="85" y="780" type="line"/>
      <point x="85" y="0" type="line"/>
      <point x="105" y="0" type="line"/>
    </contour>
    <contour>
      <point x="95" y="852" type="curve" smooth="yes"/>
      <point x="24" y="852"/>
      <point x="-17" y="890"/>
      <point x="-17" y="950" type="curve"/>
      <point x="-35" y="950" type="line"/>
      <point x="-35" y="880"/>
      <point x="14" y="834"/>
      <point x="95" y="834" type="curve" smooth="yes"/>
      <point x="176" y="834"/>
      <point x="225" y="880"/>
      <point x="225" y="950" type="curve"/>
      <point x="207" y="950" type="line"/>
      <point x="207" y="890"/>
      <point x="166" y="852"/>
    </contour>
  </outline>
</glyph>
<glyph name="ibreve" format="1">
  <advance width="180"/>
  <unicode hex="012D"/>
  <outline>
    <contour>
      <point x="80" y="0" type="line"/>
      <point x="100" y="0" type="line"/>
      <point x="100" y="530" type="line"/>
      <point x="80" y="530" type="line"/>
    </contour>
    <contour>
      <point x="90" y="614" type="curve" smooth="yes"/>
      <point x="190" y="614"/>
      <point x="240" y="690"/>
      <point x="240" y="780" type="curve"/>
      <point x="222" y="780" type="line"/>
      <point x="222" y="700"/>
      <point x="181" y="632"/>
      <point x="90" y="632" type="curve" smooth="yes"/>
      <point x="-1" y="632"/>
      <point x="-42" y="700"/>
      <point x="-42" y="780" type="curve"/>
      <point x="-60" y="780" type="line"/>
      <point x="-60" y="690"/>
      <point x="-10" y="614"/>
    </contour>
  </outline>
</glyph>
<glyph name="Iogonek" format="1">
  <advance width="190"/>
  <unicode hex="012E"/>
  <outline>
    <contour>
      <point x="144" y="-172" type="line"/>
      <point x="129" y="-179"/>
      <point x="105" y="-188"/>
      <point x="71" y="-188" type="curve" smooth="yes"/>
      <point x="33" y="-188"/>
      <point x="-2" y="-170"/>
      <point x="-2" y="-115" type="curve" smooth="yes"/>
      <point x="-2" y="-45"/>
      <point x="58" y="-15"/>
      <point x="105" y="0" type="curve"/>
      <point x="105" y="780" type="line"/>
      <point x="85" y="780" type="line"/>
      <point x="85" y="11" type="line"/>
      <point x="31" y="-9"/>
      <point x="-20" y="-41"/>
      <point x="-20" y="-115" type="curve" smooth="yes"/>
      <point x="-20" y="-180"/>
      <point x="24" y="-206"/>
      <point x="71" y="-206" type="curve" smooth="yes"/>
      <point x="110" y="-206"/>
      <point x="132" y="-197"/>
      <point x="150" y="-188" type="curve"/>
    </contour>
  </outline>
</glyph>
<glyph name="iogonek" format="1">
  <advance width="180"/>
  <unicode hex="012F"/>
  <outline>
    <contour>
      <point x="139" y="-172" type="line"/>
      <point x="124" y="-179"/>
      <point x="100" y="-188"/>
      <point x="66" y="-188" type="curve" smooth="yes"/>
      <point x="28" y="-188"/>
      <point x="-7" y="-170"/>
      <point x="-7" y="-115" type="curve" smooth="yes"/>
      <point x="-7" y="-45"/>
      <point x="53" y="-15"/>
      <point x="100" y="0" type="curve"/>
      <point x="100" y="530" type="line"/>
      <point x="80" y="530" type="line"/>
      <point x="80" y="11" type="line"/>
      <point x="26" y="-9"/>
      <point x="-25" y="-41"/>
      <point x="-25" y="-115" type="curve" smooth="yes"/>
      <point x="-25" y="-180"/>
      <point x="19" y="-206"/>
      <point x="66" y="-206" type="curve" smooth="yes"/>
      <point x="105" y="-206"/>
      <point x="127" y="-197"/>
      <point x="145" y="-188" type="curve"/>
    </contour>
    <contour>
      <point x="110" y="720" type="line"/>
      <point x="70" y="720" type="line"/>
      <point x="70" y="680" type="line"/>
      <point x="110" y="680" type="line"/>
    </contour>
  </outline>
</glyph>
<glyph name="Idotaccent" format="1">
  <advance width="190"/>
  <unicode hex="0130"/>
  <outline>
    <contour>
      <point x="105" y="780" type="line"/>
      <point x="85" y="780" type="line"/>
      <point x="85" y="0" type="line"/>
      <point x="105" y="0" type="line"/>
    </contour>
    <contour>
      <point x="115" y="915" type="line"/>
      <point x="75" y="915" type="line"/>
      <point x="75" y="875" type="line"/>
      <point x="115" y="875" type="line"/>
    </contour>
  </outline>
</glyph>
<glyph name="dotlessi" format="1">
  <advance width="180"/>
  <unicode hex="0131"/>
  <outline>
    <contour>
      <point x="80" y="0" type="line"/>
      <point x="100" y="0" type="line"/>
      <point x="100" y="530" type="line"/>
      <point x="80" y="530" type="line"/>
    </contour>
  </outline>
</glyph>
